<svg width="75" height="100" viewBox="0 0 75 100" fill="none" xmlns="http://www.w3.org/2000/svg">
<g clip-path="url(#clip0_13_24)">
<path d="M64.0258 -0.0195312H9.8479C4.40905 -0.0195312 0 4.38952 0 9.82837V88.8031C0 94.242 4.40905 98.651 9.8479 98.651H64.0258C69.4647 98.651 73.8737 94.242 73.8737 88.8031V9.82837C73.8737 4.38952 69.4647 -0.0195312 64.0258 -0.0195312Z" fill="#F5F0EB"/>
<mask id="mask0_13_24" style="mask-type:luminance" maskUnits="userSpaceOnUse" x="0" y="-1" width="74" height="100">
<path d="M64.0258 -0.0195312H9.8479C4.40905 -0.0195312 0 4.38952 0 9.82837V88.8031C0 94.242 4.40905 98.651 9.8479 98.651H64.0258C69.4647 98.651 73.8737 94.242 73.8737 88.8031V9.82837C73.8737 4.38952 69.4647 -0.0195312 64.0258 -0.0195312Z" fill="#FF3737"/>
</mask>
<g mask="url(#mask0_13_24)">
<g filter="url(#filter0_f_13_24)">
<path fill-rule="evenodd" clip-rule="evenodd" d="M-1.17407 30.2102C-2.37586 22.067 -4.14733 5.38508 -0.314861 -0.0737726C4.67733 -6.50453 57.4873 -5.10431 64.8273 0.38068C68.0032 2.53209 17.3199 2.64848 11.5957 9.69552C6.00499 16.4334 0.160172 40.8253 -1.17407 30.2102Z" fill="white"/>
</g>
</g>
<mask id="mask1_13_24" style="mask-type:luminance" maskUnits="userSpaceOnUse" x="37" y="67" width="75" height="99">
<path d="M47.2401 165.75H101.418C106.857 165.75 111.266 161.341 111.266 155.902V76.9274C111.266 71.4885 106.857 67.0795 101.418 67.0795H47.2401C41.8013 67.0795 37.3922 71.4885 37.3922 76.9274V155.902C37.3922 161.341 41.8013 165.75 47.2401 165.75Z" fill="#FF3737"/>
</mask>
<g mask="url(#mask1_13_24)">
<g filter="url(#filter1_f_13_24)">
<path fill-rule="evenodd" clip-rule="evenodd" d="M73.909 73.9837C74.728 76.2768 76.4321 90.8369 72.5996 96.2958C67.6075 102.727 18.5752 100.348 15.5914 98.741C12.8649 97.4319 59.5631 98.7265 66.0252 90.1569C71.3415 82.7709 72.5497 69.9248 73.909 73.9837Z" fill="black" fill-opacity="0.196078"/>
</g>
</g>
</g>
<g clip-path="url(#clip1_13_24)">
<path fill-rule="evenodd" clip-rule="evenodd" d="M37.7099 33.038C42.3283 34.8391 47.3858 47.373 51.178 57.2513C51.3635 57.6532 51.4765 58.0891 51.9381 58.3279C55.4038 60.2834 59.4261 63.193 61.1022 64.5631C64.2295 66.7775 65.863 65.3208 65.0113 63.2132C64.3678 61.5896 61.8662 57.8389 61.3066 56.6387C60.5931 55.3077 58.7334 53.781 56.3329 51.9702C51.5501 48.52 48.6456 40.9671 40.0207 30.2798C39.6002 29.8808 37.4852 32.2063 37.7099 33.038Z" fill="#004900"/>
<path fill-rule="evenodd" clip-rule="evenodd" d="M39.5516 31.9935C29.0957 46.7121 22.4857 55.1165 12.3441 61.4066C9.53993 63.3144 8.95348 61.7189 11.1179 59.9918C23.5897 49.8367 26.3036 41.3021 36.7362 30.0212L39.5516 31.9935Z" fill="#004900"/>
<path fill-rule="evenodd" clip-rule="evenodd" d="M36.5457 26.0121C32.5326 29.6504 30.1261 33.8782 25.1878 36.4138C22.9659 37.8032 22.8948 39.3705 25.7337 39.0152C30.3688 38.2722 35.5089 35.4729 39.3145 33.2376C42.5271 31.241 42.1278 21.3034 36.5457 26.0121Z" fill="#004900"/>
<path fill-rule="evenodd" clip-rule="evenodd" d="M46.1506 24.743C45.0807 28.3273 44.1321 31.1046 41.9817 34.7996L44.4535 37.0692C47.8782 30.2128 49.0527 26.8969 50.7648 26.3934C51.3347 26.084 50.9827 25.0532 50.6895 24.5162C50.0742 23.3891 49.4543 22.0748 48.6798 21.2732C46.9992 19.6632 46.7075 23.249 46.1506 24.743Z" fill="#004900"/>
<path fill-rule="evenodd" clip-rule="evenodd" d="M53.1908 34.9187C52.4517 34.117 51.6171 34.3994 51.0108 35.8213C50.4665 37.1501 47.6297 40.7618 44.1472 44.1205C42.9589 45.332 44.0142 46.4963 45.8885 45.178C49.0244 42.2135 51.5417 39.9097 53.4663 39.463C54.341 39.2907 55.8723 39.852 55.7004 38.6613C55.3899 37.2292 54.3769 36.0927 53.1908 34.9187Z" fill="#004900"/>
<path fill-rule="evenodd" clip-rule="evenodd" d="M21.8803 40.3654C19.3478 37.9345 17.3234 38.8205 19.9856 42.4534C25.4979 50.0446 28.8795 51.4939 27.5447 54.2788L30.1019 54.2796C31.5107 52.758 31.0065 53.744 29.9742 49.1181C29.6799 47.7995 25.8271 45.8065 21.8803 40.3654Z" fill="#004900"/>
<path fill-rule="evenodd" clip-rule="evenodd" d="M24.7054 48.2453L21.0586 51.7364C25.6856 51.3572 27.7776 51.6761 32.4858 48.978C35.7963 47.1528 33.7341 45.5127 31.8897 46.1435C27.8897 47.8276 28.149 47.642 24.7054 48.2453Z" fill="#004900"/>
<path fill-rule="evenodd" clip-rule="evenodd" d="M20.1685 58.9976C19.1247 59.6164 17.81 58.532 18.5258 60.1718C19.2365 61.4114 20.6807 61.2754 22.0897 60.7589C23.3084 60.3068 31.6559 53.8493 37.04 53.0879L37.3259 49.4827C28.5876 52.4385 21.1975 58.2922 20.1685 58.9976Z" fill="#004900"/>
<path fill-rule="evenodd" clip-rule="evenodd" d="M39.9849 39.0365C39.5593 38.5408 38.4617 37.8024 37.8992 39.5807C37.7711 40.4167 38.1042 41.2473 37.9855 42.532C37.4237 50.2532 35.7206 52.5925 35.1604 55.7738C34.9022 57.4694 35.6603 58.6539 36.8836 56.2189C37.7975 53.4797 38.8195 51.5374 41.9367 43.5709C42.1443 42.164 41.3734 40.5944 39.9849 39.0365Z" fill="#004900"/>
<path fill-rule="evenodd" clip-rule="evenodd" d="M30.0104 55.3806L27.9713 56.4577C29.2449 59.4861 26.2163 70.2261 23.9523 70.0517C21.2316 69.7682 18.5635 67.7724 16.5401 66.3167L15.6236 66.4007C17.8754 70.0804 20.8523 74.3972 24.1164 74.9919C25.1441 75.1545 27.1507 73.8642 27.6826 72.9832C31.6285 64.8747 32.929 60.7444 32.1017 58.4321C31.7225 57.3724 30.4054 56.5726 30.0104 55.3806Z" fill="#004900"/>
<path fill-rule="evenodd" clip-rule="evenodd" d="M29.01 62.1562L28.7295 59.7024C23.7865 61.3973 19.955 64.2023 16.1052 64.7856C14.5743 64.991 13.4156 64.478 12.3616 63.7675C11.6518 63.1996 11.3094 63.6825 11.4522 64.4247C11.8515 65.9897 12.0811 65.9508 13.0677 66.7197C13.9899 67.2878 14.7315 67.3275 16.2208 67.2247C19.995 66.9286 24.822 63.5238 29.01 62.1562Z" fill="#004900"/>
<path fill-rule="evenodd" clip-rule="evenodd" d="M36.9926 53.177L35.828 56.7717C40.1194 56.2003 42.4804 55.9652 46.3017 54.5652C49.2697 52.37 47.6867 51.7765 45.8481 51.5862C40.5941 52.0242 42.3694 52.4929 36.9926 53.177Z" fill="#004900"/>
<path fill-rule="evenodd" clip-rule="evenodd" d="M41.9037 54.2988L39.0691 55.0967C39.0034 60.6001 39.1982 61.6467 38.6223 63.0665C36.8727 66.4051 38.2996 67.0203 30.1111 73.1129C28.9649 73.9429 30.0158 75.5572 31.3493 75.3061C37.0161 74.3594 41.9327 70.9659 42.2625 69.6968C43.0347 65.9327 42.3437 60.3285 41.9037 54.2988Z" fill="#004900"/>
<path fill-rule="evenodd" clip-rule="evenodd" d="M30.4047 61.2613L30.2393 64.556C29.5689 64.3367 43.5725 63.5091 52.0579 64.1306C53.1767 64.0885 54.8447 64.1537 54.5863 63.1579C52.6785 60.3381 51.6377 60.022 50.4842 59.887C50.0853 59.922 49.3388 60.2941 48.8023 60.2474C45.4136 60.5353 37.1046 61.0734 30.4047 61.2613Z" fill="#004900"/>
<path fill-rule="evenodd" clip-rule="evenodd" d="M45.4012 68.678C47.5963 70.2533 48.4932 71.8264 49.0617 75.0341C49.1258 75.3955 48.9898 76.0165 50.032 76.1977C53.8626 76.8647 57.7349 75.0327 58.0752 73.2503C58.2886 69.6111 51.1477 66.4604 46.1665 66.8811C45.1402 67.0531 44.9489 68.3509 45.4012 68.678Z" fill="#004900"/>
</g>
<defs>
<filter id="filter0_f_13_24" x="-3.90228" y="-5.5968" width="70.1277" height="39.7009" filterUnits="userSpaceOnUse" color-interpolation-filters="sRGB">
<feFlood flood-opacity="0" result="BackgroundImageFix"/>
<feBlend mode="normal" in="SourceGraphic" in2="BackgroundImageFix" result="shape"/>
<feGaussianBlur stdDeviation="0.6275" result="effect1_foregroundBlur_13_24"/>
</filter>
<filter id="filter1_f_13_24" x="14.2216" y="71.9537" width="62.0351" height="29.8337" filterUnits="userSpaceOnUse" color-interpolation-filters="sRGB">
<feFlood flood-opacity="0" result="BackgroundImageFix"/>
<feBlend mode="normal" in="SourceGraphic" in2="BackgroundImageFix" result="shape"/>
<feGaussianBlur stdDeviation="0.6275" result="effect1_foregroundBlur_13_24"/>
</filter>
<clipPath id="clip0_13_24">
<rect width="75" height="100" fill="white"/>
</clipPath>
<clipPath id="clip1_13_24">
<rect width="56.25" height="75" fill="white" transform="translate(9.375 12.5)"/>
</clipPath>
</defs>
</svg>
