<svg width="75" height="100" viewBox="0 0 75 100" fill="none" xmlns="http://www.w3.org/2000/svg">
<g clip-path="url(#clip0_13_24)">
<path d="M64.0258 -0.0195312H9.8479C4.40905 -0.0195312 0 4.38952 0 9.82837V88.8031C0 94.242 4.40905 98.651 9.8479 98.651H64.0258C69.4647 98.651 73.8737 94.242 73.8737 88.8031V9.82837C73.8737 4.38952 69.4647 -0.0195312 64.0258 -0.0195312Z" fill="#F5F0EB"/>
<mask id="mask0_13_24" style="mask-type:luminance" maskUnits="userSpaceOnUse" x="0" y="-1" width="74" height="100">
<path d="M64.0258 -0.0195312H9.8479C4.40905 -0.0195312 0 4.38952 0 9.82837V88.8031C0 94.242 4.40905 98.651 9.8479 98.651H64.0258C69.4647 98.651 73.8737 94.242 73.8737 88.8031V9.82837C73.8737 4.38952 69.4647 -0.0195312 64.0258 -0.0195312Z" fill="#FF3737"/>
</mask>
<g mask="url(#mask0_13_24)">
<g filter="url(#filter0_f_13_24)">
<path fill-rule="evenodd" clip-rule="evenodd" d="M-1.17407 30.2102C-2.37586 22.067 -4.14733 5.38508 -0.314861 -0.0737726C4.67733 -6.50453 57.4873 -5.10431 64.8273 0.38068C68.0032 2.53209 17.3199 2.64848 11.5957 9.69552C6.00499 16.4334 0.160172 40.8253 -1.17407 30.2102Z" fill="white"/>
</g>
</g>
<mask id="mask1_13_24" style="mask-type:luminance" maskUnits="userSpaceOnUse" x="37" y="67" width="75" height="99">
<path d="M47.2401 165.75H101.418C106.857 165.75 111.266 161.341 111.266 155.902V76.9274C111.266 71.4885 106.857 67.0795 101.418 67.0795H47.2401C41.8013 67.0795 37.3922 71.4885 37.3922 76.9274V155.902C37.3922 161.341 41.8013 165.75 47.2401 165.75Z" fill="#FF3737"/>
</mask>
<g mask="url(#mask1_13_24)">
<g filter="url(#filter1_f_13_24)">
<path fill-rule="evenodd" clip-rule="evenodd" d="M73.909 73.9837C74.728 76.2768 76.4321 90.8369 72.5996 96.2958C67.6075 102.727 18.5752 100.348 15.5914 98.741C12.8649 97.4319 59.5631 98.7265 66.0252 90.1569C71.3415 82.7709 72.5497 69.9248 73.909 73.9837Z" fill="black" fill-opacity="0.196078"/>
</g>
</g>
</g>
<g clip-path="url(#clip1_13_24)">
<path fill-rule="evenodd" clip-rule="evenodd" d="M20.7081 55.0359C39.7412 57.0565 38.5368 52.0805 54.4695 51.5528C58.0104 51.038 57.7761 48.2791 54.3854 48.5496C37.4413 48.9702 43.3642 55.1007 21.0679 51.5668C15.6309 50.5963 16.5184 54.2982 20.7081 55.0359Z" fill="#B93C3C"/>
<path fill-rule="evenodd" clip-rule="evenodd" d="M37.8201 46.9363C38.066 46.2005 36.3206 45.0273 35.3414 46.2852C34.4356 47.6876 34.1669 48.5644 33.3052 49.5515C32.938 50.0002 32.8849 50.9999 33.2645 51.2891C34.6835 52.4514 34.5253 52.1862 35.4207 54.0526L39.2702 53.7222C38.0477 52.1117 37.8457 52.2532 37.3706 50.6426C37.1522 48.8938 37.2191 48.7347 37.8201 46.9363Z" fill="#B93C3C"/>
<path fill-rule="evenodd" clip-rule="evenodd" d="M42.6563 39.8184C42.2677 39.4125 42.0357 39.2686 41.4913 39.8184L38.6054 42.7323C38.3527 43.0136 38.3482 43.4269 38.556 43.6641L40.2753 45.3204C41.0916 46.1177 41.2998 46.6918 40.819 47.6334C40.1778 49.4365 39.6966 51.2648 39.6759 52.2661L43.6473 51.6123C42.9049 49.7715 42.9215 49.2953 44.1845 47.5536C45.2269 46.3673 46.2345 46.0959 45.3087 44.4753L42.6563 39.8184Z" fill="#B93C3C"/>
<path fill-rule="evenodd" clip-rule="evenodd" d="M46.8569 54.885C46.4107 54.8851 45.8978 54.9511 45.3595 55.0117C40.488 55.8066 36.991 57.5733 28.9001 57.2881C27.8049 57.2936 26.8757 57.8708 26.9142 58.7112C26.9921 60.5661 28.3579 70.3693 28.4713 71.2528C28.6312 72.4561 30.307 72.5631 30.5276 71.5044C30.568 71.3105 30.5691 70.7623 30.5459 70.0051C30.6486 69.7907 30.808 69.6263 30.9788 69.5957L41.663 68.641C41.7716 68.6423 41.8531 68.7431 41.9105 68.8904C41.8277 72.6579 41.7822 76.342 41.8629 77.6322C41.8861 77.9172 41.8725 78.2172 42.1573 78.4734C42.8374 79.0422 46.6776 78.729 47.6714 78.1083C47.9467 77.9062 48.0464 77.8115 48.0834 77.3901C47.5282 71.0167 47.9581 62.9119 48.3844 56.6014C48.4962 55.204 47.8385 54.8849 46.8569 54.885ZM41.7981 58.0282C42.8579 57.7677 42.1772 60.9961 41.8146 61.0051L30.7843 61.8698C29.8229 61.6777 29.8692 59.4199 30.5177 59.3894C35.5124 59.2214 37.2196 58.7929 41.7981 58.0282ZM41.7739 63.4943C42.0937 63.4698 42.1522 65.8164 41.7025 65.8541L30.9549 66.7535C30.186 66.5378 30.1389 64.5107 30.8088 64.4113L41.7739 63.4943Z" fill="#B93C3C"/>
<path fill-rule="evenodd" clip-rule="evenodd" d="M38.0251 58.0332L34.4189 58.1522L33.4269 75.1321C33.286 77.0619 34.2691 78.9967 35.5346 79.0251L39.0487 77.7977L38.0251 58.0332Z" fill="#B93C3C"/>
<path fill-rule="evenodd" clip-rule="evenodd" d="M26.57 78.3997L26.7286 79.9049C36.8998 83.333 34.5355 78.2969 44.8964 77.0641L44.7774 76.14C36.857 75.5799 32.7112 78.6111 26.57 78.3997Z" fill="#B93C3C"/>
<path fill-rule="evenodd" clip-rule="evenodd" d="M25.5989 67.2559C24.7006 64.5654 22.215 65.0939 22.6796 67.4218C25.2852 75.5684 26.0437 80.0776 26.3919 80.7078C28.4155 84.1257 29.8424 83.2304 29.9691 80.2515C29.99 79.3423 27.3002 72.0963 25.5989 67.2559Z" fill="#B93C3C"/>
<path fill-rule="evenodd" clip-rule="evenodd" d="M17.5949 72.6944C16.0276 72.4499 16.1698 74.3977 16.9731 74.8109C28.1945 79.7736 40.1928 73.1486 50.3418 73.7439C50.7278 73.8131 51.3379 74.0371 51.897 74.3442C53.6889 75.2908 52.5972 78.0024 51.714 78.559C47.6759 80.4049 48.6176 78.5761 44.0877 80.6683C43.6607 80.9422 42.5395 81.1552 42.1224 80.9842C40.4456 80.4259 39.0658 79.465 37.9693 78.6097L35.8714 79.6683C37.1662 81.281 39.0777 82.0442 40.6603 82.7379C41.9254 83.3405 43.3089 83.2731 44.2282 83.3015C48.936 83.3661 53.3387 81.5583 55.5538 81.2848C56.2021 81.1854 56.9569 80.0613 57.2507 79.5393C59.0679 76.5632 58.3173 76.0574 57.0472 72.9413C56.3254 71.7728 54.2384 71.4392 53.142 71.2905C41.7575 70.8078 27.2194 74.8177 17.5949 72.6944Z" fill="#B93C3C"/>
<path fill-rule="evenodd" clip-rule="evenodd" d="M21.0005 35.8612C18.0646 35.8883 18.2458 38.9473 20.8273 39.1803C31.8653 39.4701 39.157 34.0554 46.6249 35.0507C50.3722 35.271 53.9415 38.2899 57.3874 37.8467C59.1549 36.3529 58.8022 32.1557 57.1545 31.9012C47.7884 30.0589 51.9752 29.611 46.4715 30.7675C37.3023 32.5599 28.2598 35.8612 21.0005 35.8612Z" fill="black"/>
<path fill-rule="evenodd" clip-rule="evenodd" d="M26.1277 18.4712C24.8317 18.7617 24.1965 21.6701 26.2057 22.0417C33.1144 23.1944 41.0136 20.0339 48.8415 18.257C50.1783 17.9803 50.8928 15.7962 50.9821 14.8762C51.2782 13.4316 49.8026 12.5351 48.6304 12.7978C40.9423 15.9691 33.9866 18.658 26.1277 18.4712Z" fill="black"/>
<path fill-rule="evenodd" clip-rule="evenodd" d="M26.1616 26.7902C25.0149 27.0578 24.4528 29.7369 26.2306 30.0792C32.3433 31.141 40.1848 28.2298 47.1108 26.5929C48.2936 26.3381 48.4914 23.884 48.5705 23.0366C48.8324 21.7059 47.9611 21.3222 46.924 21.5641C40.1218 24.4854 33.115 26.9623 26.1616 26.7902Z" fill="black"/>
</g>
<defs>
<filter id="filter0_f_13_24" x="-3.90228" y="-5.5968" width="70.1277" height="39.7009" filterUnits="userSpaceOnUse" color-interpolation-filters="sRGB">
<feFlood flood-opacity="0" result="BackgroundImageFix"/>
<feBlend mode="normal" in="SourceGraphic" in2="BackgroundImageFix" result="shape"/>
<feGaussianBlur stdDeviation="0.6275" result="effect1_foregroundBlur_13_24"/>
</filter>
<filter id="filter1_f_13_24" x="14.2216" y="71.9537" width="62.0351" height="29.8337" filterUnits="userSpaceOnUse" color-interpolation-filters="sRGB">
<feFlood flood-opacity="0" result="BackgroundImageFix"/>
<feBlend mode="normal" in="SourceGraphic" in2="BackgroundImageFix" result="shape"/>
<feGaussianBlur stdDeviation="0.6275" result="effect1_foregroundBlur_13_24"/>
</filter>
<clipPath id="clip0_13_24">
<rect width="75" height="100" fill="white"/>
</clipPath>
<clipPath id="clip1_13_24">
<rect width="56.25" height="75" fill="white" transform="translate(9.375 12.5)"/>
</clipPath>
</defs>
</svg>
