<svg width="75" height="100" viewBox="0 0 75 100" fill="none" xmlns="http://www.w3.org/2000/svg">
<g clip-path="url(#clip0_13_24)">
<path d="M64.0258 -0.0195312H9.8479C4.40905 -0.0195312 0 4.38952 0 9.82837V88.8031C0 94.242 4.40905 98.651 9.8479 98.651H64.0258C69.4647 98.651 73.8737 94.242 73.8737 88.8031V9.82837C73.8737 4.38952 69.4647 -0.0195312 64.0258 -0.0195312Z" fill="#F5F0EB"/>
<mask id="mask0_13_24" style="mask-type:luminance" maskUnits="userSpaceOnUse" x="0" y="-1" width="74" height="100">
<path d="M64.0258 -0.0195312H9.8479C4.40905 -0.0195312 0 4.38952 0 9.82837V88.8031C0 94.242 4.40905 98.651 9.8479 98.651H64.0258C69.4647 98.651 73.8737 94.242 73.8737 88.8031V9.82837C73.8737 4.38952 69.4647 -0.0195312 64.0258 -0.0195312Z" fill="#FF3737"/>
</mask>
<g mask="url(#mask0_13_24)">
<g filter="url(#filter0_f_13_24)">
<path fill-rule="evenodd" clip-rule="evenodd" d="M-1.17407 30.2102C-2.37586 22.067 -4.14733 5.38508 -0.314861 -0.0737724C4.67733 -6.50453 57.4873 -5.10431 64.8273 0.38068C68.0032 2.53209 17.3199 2.64848 11.5957 9.69552C6.00499 16.4334 0.160172 40.8253 -1.17407 30.2102Z" fill="white"/>
</g>
</g>
<mask id="mask1_13_24" style="mask-type:luminance" maskUnits="userSpaceOnUse" x="37" y="67" width="75" height="99">
<path d="M47.2401 165.75H101.418C106.857 165.75 111.266 161.341 111.266 155.902V76.9274C111.266 71.4885 106.857 67.0795 101.418 67.0795H47.2401C41.8013 67.0795 37.3922 71.4885 37.3922 76.9274V155.902C37.3922 161.341 41.8013 165.75 47.2401 165.75Z" fill="#FF3737"/>
</mask>
<g mask="url(#mask1_13_24)">
<g filter="url(#filter1_f_13_24)">
<path fill-rule="evenodd" clip-rule="evenodd" d="M73.909 73.9837C74.728 76.2768 76.4321 90.8369 72.5996 96.2958C67.6075 102.727 18.5752 100.348 15.5914 98.741C12.8649 97.4319 59.5631 98.7265 66.0252 90.1569C71.3415 82.7709 72.5497 69.9248 73.909 73.9837Z" fill="black" fill-opacity="0.196078"/>
</g>
</g>
</g>
<path fill-rule="evenodd" clip-rule="evenodd" d="M20.7081 55.0357C39.7412 57.0563 38.5368 52.0803 54.4695 51.5526C58.0104 51.0378 57.7761 48.2789 54.3854 48.5494C37.4413 48.97 43.3642 55.1005 21.0679 51.5666C15.6309 50.5961 16.5184 54.298 20.7081 55.0357Z" fill="#D71E1E"/>
<path fill-rule="evenodd" clip-rule="evenodd" d="M37.8201 46.9361C38.066 46.2003 36.3206 45.0271 35.3414 46.285C34.4356 47.6874 34.1669 48.5642 33.3052 49.5512C32.938 49.9999 32.8849 50.9997 33.2645 51.2889C34.6835 52.4512 34.5253 52.1859 35.4207 54.0523L39.2702 53.722C38.0477 52.1114 37.8457 52.2529 37.3706 50.6424C37.1522 48.8936 37.2191 48.7345 37.8201 46.9361Z" fill="#D71E1E"/>
<path fill-rule="evenodd" clip-rule="evenodd" d="M42.6563 39.8181C42.2677 39.4123 42.0357 39.2684 41.4913 39.8181L38.6054 42.732C38.3527 43.0134 38.3482 43.4267 38.556 43.6639L40.2753 45.3202C41.0916 46.1174 41.2998 46.6916 40.819 47.6331C40.1778 49.4362 39.6966 51.2645 39.6759 52.2659L43.6473 51.612C42.9049 49.7713 42.9215 49.295 44.1845 47.5533C45.2269 46.367 46.2345 46.0957 45.3087 44.4751L42.6563 39.8181Z" fill="#D71E1E"/>
<path fill-rule="evenodd" clip-rule="evenodd" d="M46.8569 54.8848C46.4107 54.8848 45.8978 54.9508 45.3595 55.0115C40.488 55.8064 36.991 57.573 28.9001 57.2878C27.8049 57.2934 26.8757 57.8706 26.9142 58.7109C26.9921 60.5659 28.3579 70.3691 28.4713 71.2526C28.6312 72.4559 30.307 72.5628 30.5276 71.5042C30.568 71.3102 30.5691 70.7621 30.5459 70.0049C30.6486 69.7905 30.808 69.6261 30.9788 69.5955L41.663 68.6408C41.7716 68.6421 41.8531 68.7429 41.9105 68.8901C41.8277 72.6577 41.7822 76.3417 41.8629 77.632C41.8861 77.917 41.8725 78.217 42.1573 78.4731C42.8374 79.0419 46.6776 78.7288 47.6714 78.108C47.9467 77.9059 48.0464 77.8112 48.0834 77.3899C47.5282 71.0164 47.9581 62.9116 48.3844 56.6012C48.4962 55.2038 47.8385 54.8846 46.8569 54.8848ZM41.7981 58.028C42.8579 57.7675 42.1772 60.9958 41.8146 61.0049L30.7843 61.8695C29.8229 61.6775 29.8692 59.4196 30.5177 59.3892C35.5124 59.2211 37.2196 58.7927 41.7981 58.028ZM41.7739 63.494C42.0937 63.4695 42.1522 65.8161 41.7025 65.8539L30.9549 66.7533C30.186 66.5376 30.1389 64.5105 30.8088 64.411L41.7739 63.494Z" fill="#D71E1E"/>
<path fill-rule="evenodd" clip-rule="evenodd" d="M38.0251 58.033L34.4189 58.152L33.4269 75.1319C33.286 77.0616 34.2691 78.9964 35.5346 79.0249L39.0487 77.7974L38.0251 58.033Z" fill="#D71E1E"/>
<path fill-rule="evenodd" clip-rule="evenodd" d="M26.57 78.3995L26.7286 79.9046C36.8998 83.3328 34.5355 78.2966 44.8964 77.0638L44.7774 76.1397C36.857 75.5796 32.7112 78.6109 26.57 78.3995Z" fill="#D71E1E"/>
<path fill-rule="evenodd" clip-rule="evenodd" d="M25.5989 67.2557C24.7006 64.5652 22.215 65.0936 22.6796 67.4216C25.2852 75.5681 26.0437 80.0774 26.3919 80.7076C28.4155 84.1254 29.8424 83.2302 29.9691 80.2512C29.99 79.342 27.3002 72.096 25.5989 67.2557Z" fill="#D71E1E"/>
<path fill-rule="evenodd" clip-rule="evenodd" d="M17.5949 72.6941C16.0276 72.4496 16.1698 74.3974 16.9731 74.8107C28.1945 79.7734 40.1928 73.1484 50.3418 73.7436C50.7278 73.8128 51.3379 74.0369 51.897 74.344C53.6889 75.2905 52.5972 78.0021 51.714 78.5588C47.6759 80.4047 48.6176 78.5758 44.0877 80.6681C43.6607 80.9419 42.5395 81.1549 42.1224 80.984C40.4456 80.4256 39.0658 79.4648 37.9693 78.6095L35.8714 79.668C37.1662 81.2807 39.0777 82.044 40.6603 82.7377C41.9254 83.3402 43.3089 83.2728 44.2282 83.3012C48.936 83.3659 53.3387 81.558 55.5538 81.2846C56.2021 81.1852 56.9569 80.0611 57.2507 79.539C59.0679 76.563 58.3173 76.0571 57.0472 72.9411C56.3254 71.7726 54.2384 71.4389 53.142 71.2902C41.7575 70.8076 27.2194 74.8174 17.5949 72.6941Z" fill="#D71E1E"/>
<path fill-rule="evenodd" clip-rule="evenodd" d="M31.7616 16.4418C30.4639 17.3092 29.7644 17.5321 29.2312 19.3636C29.1467 19.6597 29.0826 20.8228 29.4727 21.6206C32.8537 24.9326 20.6338 32.1283 16.2652 35.157C13.4219 37.0206 14.3887 39.1107 18.1183 37.279C22.9305 35.0411 31.4123 32.4351 33.0793 25.6979C33.0954 24.9588 33.5883 24.6476 34.293 24.4717C35.3715 24.2074 34.4242 19.3182 33.8044 18.0439C33.1846 16.7697 32.1812 16.1987 31.7616 16.4418Z" fill="#D71E1E"/>
<path fill-rule="evenodd" clip-rule="evenodd" d="M28.2906 28.6624C28.5152 29.5218 29.2984 31.7292 29.1554 32.6545C28.4969 34.3454 27.5761 34.988 27.2082 36.7873C27.0506 37.7771 30.2876 40.8372 31.2172 40.3535C32.4047 39.5478 33.0356 37.8811 33.0161 37.1324C32.8872 33.5316 30.8359 30.9817 30.7617 26.8364L28.2906 28.6624Z" fill="#D71E1E"/>
<path fill-rule="evenodd" clip-rule="evenodd" d="M33.1265 17.7721C40.8659 20.6471 44.1924 14.7566 51.1888 13.2355C53.1949 12.7994 55.1927 13.6663 56.732 14.0069C60.0612 14.8433 57.432 19.8875 54.8907 18.7148C48.8381 15.7255 43.6482 20.226 37.9032 21.6332C37.4784 21.7101 37.2188 21.1311 36.9474 20.7379C36.0683 19.4641 34.7416 20.515 33.6596 20.1177L33.1265 17.7721Z" fill="#D71E1E"/>
<path fill-rule="evenodd" clip-rule="evenodd" d="M42.2391 19.0635L36.98 20.345C38.6108 22.3496 34.749 30.2543 32.8074 35.438L37.527 34.7253C38.0011 29.3309 41.0198 24.3335 42.2391 19.0635Z" fill="#D71E1E"/>
<path fill-rule="evenodd" clip-rule="evenodd" d="M30.7961 24.6031C33.4118 31.0672 42.2445 22.009 47.8873 22.5314V26.1299C42.0974 25.0801 32.3821 32.7144 30.0672 27.3736L30.7961 24.6031Z" fill="#D71E1E"/>
<path fill-rule="evenodd" clip-rule="evenodd" d="M46.7108 20.7974C46.2496 20.7112 44.9318 22.1411 44.9349 22.6589C45.049 27.1961 44.9488 31.632 44.5795 36.1692C44.4456 38.2941 48.5369 36.6109 48.7061 35.6043C49.2748 30.8538 49.0302 21.8142 48.6633 21.59C48.0971 21.2169 47.5498 20.9679 46.7108 20.7974Z" fill="#D71E1E"/>
<path fill-rule="evenodd" clip-rule="evenodd" d="M30.55 35.1665C48.6488 29.4065 58.0677 33.642 58.5947 34.7488C58.9504 35.3561 58.8735 36.6218 58.4997 37.2559C55.3775 41.9021 38.6942 29.9619 31.171 39.2399L30.55 35.1665Z" fill="#D71E1E"/>
<path d="M19.3902 28.988C21.4388 28.988 23.0995 27.3273 23.0995 25.2787C23.0995 23.2301 21.4388 21.5693 19.3902 21.5693C17.3416 21.5693 15.6809 23.2301 15.6809 25.2787C15.6809 27.3273 17.3416 28.988 19.3902 28.988Z" fill="#D71E1E"/>
<defs>
<filter id="filter0_f_13_24" x="-3.90228" y="-5.5968" width="70.1277" height="39.7009" filterUnits="userSpaceOnUse" color-interpolation-filters="sRGB">
<feFlood flood-opacity="0" result="BackgroundImageFix"/>
<feBlend mode="normal" in="SourceGraphic" in2="BackgroundImageFix" result="shape"/>
<feGaussianBlur stdDeviation="0.6275" result="effect1_foregroundBlur_13_24"/>
</filter>
<filter id="filter1_f_13_24" x="14.2216" y="71.9537" width="62.0351" height="29.8337" filterUnits="userSpaceOnUse" color-interpolation-filters="sRGB">
<feFlood flood-opacity="0" result="BackgroundImageFix"/>
<feBlend mode="normal" in="SourceGraphic" in2="BackgroundImageFix" result="shape"/>
<feGaussianBlur stdDeviation="0.6275" result="effect1_foregroundBlur_13_24"/>
</filter>
<clipPath id="clip0_13_24">
<rect width="75" height="100" fill="white"/>
</clipPath>
</defs>
</svg>
