<svg width="75" height="100" viewBox="0 0 75 100" fill="none" xmlns="http://www.w3.org/2000/svg">
<g clip-path="url(#clip0_13_24)">
<path d="M64.0258 -0.0195312H9.8479C4.40905 -0.0195312 0 4.38952 0 9.82837V88.8031C0 94.242 4.40905 98.651 9.8479 98.651H64.0258C69.4647 98.651 73.8737 94.242 73.8737 88.8031V9.82837C73.8737 4.38952 69.4647 -0.0195312 64.0258 -0.0195312Z" fill="#F5F0EB"/>
<mask id="mask0_13_24" style="mask-type:luminance" maskUnits="userSpaceOnUse" x="0" y="-1" width="74" height="100">
<path d="M64.0258 -0.0195312H9.8479C4.40905 -0.0195312 0 4.38952 0 9.82837V88.8031C0 94.242 4.40905 98.651 9.8479 98.651H64.0258C69.4647 98.651 73.8737 94.242 73.8737 88.8031V9.82837C73.8737 4.38952 69.4647 -0.0195312 64.0258 -0.0195312Z" fill="#FF3737"/>
</mask>
<g mask="url(#mask0_13_24)">
<g filter="url(#filter0_f_13_24)">
<path fill-rule="evenodd" clip-rule="evenodd" d="M-1.17407 30.2102C-2.37586 22.067 -4.14733 5.38508 -0.314861 -0.0737724C4.67733 -6.50453 57.4873 -5.10431 64.8273 0.38068C68.0032 2.53209 17.3199 2.64848 11.5957 9.69552C6.00499 16.4334 0.160172 40.8253 -1.17407 30.2102Z" fill="white"/>
</g>
</g>
<mask id="mask1_13_24" style="mask-type:luminance" maskUnits="userSpaceOnUse" x="37" y="67" width="75" height="99">
<path d="M47.2401 165.75H101.418C106.857 165.75 111.266 161.341 111.266 155.902V76.9274C111.266 71.4885 106.857 67.0795 101.418 67.0795H47.2401C41.8013 67.0795 37.3922 71.4885 37.3922 76.9274V155.902C37.3922 161.341 41.8013 165.75 47.2401 165.75Z" fill="#FF3737"/>
</mask>
<g mask="url(#mask1_13_24)">
<g filter="url(#filter1_f_13_24)">
<path fill-rule="evenodd" clip-rule="evenodd" d="M73.909 73.9837C74.728 76.2768 76.4321 90.8369 72.5996 96.2958C67.6075 102.727 18.5752 100.348 15.5914 98.741C12.8649 97.4319 59.5631 98.7265 66.0252 90.1569C71.3415 82.7709 72.5497 69.9248 73.909 73.9837Z" fill="black" fill-opacity="0.196078"/>
</g>
</g>
</g>
<path fill-rule="evenodd" clip-rule="evenodd" d="M15.5926 42.5754C14.505 43.984 19.355 47.7448 22.9101 48.8772C24.0589 49.3055 27.6209 45.5914 26.2294 44.741C22.4033 42.7594 16.3656 41.5306 15.5926 42.5754Z" fill="#142896"/>
<path fill-rule="evenodd" clip-rule="evenodd" d="M22.1235 43.2442C17.7395 59.7286 19.0233 57.9787 11.4703 68.1181C10.2527 71.2055 14.2567 73.8597 16.2169 72.6797C18.9299 70.863 21.9935 68.768 23.9052 66.4148C27.3764 62.1419 43.3154 50.2645 54.0972 46.9337C56.2685 46.263 58.2924 46.3594 60.2743 45.9311C61.7638 45.5076 60.2674 43.2941 59.4493 42.4563C56.6918 39.5506 51.8352 37.8315 50.2445 38.9769C49.5466 39.322 50.5834 44.1532 49.7369 44.6068C41.5553 48.6114 26.3874 58.9472 19.4937 64.2397C19.2357 64.36 19.7294 63.3087 19.8997 62.9679C21.4142 59.9358 23.062 51.427 23.8897 42.7694C23.968 40.8241 22.4127 41.5007 22.1235 43.2442Z" fill="#142896"/>
<path fill-rule="evenodd" clip-rule="evenodd" d="M30.3745 32.2541C28.6154 32.0674 27.6547 33.8007 27.8562 35.4958C28.0271 36.9334 28.076 38.7745 29.5825 40.335C30.574 41.5636 29.8374 50.8869 29.8183 58.7719C29.8169 59.3246 29.3932 59.4417 29.4026 59.9744C29.4009 61.3636 30.1286 64.8654 31.0317 64.8943C31.8753 64.8526 33.0934 63.559 33.1567 61.7058C33.6318 52.9276 34.4379 41.3835 35.133 39.9078C36.0089 38.0484 37.519 38.5484 37.6702 36.7726C37.8936 34.2873 34.3112 32.8041 30.3745 32.2541Z" fill="#142896"/>
<path fill-rule="evenodd" clip-rule="evenodd" d="M42.8819 23.4976C40.9433 23.4976 37.1821 28.8245 37.1714 29.9449C37.192 31.3842 40.8131 32.7014 40.7402 34.8448C40.6715 47.0757 37.4598 66.6493 39.9179 69.8485C43.5243 74.1567 60.786 70.1761 61.8556 69.2959C63.5576 67.9009 64.2981 66.502 63.6977 65.0897C63.0542 63.5351 50.2305 67.0489 44.5845 64.9669C42.2144 64.0965 43.8848 47.3016 43.9258 37.4361C44.046 35.1913 48.4498 32.6485 48.4696 31.6642C48.5398 29.7535 45.2443 23.7276 42.8819 23.4976Z" fill="#142896"/>
<defs>
<filter id="filter0_f_13_24" x="-3.90228" y="-5.5968" width="70.1277" height="39.7009" filterUnits="userSpaceOnUse" color-interpolation-filters="sRGB">
<feFlood flood-opacity="0" result="BackgroundImageFix"/>
<feBlend mode="normal" in="SourceGraphic" in2="BackgroundImageFix" result="shape"/>
<feGaussianBlur stdDeviation="0.6275" result="effect1_foregroundBlur_13_24"/>
</filter>
<filter id="filter1_f_13_24" x="14.2216" y="71.9537" width="62.0351" height="29.8337" filterUnits="userSpaceOnUse" color-interpolation-filters="sRGB">
<feFlood flood-opacity="0" result="BackgroundImageFix"/>
<feBlend mode="normal" in="SourceGraphic" in2="BackgroundImageFix" result="shape"/>
<feGaussianBlur stdDeviation="0.6275" result="effect1_foregroundBlur_13_24"/>
</filter>
<clipPath id="clip0_13_24">
<rect width="75" height="100" fill="white"/>
</clipPath>
</defs>
</svg>
