<svg width="300" height="400" viewBox="0 0 300 400" fill="none" xmlns="http://www.w3.org/2000/svg">
<g clip-path="url(#clip0_13_24)">
<path d="M256.103 -0.0786133H39.3916C17.6362 -0.0786133 0 17.5576 0 39.313V355.212C0 376.967 17.6362 394.604 39.3916 394.604H256.103C277.859 394.604 295.495 376.967 295.495 355.212V39.313C295.495 17.5576 277.859 -0.0786133 256.103 -0.0786133Z" fill="#F5F0EB"/>
<mask id="mask0_13_24" style="mask-type:luminance" maskUnits="userSpaceOnUse" x="0" y="-1" width="296" height="396">
<path d="M256.103 -0.0786133H39.3916C17.6362 -0.0786133 0 17.5576 0 39.313V355.212C0 376.967 17.6362 394.604 39.3916 394.604H256.103C277.859 394.604 295.495 376.967 295.495 355.212V39.313C295.495 17.5576 277.859 -0.0786133 256.103 -0.0786133Z" fill="#FF3737"/>
</mask>
<g mask="url(#mask0_13_24)">
<g filter="url(#filter0_f_13_24)">
<path fill-rule="evenodd" clip-rule="evenodd" d="M-4.6963 120.841C-9.50345 88.2683 -16.5893 21.5408 -1.25947 -0.294602C18.7093 -26.0176 229.949 -20.4167 259.309 1.52321C272.013 10.1289 69.2795 10.5944 46.3829 38.7826C24.0199 65.7339 0.640659 163.302 -4.6963 120.841Z" fill="white"/>
</g>
</g>
<mask id="mask1_13_24" style="mask-type:luminance" maskUnits="userSpaceOnUse" x="149" y="268" width="297" height="396">
<path d="M188.961 663H405.672C427.428 663 445.064 645.364 445.064 623.609V307.71C445.064 285.954 427.428 268.318 405.672 268.318H188.961C167.205 268.318 149.569 285.954 149.569 307.71V623.609C149.569 645.364 167.205 663 188.961 663Z" fill="#FF3737"/>
</mask>
<g mask="url(#mask1_13_24)">
<g filter="url(#filter1_f_13_24)">
<path fill-rule="evenodd" clip-rule="evenodd" d="M295.636 295.935C298.912 305.107 305.728 363.348 290.399 385.183C270.43 410.906 74.3007 401.391 62.3656 394.964C51.4597 389.728 238.253 394.906 264.101 360.628C285.366 331.084 290.199 279.7 295.636 295.935Z" fill="black" fill-opacity="0.196078"/>
</g>
</g>
</g>
<path d="M215.568 143.089C240.884 143.089 261.406 122.566 261.406 97.2506C261.406 71.9348 240.884 51.4124 215.568 51.4124C190.252 51.4124 169.73 71.9348 169.73 97.2506C169.73 122.566 190.252 143.089 215.568 143.089Z" fill="black"/>
<path d="M84.5764 143.089C109.892 143.089 130.415 122.566 130.415 97.2506C130.415 71.9348 109.892 51.4124 84.5764 51.4124C59.2606 51.4124 38.7381 71.9348 38.7381 97.2506C38.7381 122.566 59.2606 143.089 84.5764 143.089Z" fill="black"/>
<path d="M150.072 143.089C175.388 143.089 195.91 122.566 195.91 97.2506C195.91 71.9348 175.388 51.4124 150.072 51.4124C124.756 51.4124 104.234 71.9348 104.234 97.2506C104.234 122.566 124.756 143.089 150.072 143.089Z" fill="black"/>
<path d="M150.072 131.822C169.165 131.822 184.643 116.344 184.643 97.2506C184.643 78.1576 169.165 62.6797 150.072 62.6797C130.979 62.6797 115.501 78.1576 115.501 97.2506C115.501 116.344 130.979 131.822 150.072 131.822Z" fill="white"/>
<path d="M150.072 127.02C166.514 127.02 179.842 113.692 179.842 97.2506C179.842 80.8093 166.514 67.481 150.072 67.481C133.631 67.481 120.303 80.8093 120.303 97.2506C120.303 113.692 133.631 127.02 150.072 127.02Z" fill="#000037"/>
<path d="M166.234 97.1391C166.205 92.9057 164.515 88.8528 161.529 85.8517C158.543 82.8507 154.499 81.1412 150.266 81.0908C146.033 81.0404 141.949 82.6531 138.892 85.5821C135.835 88.5112 134.05 92.5227 133.92 96.7542C133.79 100.986 135.326 105.099 138.197 108.21C141.068 111.322 145.045 113.182 149.274 113.391C153.502 113.601 157.643 112.143 160.808 109.331C163.973 106.519 165.907 102.577 166.196 98.3536" stroke="white" stroke-width="6.75045" stroke-linecap="round" stroke-linejoin="round" stroke-dasharray="13.5 13.5"/>
<path d="M150.072 103.274C153.399 103.274 156.096 100.577 156.096 97.2506C156.096 93.9237 153.399 91.2268 150.072 91.2268C146.745 91.2268 144.048 93.9237 144.048 97.2506C144.048 100.577 146.745 103.274 150.072 103.274Z" fill="white"/>
<path d="M150.072 100.001C151.591 100.001 152.823 98.7699 152.823 97.2507C152.823 95.7315 151.591 94.5 150.072 94.5C148.553 94.5 147.321 95.7315 147.321 97.2507C147.321 98.7699 148.553 100.001 150.072 100.001Z" fill="#000037"/>
<path d="M84.5764 131.822C103.669 131.822 119.147 116.344 119.147 97.2506C119.147 78.1576 103.669 62.6797 84.5764 62.6797C65.4834 62.6797 50.0055 78.1576 50.0055 97.2506C50.0055 116.344 65.4834 131.822 84.5764 131.822Z" fill="white"/>
<path d="M84.5764 127.02C101.018 127.02 114.346 113.692 114.346 97.2506C114.346 80.8093 101.018 67.481 84.5764 67.481C68.1351 67.481 54.8067 80.8093 54.8067 97.2506C54.8067 113.692 68.1351 127.02 84.5764 127.02Z" fill="#000037"/>
<path d="M100.738 97.1391C100.709 92.9057 99.0196 88.8528 96.0336 85.8517C93.0476 82.8507 89.0032 81.1412 84.7701 81.0908C80.5369 81.0404 76.4529 82.653 73.3963 85.5821C70.3396 88.5112 68.5544 92.5227 68.4244 96.7542C68.2944 100.986 69.83 105.099 72.7011 108.21C75.5722 111.322 79.5494 113.182 83.7777 113.391C88.006 113.601 92.1477 112.143 95.3123 109.331C98.4769 106.519 100.412 102.577 100.701 98.3536" stroke="white" stroke-width="6.75045" stroke-linecap="round" stroke-linejoin="round" stroke-dasharray="13.5 13.5"/>
<path d="M84.5764 103.274C87.9032 103.274 90.6001 100.577 90.6001 97.2506C90.6001 93.9237 87.9032 91.2268 84.5764 91.2268C81.2496 91.2268 78.5527 93.9237 78.5527 97.2506C78.5527 100.577 81.2496 103.274 84.5764 103.274Z" fill="white"/>
<path d="M84.5764 100.001C86.0956 100.001 87.3271 98.7699 87.3271 97.2507C87.3271 95.7315 86.0956 94.5 84.5764 94.5C83.0572 94.5 81.8257 95.7315 81.8257 97.2507C81.8257 98.7699 83.0572 100.001 84.5764 100.001Z" fill="#000037"/>
<path d="M215.568 131.822C234.661 131.822 250.139 116.344 250.139 97.2506C250.139 78.1576 234.661 62.6797 215.568 62.6797C196.475 62.6797 180.997 78.1576 180.997 97.2506C180.997 116.344 196.475 131.822 215.568 131.822Z" fill="white"/>
<path d="M215.568 127.02C232.009 127.02 245.338 113.692 245.338 97.2506C245.338 80.8093 232.009 67.481 215.568 67.481C199.127 67.481 185.798 80.8093 185.798 97.2506C185.798 113.692 199.127 127.02 215.568 127.02Z" fill="#000037"/>
<path d="M231.73 97.1391C231.7 92.9057 230.011 88.8528 227.025 85.8517C224.039 82.8507 219.995 81.1412 215.762 81.0908C211.528 81.0404 207.444 82.6531 204.388 85.5821C201.331 88.5112 199.546 92.5227 199.416 96.7542C199.286 100.986 200.822 105.099 203.693 108.21C206.564 111.322 210.541 113.182 214.769 113.391C218.998 113.601 223.139 112.143 226.304 109.331C229.468 106.519 231.403 102.577 231.692 98.3536" stroke="white" stroke-width="6.75045" stroke-linecap="round" stroke-linejoin="round" stroke-dasharray="13.5 13.5"/>
<path d="M215.568 103.274C218.895 103.274 221.592 100.577 221.592 97.2506C221.592 93.9237 218.895 91.2268 215.568 91.2268C212.241 91.2268 209.544 93.9237 209.544 97.2506C209.544 100.577 212.241 103.274 215.568 103.274Z" fill="white"/>
<path d="M215.568 100.001C217.087 100.001 218.319 98.7699 218.319 97.2507C218.319 95.7315 217.087 94.5 215.568 94.5C214.049 94.5 212.817 95.7315 212.817 97.2507C212.817 98.7699 214.049 100.001 215.568 100.001Z" fill="#000037"/>
<path d="M215.568 348.589C240.884 348.589 261.406 328.066 261.406 302.751C261.406 277.435 240.884 256.912 215.568 256.912C190.252 256.912 169.73 277.435 169.73 302.751C169.73 328.066 190.252 348.589 215.568 348.589Z" fill="black"/>
<path d="M84.5764 348.589C109.892 348.589 130.415 328.066 130.415 302.751C130.415 277.435 109.892 256.912 84.5764 256.912C59.2606 256.912 38.7381 277.435 38.7381 302.751C38.7381 328.066 59.2606 348.589 84.5764 348.589Z" fill="black"/>
<path d="M150.072 348.589C175.388 348.589 195.91 328.066 195.91 302.751C195.91 277.435 175.388 256.912 150.072 256.912C124.756 256.912 104.234 277.435 104.234 302.751C104.234 328.066 124.756 348.589 150.072 348.589Z" fill="black"/>
<path d="M150.072 337.322C169.165 337.322 184.643 321.844 184.643 302.751C184.643 283.658 169.165 268.18 150.072 268.18C130.979 268.18 115.501 283.658 115.501 302.751C115.501 321.844 130.979 337.322 150.072 337.322Z" fill="white"/>
<path d="M150.072 332.52C166.514 332.52 179.842 319.192 179.842 302.751C179.842 286.309 166.514 272.981 150.072 272.981C133.631 272.981 120.303 286.309 120.303 302.751C120.303 319.192 133.631 332.52 150.072 332.52Z" fill="#000037"/>
<path d="M166.234 302.639C166.205 298.406 164.515 294.353 161.529 291.352C158.543 288.351 154.499 286.641 150.266 286.591C146.033 286.54 141.949 288.153 138.892 291.082C135.835 294.011 134.05 298.023 133.92 302.254C133.79 306.486 135.326 310.599 138.197 313.71C141.068 316.822 145.045 318.682 149.274 318.891C153.502 319.101 157.643 317.643 160.808 314.831C163.973 312.019 165.907 308.077 166.196 303.854" stroke="white" stroke-width="6.75045" stroke-linecap="round" stroke-linejoin="round" stroke-dasharray="13.5 13.5"/>
<path d="M150.072 308.774C153.399 308.774 156.096 306.077 156.096 302.751C156.096 299.424 153.399 296.727 150.072 296.727C146.745 296.727 144.048 299.424 144.048 302.751C144.048 306.077 146.745 308.774 150.072 308.774Z" fill="white"/>
<path d="M150.072 305.501C151.591 305.501 152.823 304.27 152.823 302.751C152.823 301.232 151.591 300 150.072 300C148.553 300 147.321 301.232 147.321 302.751C147.321 304.27 148.553 305.501 150.072 305.501Z" fill="#000037"/>
<path d="M84.5764 337.322C103.669 337.322 119.147 321.844 119.147 302.751C119.147 283.658 103.669 268.18 84.5764 268.18C65.4834 268.18 50.0055 283.658 50.0055 302.751C50.0055 321.844 65.4834 337.322 84.5764 337.322Z" fill="white"/>
<path d="M84.5764 332.52C101.018 332.52 114.346 319.192 114.346 302.751C114.346 286.309 101.018 272.981 84.5764 272.981C68.1351 272.981 54.8067 286.309 54.8067 302.751C54.8067 319.192 68.1351 332.52 84.5764 332.52Z" fill="#000037"/>
<path d="M100.738 302.639C100.709 298.406 99.0196 294.353 96.0336 291.352C93.0476 288.351 89.0032 286.641 84.7701 286.591C80.5369 286.54 76.4529 288.153 73.3963 291.082C70.3396 294.011 68.5544 298.023 68.4244 302.254C68.2944 306.486 69.83 310.599 72.7011 313.71C75.5722 316.822 79.5494 318.682 83.7777 318.891C88.006 319.101 92.1477 317.643 95.3123 314.831C98.4769 312.019 100.412 308.077 100.701 303.854" stroke="white" stroke-width="6.75045" stroke-linecap="round" stroke-linejoin="round" stroke-dasharray="13.5 13.5"/>
<path d="M84.5764 308.774C87.9032 308.774 90.6001 306.077 90.6001 302.751C90.6001 299.424 87.9032 296.727 84.5764 296.727C81.2496 296.727 78.5527 299.424 78.5527 302.751C78.5527 306.077 81.2496 308.774 84.5764 308.774Z" fill="white"/>
<path d="M84.5764 305.501C86.0956 305.501 87.3271 304.27 87.3271 302.751C87.3271 301.232 86.0956 300 84.5764 300C83.0572 300 81.8257 301.232 81.8257 302.751C81.8257 304.27 83.0572 305.501 84.5764 305.501Z" fill="#000037"/>
<path d="M215.568 337.322C234.661 337.322 250.139 321.844 250.139 302.751C250.139 283.658 234.661 268.18 215.568 268.18C196.475 268.18 180.997 283.658 180.997 302.751C180.997 321.844 196.475 337.322 215.568 337.322Z" fill="white"/>
<path d="M215.568 332.52C232.009 332.52 245.338 319.192 245.338 302.751C245.338 286.309 232.009 272.981 215.568 272.981C199.127 272.981 185.798 286.309 185.798 302.751C185.798 319.192 199.127 332.52 215.568 332.52Z" fill="#000037"/>
<path d="M231.73 302.639C231.7 298.406 230.011 294.353 227.025 291.352C224.039 288.351 219.995 286.641 215.762 286.591C211.528 286.54 207.444 288.153 204.388 291.082C201.331 294.011 199.546 298.023 199.416 302.254C199.286 306.486 200.822 310.599 203.693 313.71C206.564 316.822 210.541 318.682 214.769 318.891C218.998 319.101 223.139 317.643 226.304 314.831C229.468 312.019 231.403 308.077 231.692 303.854" stroke="white" stroke-width="6.75045" stroke-linecap="round" stroke-linejoin="round" stroke-dasharray="13.5 13.5"/>
<path d="M215.568 308.774C218.895 308.774 221.592 306.077 221.592 302.751C221.592 299.424 218.895 296.727 215.568 296.727C212.241 296.727 209.544 299.424 209.544 302.751C209.544 306.077 212.241 308.774 215.568 308.774Z" fill="white"/>
<path d="M215.568 305.501C217.087 305.501 218.319 304.27 218.319 302.751C218.319 301.232 217.087 300 215.568 300C214.049 300 212.817 301.232 212.817 302.751C212.817 304.27 214.049 305.501 215.568 305.501Z" fill="#000037"/>
<path d="M84.7715 246.148C110.087 246.148 130.61 225.625 130.61 200.309C130.61 174.994 110.087 154.471 84.7715 154.471C59.4557 154.471 38.9332 174.994 38.9332 200.309C38.9332 225.625 59.4557 246.148 84.7715 246.148Z" fill="black"/>
<path d="M215.763 246.148C241.079 246.148 261.601 225.625 261.601 200.309C261.601 174.994 241.079 154.471 215.763 154.471C190.447 154.471 169.925 174.994 169.925 200.309C169.925 225.625 190.447 246.148 215.763 246.148Z" fill="black"/>
<path d="M150.002 246.148C175.318 246.148 195.84 225.625 195.84 200.309C195.84 174.994 175.318 154.471 150.002 154.471C124.686 154.471 104.164 174.994 104.164 200.309C104.164 225.625 124.686 246.148 150.002 246.148Z" fill="black"/>
<path d="M150.002 234.88C169.095 234.88 184.573 219.402 184.573 200.309C184.573 181.216 169.095 165.739 150.002 165.739C130.909 165.739 115.431 181.216 115.431 200.309C115.431 219.402 130.909 234.88 150.002 234.88Z" fill="white"/>
<path d="M150.002 230.079C166.443 230.079 179.772 216.751 179.772 200.309C179.772 183.868 166.443 170.54 150.002 170.54C133.561 170.54 120.232 183.868 120.232 200.309C120.232 216.751 133.561 230.079 150.002 230.079Z" fill="#B93C3C"/>
<path d="M166.164 200.198C166.134 195.965 164.445 191.912 161.459 188.911C158.473 185.91 154.429 184.2 150.196 184.15C145.963 184.099 141.879 185.712 138.822 188.641C135.765 191.57 133.98 195.582 133.85 199.813C133.72 204.045 135.256 208.158 138.127 211.269C140.998 214.38 144.975 216.241 149.203 216.45C153.432 216.66 157.573 215.202 160.738 212.39C163.903 209.578 165.837 205.636 166.126 201.412" stroke="white" stroke-width="6.75045" stroke-linecap="round" stroke-linejoin="round" stroke-dasharray="13.5 13.5"/>
<path d="M150.002 206.333C153.329 206.333 156.026 203.636 156.026 200.309C156.026 196.983 153.329 194.286 150.002 194.286C146.675 194.286 143.978 196.983 143.978 200.309C143.978 203.636 146.675 206.333 150.002 206.333Z" fill="white"/>
<path d="M150.002 203.06C151.521 203.06 152.753 201.829 152.753 200.31C152.753 198.79 151.521 197.559 150.002 197.559C148.483 197.559 147.251 198.79 147.251 200.31C147.251 201.829 148.483 203.06 150.002 203.06Z" fill="#B93C3C"/>
<path d="M84.7715 234.88C103.865 234.88 119.342 219.402 119.342 200.309C119.342 181.216 103.865 165.739 84.7715 165.739C65.6785 165.739 50.2005 181.216 50.2005 200.309C50.2005 219.402 65.6785 234.88 84.7715 234.88Z" fill="white"/>
<path d="M84.7715 230.079C101.213 230.079 114.541 216.751 114.541 200.309C114.541 183.868 101.213 170.54 84.7715 170.54C68.3302 170.54 55.0018 183.868 55.0018 200.309C55.0018 216.751 68.3302 230.079 84.7715 230.079Z" fill="#B93C3C"/>
<path d="M100.933 200.198C100.904 195.965 99.2147 191.912 96.2287 188.911C93.2427 185.91 89.1983 184.2 84.9651 184.15C80.732 184.099 76.648 185.712 73.5914 188.641C70.5347 191.57 68.7495 195.582 68.6195 199.813C68.4895 204.045 70.0251 208.158 72.8962 211.269C75.7673 214.38 79.7445 216.241 83.9728 216.45C88.2011 216.66 92.3428 215.202 95.5074 212.39C98.672 209.578 100.607 205.636 100.896 201.412" stroke="white" stroke-width="6.75045" stroke-linecap="round" stroke-linejoin="round" stroke-dasharray="13.5 13.5"/>
<path d="M84.7715 206.333C88.0983 206.333 90.7952 203.636 90.7952 200.309C90.7952 196.983 88.0983 194.286 84.7715 194.286C81.4447 194.286 78.7478 196.983 78.7478 200.309C78.7478 203.636 81.4447 206.333 84.7715 206.333Z" fill="white"/>
<path d="M84.7715 203.06C86.2907 203.06 87.5222 201.829 87.5222 200.31C87.5222 198.79 86.2907 197.559 84.7715 197.559C83.2523 197.559 82.0208 198.79 82.0208 200.31C82.0208 201.829 83.2523 203.06 84.7715 203.06Z" fill="#B93C3C"/>
<path d="M215.763 234.88C234.856 234.88 250.334 219.402 250.334 200.309C250.334 181.216 234.856 165.739 215.763 165.739C196.67 165.739 181.192 181.216 181.192 200.309C181.192 219.402 196.67 234.88 215.763 234.88Z" fill="white"/>
<path d="M215.763 230.079C232.204 230.079 245.533 216.751 245.533 200.309C245.533 183.868 232.204 170.54 215.763 170.54C199.322 170.54 185.993 183.868 185.993 200.309C185.993 216.751 199.322 230.079 215.763 230.079Z" fill="#B93C3C"/>
<path d="M231.925 200.198C231.895 195.965 230.206 191.912 227.22 188.911C224.234 185.91 220.19 184.2 215.957 184.15C211.723 184.099 207.64 185.712 204.583 188.641C201.526 191.57 199.741 195.582 199.611 199.813C199.481 204.045 201.017 208.158 203.888 211.269C206.759 214.38 210.736 216.241 214.964 216.45C219.193 216.66 223.334 215.202 226.499 212.39C229.664 209.578 231.598 205.636 231.887 201.412" stroke="white" stroke-width="6.75045" stroke-linecap="round" stroke-linejoin="round" stroke-dasharray="13.5 13.5"/>
<path d="M215.763 206.333C219.09 206.333 221.787 203.636 221.787 200.309C221.787 196.983 219.09 194.286 215.763 194.286C212.436 194.286 209.739 196.983 209.739 200.309C209.739 203.636 212.436 206.333 215.763 206.333Z" fill="white"/>
<path d="M215.763 203.06C217.282 203.06 218.514 201.829 218.514 200.31C218.514 198.79 217.282 197.559 215.763 197.559C214.244 197.559 213.012 198.79 213.012 200.31C213.012 201.829 214.244 203.06 215.763 203.06Z" fill="#B93C3C"/>
<defs>
<filter id="filter0_f_13_24" x="-11.8441" y="-18.6217" width="272.981" height="151.274" filterUnits="userSpaceOnUse" color-interpolation-filters="sRGB">
<feFlood flood-opacity="0" result="BackgroundImageFix"/>
<feBlend mode="normal" in="SourceGraphic" in2="BackgroundImageFix" result="shape"/>
<feGaussianBlur stdDeviation="0.6275" result="effect1_foregroundBlur_13_24"/>
</filter>
<filter id="filter1_f_13_24" x="60.6515" y="291.58" width="240.61" height="111.805" filterUnits="userSpaceOnUse" color-interpolation-filters="sRGB">
<feFlood flood-opacity="0" result="BackgroundImageFix"/>
<feBlend mode="normal" in="SourceGraphic" in2="BackgroundImageFix" result="shape"/>
<feGaussianBlur stdDeviation="0.6275" result="effect1_foregroundBlur_13_24"/>
</filter>
<clipPath id="clip0_13_24">
<rect width="300" height="400" fill="white"/>
</clipPath>
</defs>
</svg>
