<svg width="300" height="400" viewBox="0 0 300 400" fill="none" xmlns="http://www.w3.org/2000/svg">
<g clip-path="url(#clip0_13_24)">
<path d="M256.103 -0.0786133H39.3916C17.6362 -0.0786133 0 17.5576 0 39.313V355.212C0 376.967 17.6362 394.604 39.3916 394.604H256.103C277.859 394.604 295.495 376.967 295.495 355.212V39.313C295.495 17.5576 277.859 -0.0786133 256.103 -0.0786133Z" fill="#F5F0EB"/>
<mask id="mask0_13_24" style="mask-type:luminance" maskUnits="userSpaceOnUse" x="0" y="-1" width="296" height="396">
<path d="M256.103 -0.0786133H39.3916C17.6362 -0.0786133 0 17.5576 0 39.313V355.212C0 376.967 17.6362 394.604 39.3916 394.604H256.103C277.859 394.604 295.495 376.967 295.495 355.212V39.313C295.495 17.5576 277.859 -0.0786133 256.103 -0.0786133Z" fill="#FF3737"/>
</mask>
<g mask="url(#mask0_13_24)">
<g filter="url(#filter0_f_13_24)">
<path fill-rule="evenodd" clip-rule="evenodd" d="M-4.6963 120.841C-9.50345 88.2683 -16.5893 21.5408 -1.25947 -0.294602C18.7093 -26.0176 229.949 -20.4167 259.309 1.52321C272.013 10.1289 69.2795 10.5944 46.3829 38.7826C24.0199 65.7339 0.640659 163.302 -4.6963 120.841Z" fill="white"/>
</g>
</g>
<mask id="mask1_13_24" style="mask-type:luminance" maskUnits="userSpaceOnUse" x="149" y="268" width="297" height="396">
<path d="M188.961 663H405.672C427.428 663 445.064 645.364 445.064 623.609V307.71C445.064 285.954 427.428 268.318 405.672 268.318H188.961C167.205 268.318 149.569 285.954 149.569 307.71V623.609C149.569 645.364 167.205 663 188.961 663Z" fill="#FF3737"/>
</mask>
<g mask="url(#mask1_13_24)">
<g filter="url(#filter1_f_13_24)">
<path fill-rule="evenodd" clip-rule="evenodd" d="M295.636 295.935C298.912 305.107 305.728 363.348 290.399 385.183C270.43 410.906 74.3007 401.391 62.3656 394.964C51.4597 389.728 238.253 394.906 264.101 360.628C285.366 331.084 290.199 279.7 295.636 295.935Z" fill="black" fill-opacity="0.196078"/>
</g>
</g>
</g>
<path fill-rule="evenodd" clip-rule="evenodd" d="M63.8174 134.345C57.7057 135.224 50.4005 126.537 59.1349 124.06C86.9902 118.136 181.397 101.671 192.205 96.7214C201.693 93.5809 223.305 110.504 236.689 118.345C245 123.695 241.214 129.762 234.816 132.499C229.636 134.216 199.124 137.302 182.782 135.136C179.664 134.785 180.847 126.501 173.884 125.313C141.939 118.781 96.283 129.95 63.8174 134.345Z" fill="#19328C"/>
<path fill-rule="evenodd" clip-rule="evenodd" d="M181.128 133.331C180.315 135.989 179.901 139.687 178.181 140.569C174.879 141.816 171.21 140.964 169.377 144.078C166.706 148.8 150.371 162.186 139.041 172.064C135.829 174.865 130.397 172.805 130.046 167.584L130.002 186.851L138.048 186.413C145.054 180.388 164.367 160.205 173.006 159.968C179.874 159.368 187.824 157.045 189.717 152.013C191.311 147.518 186.584 144.345 187.021 141.838C187.703 138.908 193.356 135.888 195.252 135.865C198.488 135.826 181.937 130.502 181.128 133.331Z" fill="#19328C"/>
<path fill-rule="evenodd" clip-rule="evenodd" d="M80.5281 196.818C113.772 188.119 192.233 161.145 203.729 166.191C217.972 173.817 244.243 191.759 244.607 199.333C244.751 206.702 244.669 207.329 239.023 213.276C230.626 222.347 203.731 267.425 199.813 284.766C198.906 289.166 199.531 297.676 196.519 301.202C192.302 306.369 140.384 300.41 106.586 298.937C95.1603 298.515 89.8537 285.62 106.926 285.228C128.67 284.798 165.816 283.81 170.221 277.867C174.198 272.288 201.63 209.501 201.694 202.739C201.761 198.497 194.849 188.561 190.732 185.696C185.707 181.788 115.252 205.36 83.89 210.263L80.5281 196.818Z" fill="#19328C"/>
<path fill-rule="evenodd" clip-rule="evenodd" d="M66.6779 206.177C75.5492 225.053 94.6733 259.905 102.312 293.53L122.767 292.038C117.707 266.735 105.351 223.74 93.3611 202.648C71.7668 164.974 48.6245 169.96 66.6779 206.177Z" fill="#19328C"/>
<path fill-rule="evenodd" clip-rule="evenodd" d="M129.398 153.513C127.35 142.608 119.519 144.452 120.736 155.966L132.507 291.639L141.525 291.148L129.398 153.513Z" fill="#19328C"/>
<path fill-rule="evenodd" clip-rule="evenodd" d="M173.067 154.35H164.572L148.551 288.96H156.789L173.067 154.35Z" fill="#19328C"/>
<defs>
<filter id="filter0_f_13_24" x="-11.8441" y="-18.6217" width="272.981" height="151.274" filterUnits="userSpaceOnUse" color-interpolation-filters="sRGB">
<feFlood flood-opacity="0" result="BackgroundImageFix"/>
<feBlend mode="normal" in="SourceGraphic" in2="BackgroundImageFix" result="shape"/>
<feGaussianBlur stdDeviation="0.6275" result="effect1_foregroundBlur_13_24"/>
</filter>
<filter id="filter1_f_13_24" x="60.6515" y="291.58" width="240.61" height="111.805" filterUnits="userSpaceOnUse" color-interpolation-filters="sRGB">
<feFlood flood-opacity="0" result="BackgroundImageFix"/>
<feBlend mode="normal" in="SourceGraphic" in2="BackgroundImageFix" result="shape"/>
<feGaussianBlur stdDeviation="0.6275" result="effect1_foregroundBlur_13_24"/>
</filter>
<clipPath id="clip0_13_24">
<rect width="300" height="400" fill="white"/>
</clipPath>
</defs>
</svg>
