<svg width="300" height="400" viewBox="0 0 300 400" fill="none" xmlns="http://www.w3.org/2000/svg">
<g clip-path="url(#clip0_13_24)">
<path d="M256.103 -0.0786133H39.3916C17.6362 -0.0786133 0 17.5576 0 39.313V355.212C0 376.967 17.6362 394.604 39.3916 394.604H256.103C277.859 394.604 295.495 376.967 295.495 355.212V39.313C295.495 17.5576 277.859 -0.0786133 256.103 -0.0786133Z" fill="#F5F0EB"/>
<mask id="mask0_13_24" style="mask-type:luminance" maskUnits="userSpaceOnUse" x="0" y="-1" width="296" height="396">
<path d="M256.103 -0.0786133H39.3916C17.6362 -0.0786133 0 17.5576 0 39.313V355.212C0 376.967 17.6362 394.604 39.3916 394.604H256.103C277.859 394.604 295.495 376.967 295.495 355.212V39.313C295.495 17.5576 277.859 -0.0786133 256.103 -0.0786133Z" fill="#FF3737"/>
</mask>
<g mask="url(#mask0_13_24)">
<g filter="url(#filter0_f_13_24)">
<path fill-rule="evenodd" clip-rule="evenodd" d="M-4.6963 120.841C-9.50345 88.2683 -16.5893 21.5408 -1.25947 -0.294602C18.7093 -26.0176 229.949 -20.4167 259.309 1.52321C272.013 10.1289 69.2795 10.5944 46.3829 38.7826C24.0199 65.7339 0.640659 163.302 -4.6963 120.841Z" fill="white"/>
</g>
</g>
<mask id="mask1_13_24" style="mask-type:luminance" maskUnits="userSpaceOnUse" x="149" y="268" width="297" height="396">
<path d="M188.961 663H405.672C427.428 663 445.064 645.364 445.064 623.609V307.71C445.064 285.954 427.428 268.318 405.672 268.318H188.961C167.205 268.318 149.569 285.954 149.569 307.71V623.609C149.569 645.364 167.205 663 188.961 663Z" fill="#FF3737"/>
</mask>
<g mask="url(#mask1_13_24)">
<g filter="url(#filter1_f_13_24)">
<path fill-rule="evenodd" clip-rule="evenodd" d="M295.636 295.935C298.912 305.107 305.728 363.348 290.399 385.183C270.43 410.906 74.3007 401.391 62.3656 394.964C51.4597 389.728 238.253 394.906 264.101 360.628C285.366 331.084 290.199 279.7 295.636 295.935Z" fill="black" fill-opacity="0.196078"/>
</g>
</g>
</g>
<path fill-rule="evenodd" clip-rule="evenodd" d="M170.684 281.079L173.06 302.974C166.703 304.116 161.773 302.716 157.256 302.284C161.056 307.118 166.527 309.422 173.124 311.403L174.173 327.022C164.55 327.505 163.003 327.584 155.565 328.176C162.582 329.367 165.17 330.281 170.1 331.534C162.614 334.763 160.393 335.779 150.299 340.889C161.185 337.852 165.128 337.571 173.633 335.217C170.555 339.01 167.04 340.759 164.822 346.744C173.279 342.722 179.46 336.855 183.545 333.417C187.649 331.795 190.427 330.198 196.281 327.664C193.259 326.507 188.329 326.356 183.208 326.268L181.662 309.97C190.105 306.358 195.214 300.287 199.253 297.609C192.781 300.532 188.534 300.853 181.323 301.733L178.971 279.455L170.684 281.079Z" fill="#B93C3C"/>
<path fill-rule="evenodd" clip-rule="evenodd" d="M126.804 280.848L124.535 302.745C118.091 302.392 113.572 299.89 109.253 298.428C111.949 304.018 116.807 307.525 122.831 310.978L120.581 326.449C111.088 324.7 109.561 324.421 102.177 323.284C108.776 326.062 111.111 327.55 115.661 329.908C107.677 331.331 105.297 331.81 94.3725 334.465C105.635 334.014 109.542 334.648 118.337 334.314C114.538 337.303 110.741 338.198 107.322 343.522C116.419 341.55 123.682 337.255 128.389 334.844C132.735 334.209 135.781 333.292 142.026 332.171C139.319 330.346 134.539 329.063 129.558 327.796L131.464 311.549C140.463 309.973 146.722 305.232 151.225 303.552C144.295 304.91 140.083 304.244 132.86 303.439L135.233 281.176L126.804 280.848Z" fill="#B93C3C"/>
<path fill-rule="evenodd" clip-rule="evenodd" d="M96.2113 225.743C86.6425 220.853 84.0762 217.409 81.0473 213.869C74.7931 206.725 68.7682 202.721 61.4951 197.739C67.7416 203.437 73.1929 208.087 78.5671 218.014L61.2422 214.554C73.8898 219.228 83.4827 225.352 89.9479 232.058L96.2113 225.743Z" fill="black"/>
<path fill-rule="evenodd" clip-rule="evenodd" d="M213.255 248.194C227.823 240.904 240.294 231.986 258.802 227.094C238.125 235.439 226.856 243.274 216.721 254.609C215.629 256.998 216.895 259.387 217.3 261.777L207.137 243.084C209.538 245.77 211.394 249.042 213.255 248.194Z" fill="black" stroke="black" stroke-width="0.442893"/>
<path fill-rule="evenodd" clip-rule="evenodd" d="M198.314 224.769C202.548 231.46 225.69 210.189 237.776 201.832L215.361 221.39L237.196 207.753C224.401 218.446 209.346 225.53 204.363 236.891L198.314 224.769Z" fill="black" stroke="black" stroke-width="0.310495"/>
<path fill-rule="evenodd" clip-rule="evenodd" d="M108.476 100.711C106.487 101.034 105.261 100.632 104.435 99.9479C103.309 99.1334 102.493 98.1724 101.763 97.1849C99.929 94.7174 98.4028 92.1292 96.291 89.7456C95.8799 89.2677 95.4493 88.799 94.9941 88.3444C93.8499 91.2365 92.8976 94.2802 92.7531 97.2144C92.612 100.096 93.3551 102.861 95.0886 104.62C95.1397 104.553 95.4063 104.406 95.7434 104.189C96.2848 103.871 97.2154 103.679 98.426 103.423C99.4887 103.226 100.857 103.096 102.507 102.848C103.16 102.761 104.002 102.607 105.02 102.336C105.749 102.227 106.922 101.713 108.476 100.711ZM95.0886 104.62C94.6632 104.245 94.2066 103.919 93.7215 103.653C88.6941 103.399 83.9201 102.508 79.0749 101.7C80.4856 105.034 81.8482 108.431 83.3306 111.72C84.2137 113.66 85.1681 115.536 86.3155 117.167C86.6798 116.569 87.1301 115.911 87.6335 115.177C89.8813 111.989 92.5385 108.616 95.0925 104.655C95.0765 104.648 95.0759 104.636 95.0886 104.62ZM86.3155 117.167C85.2321 116.944 84.1434 116.764 83.0382 116.673C80.4724 116.43 77.7096 116.705 75.0622 118.178C73.5122 119.055 72.039 120.292 70.7114 121.773C72.0052 122.789 73.3728 123.549 74.756 124.103C78.8024 125.676 82.8283 125.64 86.7104 125.356C86.0281 123.872 85.483 122.609 85.2955 121.549C85.1684 120.821 85.0982 120.216 85.1886 119.838C85.2057 119.465 85.4355 118.906 85.7517 118.199C85.9026 117.875 86.093 117.532 86.3155 117.167ZM86.7104 125.356L86.7097 125.357C83.334 130.745 80.8783 135.224 79.0066 138.339C84.409 138.659 89.401 139.957 94.1258 142.71C91.1633 136.854 88.4783 131.189 86.7104 125.356ZM94.1258 142.71C93.4363 143.924 92.8128 144.914 92.2348 145.653C88.9286 146.378 85.5389 146.585 82.0942 146.31C83.3114 148.762 84.933 152.806 86.9014 158.27C89.6127 153.939 92.6685 149.923 95.954 146.293C95.3368 145.089 94.7256 143.895 94.1258 142.71ZM86.9014 158.27C85.0015 158.258 83.0901 158.088 81.1728 157.766C77.7067 156.985 74.0792 156.542 70.2987 156.691C71.0996 158.529 71.9896 160.29 72.9777 161.945C74.9723 165.294 77.4035 168.246 80.237 170.237C80.5206 169.147 80.992 167.983 81.5626 166.769C82.4603 164.915 83.6832 163.101 85.0895 161.303C85.6744 160.276 86.2788 159.265 86.9014 158.27ZM80.237 170.237C78.9186 170.339 77.5981 170.571 76.2899 170.965C72.5256 172.06 68.8051 174.666 66.2183 178.964C66.8067 179.238 67.3986 179.48 67.9918 179.689C73.2312 181.456 78.1999 180.421 82.2612 178.235C81.2769 177.149 80.5108 176.065 80.2449 175.051C79.8876 174.1 79.8345 172.833 79.9879 171.547C80.0347 171.124 80.1198 170.687 80.237 170.237ZM82.2612 178.235C82.0057 178.796 81.7735 179.377 81.5647 179.973C79.9872 184.676 79.8234 190.12 80.4051 195.621C82.5629 194.272 84.5569 192.748 86.4289 191.142C88.832 189.082 91.0354 186.874 93.0835 184.557C91.8975 184.128 90.7424 183.658 89.6233 183.138C86.8459 181.812 84.3848 180.435 82.6726 178.677C82.5319 178.53 82.3946 178.383 82.2612 178.235ZM93.0835 184.557C93.8124 190.264 95.286 196.055 97.148 201.792C98.4275 200.262 99.6567 198.705 100.846 197.132C103.072 194.123 105.244 191.09 107.355 188.031C105.762 187.768 104.169 187.49 102.577 187.198C99.2712 186.474 96.0788 185.643 93.0835 184.557ZM107.355 188.031C109.177 193.553 111.155 199.061 113.319 204.545C116.552 199.777 119.63 194.944 122.525 190.047C117.469 189.554 112.411 188.867 107.355 188.031ZM122.525 190.047C124.16 194.126 125.906 198.187 127.777 202.226C128.378 203.523 128.99 204.818 129.614 206.11C132.497 201.105 135.195 196.038 137.739 190.923C134.636 190.867 131.543 190.741 128.463 190.534C126.484 190.403 124.505 190.24 122.525 190.047ZM137.739 190.923C140.295 196.13 143.03 201.291 145.906 206.403C147.411 203.312 148.865 200.207 150.276 197.091C151.24 194.963 152.187 192.83 153.121 190.694C152.108 190.738 151.097 190.777 150.088 190.811C145.958 190.951 141.84 190.998 137.739 190.923ZM153.121 190.694C155.991 195.735 158.968 200.741 161.972 205.735C164.266 200.435 166.511 195.126 168.779 189.819C163.509 190.14 158.291 190.472 153.121 190.694ZM168.779 189.819C170.043 191.918 171.308 194.019 172.567 196.121C174.295 199.011 176.029 201.905 177.764 204.804C180.034 199.517 182.295 194.242 184.565 188.985C180.444 189.156 176.333 189.37 172.231 189.612C171.078 189.68 169.927 189.749 168.779 189.819ZM184.565 188.985C187.564 194.023 190.561 199.079 193.535 204.157C195.395 199.884 197.266 195.624 199.158 191.381C199.553 190.405 199.936 189.428 200.305 188.45C199.881 188.496 199.455 188.54 199.028 188.582C194.194 188.642 189.373 188.785 184.565 188.985ZM200.305 188.45C203.123 193.324 206.295 198.1 210.06 202.591C212.033 196.966 213.479 191.298 214.15 185.662C209.833 187.12 205.161 187.922 200.305 188.45ZM214.15 185.662C214.339 185.878 214.53 186.094 214.722 186.308C218.273 190.207 222.315 193.905 227.274 196.58C227.542 192.958 227.434 189.413 226.811 186.072C226.374 183.756 225.665 181.553 224.686 179.594C224.23 180.091 223.721 180.579 223.18 181.054C220.942 182.99 217.883 184.341 214.497 185.543C214.382 185.583 214.266 185.623 214.15 185.662ZM224.686 179.594C228.038 181.212 231.91 181.972 236.036 181.133C237.676 180.79 239.328 180.2 240.951 179.384C238.236 175.641 234.725 173.155 231.106 171.872C229.75 171.381 228.375 171.043 226.996 170.834C227.083 171.308 227.141 171.772 227.167 172.225C227.273 173.859 227.092 175.478 226.542 176.726C226.201 177.699 225.537 178.663 224.686 179.594ZM226.996 170.834C230.267 168.731 233.108 165.451 235.394 161.638C236.185 160.323 236.916 158.938 237.587 157.497C232.712 157.137 228.036 157.739 223.666 158.956C222.897 159.171 222.137 159.406 221.388 159.661C221.591 159.912 221.792 160.166 221.99 160.423C223.465 162.365 224.723 164.399 225.629 166.502C226.253 167.992 226.744 169.452 226.996 170.834ZM221.388 159.661C223.347 155.022 224.656 149.875 225.117 144.382C225.22 143.911 225.323 143.481 225.424 143.09C221.078 146.318 216.254 147.234 211.753 146.061C211.532 145.805 211.297 145.518 211.046 145.201C210.937 145.596 210.826 145.991 210.713 146.386C212.819 148.988 214.94 152.025 217.094 155.279C218.641 156.576 220.079 158.051 221.388 159.661ZM211.046 145.201C215.085 140.955 220.04 139.044 225.925 138.904C225.187 138.015 224.344 136.951 223.391 135.723C221.014 132.416 218.336 129.435 215.36 127.184C215.033 128.559 214.554 129.986 213.989 131.451C213.357 136.059 212.31 140.627 211.046 145.201ZM215.36 127.184C217.361 126.856 219.357 126.328 221.323 125.528C224.448 124.262 227.505 122.272 230.122 119.351C228.934 118.652 227.723 118.061 226.5 117.592C222.284 115.978 217.986 115.934 214.233 117.112C214.867 118.141 215.343 119.27 215.588 120.397C215.905 121.686 215.927 123.212 215.768 124.817C215.693 125.587 215.553 126.376 215.36 127.184ZM214.233 117.112L214.242 117.1C217.419 112.743 218.714 106.696 218.865 100.389C216.568 101.32 214.421 102.479 212.408 103.756C209.736 105.58 206.987 106.817 204.025 107.341C205.464 108.659 206.836 109.994 208.126 111.376C210.771 113.178 213.05 115.003 214.231 117.108L214.233 117.112ZM204.025 107.341C203.999 103.191 204.103 100.347 204.743 98.9679C205.933 97.9755 207.181 97.0807 208.482 96.2714C206.431 95.3607 203.442 93.0468 199.435 89.8754C199.151 93.8365 198.539 97.8664 197.789 101.961C199.965 103.77 202.057 105.539 204.025 107.341ZM199.435 89.8754C202.325 87.8015 205.487 86.1514 208.889 84.7562C210.713 83.8975 212.528 82.8685 214.266 81.6034C209.638 78.1041 204.489 75.7693 199.547 76.155C199.392 76.168 199.238 76.1836 199.085 76.2018C199.1 76.241 199.114 76.2803 199.128 76.3199C199.865 78.0865 199.813 80.6499 199.58 83.5304C199.647 85.625 199.589 87.7402 199.435 89.8754ZM199.085 76.2018C200.993 74.664 202.627 72.5703 203.685 70.0016C204.754 67.4077 205.225 64.3373 205.012 61.1173C204.993 60.8401 204.97 60.5618 204.942 60.2827C199.05 62.2872 195.11 66.6328 192.443 71.2939C194.277 71.7228 195.877 72.2727 196.898 73.1532C197.409 73.5513 197.861 74.0064 198.201 74.4908C198.549 74.9614 198.845 75.5521 199.085 76.2018ZM192.443 71.2939C192.408 71.092 192.37 70.89 192.329 70.6879C191.232 65.4042 188.579 60.2475 185.184 55.509C184.673 56.5413 184.199 57.5827 183.76 58.6293C181.906 63.0219 180.618 67.5088 179.779 71.9991C181.502 71.5697 183.225 71.2527 184.938 71.0716C187.545 70.8162 190.02 70.7921 192.235 71.246C192.305 71.2618 192.374 71.2778 192.443 71.2939ZM179.779 71.9991C178.15 69.8504 176.349 67.7893 174.411 65.826C172.328 63.7172 170.086 61.7178 167.683 59.8571C166.989 64.4068 166.696 68.9217 166.829 73.3241C166.688 74.6399 166.43 75.9275 166.059 77.1803C166.831 76.9515 167.612 76.7277 168.401 76.5079C170.955 75.067 173.669 73.8868 176.477 72.9553C177.576 72.5947 178.677 72.2739 179.779 71.9991ZM166.059 77.1803C161.251 74.1366 158.572 71.8307 157.814 70.8421C157.755 70.3027 157.708 69.7611 157.671 69.2173C156.359 70.459 153.358 71.9182 149.472 74.1479C151.942 75.9646 154.387 78.1126 156.891 80.3763C159.735 79.1845 162.821 78.1392 166.059 77.1803ZM149.472 74.1479C148.695 68.4889 148.821 62.6146 148.769 56.2774C148.707 56.3185 148.646 56.3598 148.584 56.4014C144.661 58.4931 141.291 61.5083 139.563 65.1681C138.999 66.3701 138.608 67.6289 138.39 68.9022C138.653 68.8911 138.913 68.9015 139.164 68.9344C139.964 68.9906 140.929 69.3879 141.983 69.9367C144.559 70.8767 147.028 72.3501 149.472 74.1479ZM138.39 68.9022C137.883 66.9599 136.913 65.0948 135.54 63.4784C133.283 60.8289 130.054 58.9438 126.434 57.6725C126.318 62.2194 127.354 66.4557 128.732 70.2753C129.27 71.7614 129.872 73.2013 130.525 74.6027C130.901 74.1257 131.285 73.6669 131.678 73.2283C133.69 71.158 135.475 69.4359 137.085 69.1308C137.507 68.9989 137.953 68.9208 138.39 68.9022ZM130.525 74.6027C125.385 73.1215 119.75 72.6925 114.079 72.689C114.818 74.1328 115.588 75.5444 116.377 76.9316C118.475 80.4904 120.553 84.0811 122.326 87.9756C123.468 86.1428 124.485 84.3316 125.432 82.5857C127.069 79.6449 128.707 76.9103 130.525 74.6027ZM122.326 87.9756C120.036 87.9222 117.762 87.7837 115.539 87.4894C112.216 87.0561 108.926 86.2641 106.616 84.1937C106.616 84.1937 106.625 84.2152 106.625 84.2152C107.732 86.3295 107.819 88.9617 107.749 91.614C107.644 94.7801 107.631 97.9445 108.314 100.826C109.052 100.298 110.028 99.7817 111.18 99.1748C112.36 98.5963 113.808 97.7486 115.419 96.4903C117.47 94.7472 119.006 92.9292 120.153 91.2526C120.928 90.1587 121.649 89.0634 122.326 87.9756Z" fill="#004900"/>
<path fill-rule="evenodd" clip-rule="evenodd" d="M54.3838 292.548C63.8878 180.444 214.564 198.777 214.824 197.785L197.522 221.315C197.522 221.315 222.279 287.132 249.067 291.107C264.601 293.411 208.037 285.844 152.354 285.695C106.412 285.573 59.7284 292.738 54.3838 292.548Z" fill="black" stroke="black" stroke-width="0.961924"/>
<path d="M95.2248 244.022C96.3953 245.444 96.7174 247.135 96.1204 248.725C95.5234 250.314 94.0561 251.672 92.04 252.501C90.024 253.33 87.6237 253.562 85.3653 253.146C83.1069 252.73 81.1747 251.701 79.9922 250.283C78.8096 248.865 78.4732 247.176 79.0567 245.584C79.6402 243.992 81.0959 242.628 83.1049 241.79C85.1139 240.953 87.5121 240.711 89.774 241.117C92.0359 241.524 93.9768 242.545 95.1714 243.957" fill="white"/>
<path d="M110.663 229.862C111.834 231.285 112.156 232.976 111.559 234.566C110.962 236.155 109.494 237.513 107.478 238.342C105.462 239.17 103.062 239.402 100.804 238.987C98.5453 238.571 96.6131 237.541 95.4305 236.124C94.2479 234.706 93.9115 233.016 94.495 231.424C95.0785 229.832 96.5343 228.468 98.5433 227.631C100.552 226.794 102.951 226.552 105.212 226.958C107.474 227.364 109.415 228.386 110.61 229.798" fill="white"/>
<path d="M120.609 245.111C121.78 246.533 122.102 248.225 121.505 249.814C120.908 251.404 119.44 252.762 117.424 253.59C115.408 254.419 113.008 254.651 110.75 254.235C108.491 253.819 106.559 252.79 105.377 251.372C104.194 249.955 103.858 248.265 104.441 246.673C105.025 245.081 106.48 243.717 108.489 242.88C110.498 242.043 112.897 241.801 115.158 242.207C117.42 242.613 119.361 243.634 120.556 245.047" fill="white"/>
<path d="M107.679 259.154C108.85 260.577 109.172 262.268 108.575 263.858C107.978 265.447 106.511 266.805 104.495 267.634C102.478 268.462 100.078 268.694 97.8198 268.279C95.5615 267.863 93.6292 266.833 92.4467 265.416C91.2641 263.998 90.9277 262.308 91.5112 260.716C92.0947 259.124 93.5504 257.76 95.5594 256.923C97.5684 256.086 99.9666 255.844 102.229 256.25C104.49 256.656 106.431 257.678 107.626 259.09" fill="white"/>
<path d="M83.2627 258.933C84.4332 260.355 84.7553 262.046 84.1583 263.636C83.5613 265.225 82.094 266.583 80.0779 267.412C78.0619 268.241 75.6616 268.473 73.4032 268.057C71.1448 267.641 69.2126 266.612 68.0301 265.194C66.8475 263.777 66.5111 262.087 67.0946 260.495C67.6781 258.903 69.1338 257.539 71.1428 256.701C73.1518 255.864 75.55 255.622 77.8119 256.029C80.0738 256.435 82.0147 257.456 83.2093 258.869" fill="white"/>
<path d="M98.2629 275.32C99.4334 276.743 99.7555 278.434 99.1585 280.024C98.5615 281.613 97.0942 282.971 95.0781 283.8C93.0621 284.628 90.6618 284.86 88.4034 284.445C86.145 284.029 84.2128 282.999 83.0302 281.582C81.8477 280.164 81.5113 278.474 82.0948 276.882C82.6783 275.29 84.134 273.926 86.143 273.089C88.152 272.252 90.5502 272.01 92.8121 272.416C95.074 272.822 97.0149 273.844 98.2095 275.256" fill="white"/>
<path d="M77.2511 274.671C78.4216 276.094 78.7437 277.785 78.1467 279.375C77.5497 280.964 76.0824 282.322 74.0663 283.151C72.0503 283.98 69.65 284.211 67.3916 283.796C65.1332 283.38 63.201 282.35 62.0184 280.933C60.8359 279.515 60.4995 277.825 61.083 276.233C61.6665 274.642 63.1222 273.277 65.1312 272.44C67.1402 271.603 69.5384 271.361 71.8003 271.767C74.0622 272.174 76.0031 273.195 77.1977 274.607" fill="white"/>
<path d="M182.344 249.359C183.515 250.782 183.837 252.473 183.24 254.062C182.643 255.652 181.176 257.01 179.16 257.839C177.144 258.667 174.743 258.899 172.485 258.483C170.227 258.068 168.294 257.038 167.112 255.621C165.929 254.203 165.593 252.513 166.176 250.921C166.76 249.329 168.216 247.965 170.224 247.128C172.233 246.291 174.632 246.049 176.894 246.455C179.155 246.861 181.096 247.883 182.291 249.295" fill="white"/>
<path d="M190.893 262.537C192.063 263.959 192.385 265.651 191.788 267.24C191.191 268.83 189.724 270.188 187.708 271.016C185.692 271.845 183.292 272.077 181.033 271.661C178.775 271.245 176.843 270.216 175.66 268.798C174.478 267.381 174.141 265.691 174.725 264.099C175.308 262.507 176.764 261.143 178.773 260.306C180.782 259.469 183.18 259.227 185.442 259.633C187.704 260.039 189.645 261.06 190.839 262.473" fill="white"/>
<path d="M201.581 277.319C202.751 278.742 203.073 280.433 202.476 282.022C201.879 283.612 200.412 284.97 198.396 285.799C196.38 286.627 193.979 286.859 191.721 286.443C189.463 286.028 187.53 284.998 186.348 283.581C185.165 282.163 184.829 280.473 185.412 278.881C185.996 277.289 187.452 275.925 189.461 275.088C191.47 274.251 193.868 274.009 196.13 274.415C198.392 274.821 200.333 275.843 201.527 277.255" fill="white"/>
<path d="M204.853 248.767C206.023 250.19 206.345 251.881 205.748 253.471C205.152 255.06 203.684 256.418 201.668 257.247C199.652 258.076 197.252 258.307 194.993 257.892C192.735 257.476 190.803 256.446 189.62 255.029C188.438 253.611 188.101 251.921 188.685 250.329C189.268 248.737 190.724 247.373 192.733 246.536C194.742 245.699 197.14 245.457 199.402 245.863C201.664 246.269 203.605 247.291 204.799 248.703" fill="white"/>
<path d="M213.723 263.264C214.894 264.686 215.216 266.378 214.619 267.967C214.022 269.556 212.555 270.914 210.539 271.743C208.523 272.572 206.122 272.804 203.864 272.388C201.606 271.972 199.673 270.943 198.491 269.525C197.308 268.108 196.972 266.418 197.555 264.826C198.139 263.234 199.595 261.87 201.604 261.033C203.613 260.195 206.011 259.953 208.273 260.36C210.535 260.766 212.475 261.787 213.67 263.2" fill="white"/>
<path d="M223.706 276.439C224.877 277.862 225.199 279.553 224.602 281.143C224.005 282.732 222.537 284.09 220.521 284.919C218.505 285.747 216.105 285.979 213.847 285.564C211.588 285.148 209.656 284.118 208.473 282.701C207.291 281.283 206.954 279.593 207.538 278.001C208.121 276.409 209.577 275.045 211.586 274.208C213.595 273.371 215.993 273.129 218.255 273.535C220.517 273.941 222.458 274.963 223.653 276.375" fill="white"/>
<path d="M198.161 233.384C199.331 234.806 199.653 236.497 199.056 238.087C198.459 239.676 196.992 241.034 194.976 241.863C192.96 242.692 190.56 242.924 188.301 242.508C186.043 242.092 184.111 241.063 182.928 239.645C181.745 238.228 181.409 236.538 181.992 234.946C182.576 233.354 184.032 231.99 186.041 231.152C188.05 230.315 190.448 230.073 192.71 230.479C194.972 230.886 196.913 231.907 198.107 233.32" fill="white"/>
<path d="M177.028 232.707C178.198 234.129 178.521 235.82 177.924 237.41C177.327 238.999 175.859 240.357 173.843 241.186C171.827 242.015 169.427 242.247 167.168 241.831C164.91 241.415 162.978 240.386 161.795 238.968C160.613 237.551 160.276 235.861 160.86 234.269C161.443 232.677 162.899 231.313 164.908 230.475C166.917 229.638 169.315 229.396 171.577 229.802C173.839 230.209 175.78 231.23 176.975 232.643" fill="white"/>
<path d="M189.926 217.704C191.096 219.126 191.418 220.818 190.821 222.407C190.224 223.997 188.757 225.355 186.741 226.183C184.725 227.012 182.325 227.244 180.066 226.828C177.808 226.412 175.876 225.383 174.693 223.965C173.511 222.548 173.174 220.858 173.758 219.266C174.341 217.674 175.797 216.31 177.806 215.473C179.815 214.636 182.213 214.394 184.475 214.8C186.737 215.206 188.678 216.227 189.872 217.64" fill="white"/>
<path d="M178.381 202.713C179.551 204.136 179.873 205.827 179.276 207.417C178.679 209.006 177.212 210.364 175.196 211.193C173.18 212.022 170.779 212.253 168.521 211.838C166.263 211.422 164.33 210.392 163.148 208.975C161.965 207.557 161.629 205.867 162.212 204.275C162.796 202.684 164.252 201.319 166.261 200.482C168.27 199.645 170.668 199.403 172.93 199.809C175.192 200.216 177.133 201.237 178.327 202.649" fill="white"/>
<path d="M200.627 203.503C201.797 204.926 202.119 206.617 201.522 208.207C200.925 209.796 199.458 211.154 197.442 211.983C195.426 212.812 193.025 213.043 190.767 212.628C188.509 212.212 186.576 211.183 185.394 209.765C184.211 208.347 183.875 206.657 184.458 205.066C185.042 203.474 186.498 202.109 188.507 201.272C190.516 200.435 192.914 200.193 195.176 200.599C197.438 201.006 199.379 202.027 200.573 203.439" fill="white"/>
<path d="M119.748 206.54C111.592 205.997 101.346 204.656 96.5032 203.497C88.1685 201.503 82.6679 198.587 79.1163 194.279C76.4269 191.017 75.4733 188.24 75.4649 183.644C75.4508 175.835 79.6213 166.221 86.8849 157.319C87.6876 156.335 88.73 154.621 89.2015 153.51C89.673 152.398 90.7994 149.989 91.7047 148.155L93.3506 144.821L89.003 139.51C84.3814 133.863 82.6461 131.422 80.4824 127.524C79.7416 126.19 78.7044 124.415 78.1775 123.581C77.0079 121.729 77.325 120.031 77.3324 118.32C77.3475 114.839 79.9924 110.743 85.9424 105.757C88.6125 103.519 89.0646 102.295 96.9611 101.907C100.333 101.742 103.546 101.45 104.101 101.259C106.624 100.392 109.929 97.7162 111.948 94.9074C113.142 93.2455 113.845 91.9026 116.707 85.8136C120.998 76.6828 125.258 69.5614 128.822 65.5602C133.52 60.2862 136.851 58.9672 140.778 60.8254C145.146 62.8927 148.924 65.8749 153.726 71.0455L156.158 73.6645L158.395 72.7483C159.625 72.2445 162.108 71.3663 163.912 70.7968C165.717 70.2273 168.84 69.0781 170.853 68.2429C182.953 63.2214 195.472 63.5993 200.713 69.1442C201.995 70.5008 203.01 72.7992 203.251 74.893C203.551 77.492 202.948 88.1332 202.262 92.3357C201.179 98.9754 201.03 98.1031 203.629 100.328C204.865 101.388 207.295 103.708 209.027 105.485C210.76 107.263 212.88 109.323 213.739 110.063C215.895 111.922 218.085 114.822 219.006 117.038C220.615 120.908 220.676 124.365 219.228 129.569C218.752 131.281 218.049 134.251 217.667 136.17C217.284 138.089 216.497 141.374 215.917 143.47L214.863 147.281L216.735 149.688C217.764 151.013 219.282 153.072 220.106 154.266C220.931 155.459 222.379 157.126 223.324 157.971C229.927 163.873 233.878 172.086 233.018 178.123C232.599 181.063 231.617 183.204 229.388 186.034C224.734 191.944 216.161 197.179 204.67 201.129C202.117 202.006 201.747 202.049 194.575 202.313C183.842 202.708 181.092 202.914 160.632 204.862C154.524 205.444 147.597 206.062 145.237 206.237C139.19 206.685 124.546 206.859 119.748 206.54Z" fill="#004900"/>
<path fill-rule="evenodd" clip-rule="evenodd" d="M112.529 169.201C105.756 170.169 93.5012 162.935 92.5122 163.377C92.0395 163.588 107.799 171.459 106.492 171.797C100.356 173.382 93.6311 173.674 87.3438 174.438L110.806 175.935L86.9937 181.919C95.106 181.662 104.974 179.144 111.419 180.891C110.51 177.337 111.486 172.408 112.529 169.201Z" fill="white" stroke="white" stroke-width="2.38692" stroke-linejoin="round"/>
<path fill-rule="evenodd" clip-rule="evenodd" d="M132.624 193.635L95.3961 179.306L112.47 193.234L92.2409 189.69L121.79 209.598L132.624 193.635Z" fill="#B93C3C"/>
<path d="M144.684 95.9537C145.913 96.9542 146.833 98.324 147.327 99.8872C147.821 101.45 147.867 103.136 147.458 104.727C147.049 106.318 146.204 107.742 145.032 108.816C143.859 109.891 142.413 110.567 140.879 110.757C139.345 110.947 137.792 110.643 136.421 109.884C135.049 109.125 133.922 107.945 133.182 106.497C132.443 105.048 132.126 103.396 132.272 101.754C132.417 100.111 133.02 98.5528 134.001 97.2784" fill="#004900"/>
<path d="M144.684 95.9537C145.913 96.9542 146.833 98.324 147.327 99.8872C147.821 101.45 147.867 103.136 147.458 104.727C147.049 106.318 146.204 107.742 145.032 108.816C143.859 109.891 142.413 110.567 140.879 110.757C139.345 110.947 137.792 110.643 136.421 109.884C135.049 109.125 133.922 107.945 133.182 106.497C132.443 105.048 132.126 103.396 132.272 101.754C132.417 100.111 133.02 98.5528 134.001 97.2784" stroke="white" stroke-width="8.72118" stroke-linecap="round" stroke-linejoin="round"/>
<path d="M175.176 98.2502C176.145 99.5352 176.732 101.1 176.862 102.744C176.992 104.388 176.659 106.036 175.906 107.477C175.153 108.917 174.014 110.085 172.636 110.829C171.257 111.573 169.702 111.86 168.169 111.653C166.637 111.446 165.197 110.754 164.035 109.667C162.874 108.58 162.042 107.147 161.649 105.551C161.255 103.956 161.316 102.271 161.825 100.714C162.335 99.1558 163.268 97.7962 164.506 96.8091" fill="#004900"/>
<path d="M175.176 98.2502C176.145 99.5352 176.732 101.1 176.862 102.744C176.992 104.388 176.659 106.036 175.906 107.477C175.153 108.917 174.014 110.085 172.636 110.829C171.257 111.573 169.702 111.86 168.169 111.653C166.637 111.446 165.197 110.754 164.035 109.667C162.874 108.58 162.042 107.147 161.649 105.551C161.255 103.956 161.316 102.271 161.825 100.714C162.335 99.1558 163.268 97.7962 164.506 96.8091" stroke="white" stroke-width="8.72113" stroke-linecap="round" stroke-linejoin="round"/>
<path d="M159.586 122.076C160.684 123.237 161.431 124.722 161.733 126.34C162.035 127.958 161.877 129.636 161.28 131.157C160.682 132.679 159.673 133.975 158.381 134.88C157.089 135.784 155.574 136.255 154.029 136.233C152.485 136.211 150.982 135.696 149.713 134.754C148.444 133.813 147.468 132.488 146.91 130.95C146.351 129.412 146.236 127.73 146.578 126.121C146.921 124.513 147.705 123.05 148.832 121.921" fill="#004900"/>
<path d="M159.586 122.076C160.684 123.237 161.431 124.722 161.733 126.34C162.035 127.958 161.877 129.636 161.28 131.157C160.682 132.679 159.673 133.975 158.381 134.88C157.089 135.784 155.574 136.255 154.029 136.233C152.485 136.211 150.982 135.696 149.713 134.754C148.444 133.813 147.468 132.488 146.91 130.95C146.351 129.412 146.236 127.73 146.578 126.121C146.921 124.513 147.705 123.05 148.832 121.921" stroke="white" stroke-width="8.72169" stroke-linecap="round" stroke-linejoin="round"/>
<path d="M127.621 120.025C129.042 120.672 130.25 121.758 131.088 123.143C131.927 124.528 132.36 126.15 132.33 127.799C132.299 129.449 131.808 131.051 130.92 132.401C130.031 133.75 128.785 134.785 127.342 135.373C125.898 135.96 124.323 136.074 122.819 135.698C121.315 135.323 119.95 134.476 118.9 133.266C117.85 132.056 117.162 130.538 116.925 128.908C116.689 127.277 116.913 125.609 117.571 124.116" fill="#004900"/>
<path d="M127.621 120.025C129.042 120.672 130.25 121.758 131.088 123.143C131.927 124.528 132.36 126.15 132.33 127.799C132.299 129.449 131.808 131.051 130.92 132.401C130.031 133.75 128.785 134.785 127.342 135.373C125.898 135.96 124.323 136.074 122.819 135.698C121.315 135.323 119.95 134.476 118.9 133.266C117.85 132.056 117.162 130.538 116.925 128.908C116.689 127.277 116.913 125.609 117.571 124.116" stroke="white" stroke-width="8.71746" stroke-linecap="round" stroke-linejoin="round"/>
<path d="M190.457 123.711C191.189 125.164 191.498 126.818 191.344 128.459C191.19 130.101 190.58 131.656 189.592 132.925C188.605 134.194 187.285 135.118 185.802 135.58C184.319 136.042 182.741 136.019 181.27 135.516C179.799 135.013 178.502 134.051 177.547 132.755C176.591 131.459 176.02 129.887 175.906 128.242C175.793 126.596 176.142 124.952 176.91 123.52C177.678 122.089 178.828 120.935 180.214 120.206" fill="#004900"/>
<path d="M190.457 123.711C191.189 125.164 191.498 126.818 191.344 128.459C191.19 130.101 190.58 131.656 189.592 132.925C188.605 134.194 187.285 135.118 185.802 135.58C184.319 136.042 182.741 136.019 181.27 135.516C179.799 135.013 178.502 134.051 177.547 132.755C176.591 131.459 176.02 129.887 175.906 128.242C175.793 126.596 176.142 124.952 176.91 123.52C177.678 122.089 178.828 120.935 180.214 120.206" stroke="white" stroke-width="8.71854" stroke-linecap="round" stroke-linejoin="round"/>
<path d="M142.415 144.267C143.836 144.914 145.043 146 145.882 147.385C146.721 148.77 147.153 150.392 147.123 152.042C147.093 153.691 146.602 155.294 145.714 156.643C144.825 157.992 143.579 159.027 142.135 159.615C140.692 160.202 139.117 160.316 137.613 159.94C136.109 159.565 134.744 158.718 133.694 157.508C132.644 156.298 131.956 154.78 131.719 153.15C131.482 151.52 131.707 149.851 132.365 148.358" fill="#004900"/>
<path d="M142.415 144.267C143.836 144.914 145.043 146 145.882 147.385C146.721 148.77 147.153 150.392 147.123 152.042C147.093 153.691 146.602 155.294 145.714 156.643C144.825 157.992 143.579 159.027 142.135 159.615C140.692 160.202 139.117 160.316 137.613 159.94C136.109 159.565 134.744 158.718 133.694 157.508C132.644 156.298 131.956 154.78 131.719 153.15C131.482 151.52 131.707 149.851 132.365 148.358" stroke="white" stroke-width="8.71746" stroke-linecap="round" stroke-linejoin="round"/>
<path d="M174.291 147.621C175.023 149.074 175.332 150.728 175.178 152.369C175.023 154.011 174.414 155.566 173.426 156.835C172.439 158.104 171.119 159.028 169.636 159.49C168.153 159.952 166.575 159.929 165.104 159.426C163.633 158.923 162.336 157.961 161.38 156.665C160.425 155.369 159.853 153.797 159.74 152.152C159.627 150.506 159.976 148.862 160.744 147.43C161.511 145.998 162.662 144.844 164.048 144.116" fill="#004900"/>
<path d="M174.291 147.621C175.023 149.074 175.332 150.728 175.178 152.369C175.023 154.011 174.414 155.566 173.426 156.835C172.439 158.104 171.119 159.028 169.636 159.49C168.153 159.952 166.575 159.929 165.104 159.426C163.633 158.923 162.336 157.961 161.38 156.665C160.425 155.369 159.853 153.797 159.74 152.152C159.627 150.506 159.976 148.862 160.744 147.43C161.511 145.998 162.662 144.844 164.048 144.116" stroke="white" stroke-width="8.71854" stroke-linecap="round" stroke-linejoin="round"/>
<path d="M159.442 171.637C160.539 172.798 161.287 174.283 161.589 175.901C161.89 177.519 161.732 179.197 161.135 180.719C160.538 182.24 159.528 183.536 158.236 184.441C156.945 185.345 155.429 185.816 153.885 185.794C152.34 185.772 150.837 185.257 149.569 184.315C148.3 183.374 147.324 182.049 146.765 180.511C146.207 178.973 146.091 177.291 146.434 175.683C146.776 174.074 147.561 172.611 148.687 171.482" fill="#004900"/>
<path d="M159.442 171.637C160.539 172.798 161.287 174.283 161.589 175.901C161.89 177.519 161.732 179.197 161.135 180.719C160.538 182.24 159.528 183.536 158.236 184.441C156.945 185.345 155.429 185.816 153.885 185.794C152.34 185.772 150.837 185.257 149.569 184.315C148.3 183.374 147.324 182.049 146.765 180.511C146.207 178.973 146.091 177.291 146.434 175.683C146.776 174.074 147.561 172.611 148.687 171.482" stroke="white" stroke-width="8.72169" stroke-linecap="round" stroke-linejoin="round"/>
<path d="M202.582 150.43C202.795 152.064 202.545 153.729 201.866 155.211C201.186 156.692 200.108 157.923 198.769 158.746C197.43 159.568 195.891 159.944 194.351 159.826C192.81 159.707 191.338 159.1 190.123 158.081C188.908 157.062 188.005 155.679 187.532 154.108C187.058 152.538 187.035 150.852 187.464 149.267C187.894 147.682 188.758 146.271 189.944 145.214C191.13 144.157 192.585 143.503 194.121 143.336" fill="#004900"/>
<path d="M202.582 150.43C202.795 152.064 202.545 153.729 201.866 155.211C201.186 156.692 200.108 157.923 198.769 158.746C197.43 159.568 195.891 159.944 194.351 159.826C192.81 159.707 191.338 159.1 190.123 158.081C188.908 157.062 188.005 155.679 187.532 154.108C187.058 152.538 187.035 150.852 187.464 149.267C187.894 147.682 188.758 146.271 189.944 145.214C191.13 144.157 192.585 143.503 194.121 143.336" stroke="white" stroke-width="8.71278" stroke-linecap="round" stroke-linejoin="round"/>
<path d="M187.772 176.081C187.985 177.715 187.736 179.38 187.056 180.862C186.377 182.343 185.298 183.575 183.959 184.397C182.62 185.219 181.082 185.595 179.541 185.477C178 185.358 176.528 184.751 175.313 183.732C174.098 182.713 173.196 181.33 172.722 179.759C172.249 178.189 172.225 176.503 172.655 174.918C173.085 173.334 173.948 171.922 175.134 170.865C176.32 169.808 177.775 169.154 179.312 168.987" fill="#004900"/>
<path d="M187.772 176.081C187.985 177.715 187.736 179.38 187.056 180.862C186.377 182.343 185.298 183.575 183.959 184.397C182.62 185.219 181.082 185.595 179.541 185.477C178 185.358 176.528 184.751 175.313 183.732C174.098 182.713 173.196 181.33 172.722 179.759C172.249 178.189 172.225 176.503 172.655 174.918C173.085 173.334 173.948 171.922 175.134 170.865C176.32 169.808 177.775 169.154 179.312 168.987" stroke="white" stroke-width="8.71278" stroke-linecap="round" stroke-linejoin="round"/>
<path d="M110.304 144.103C111.849 144.076 113.366 144.542 114.66 145.442C115.955 146.343 116.968 147.635 117.569 149.155C118.171 150.675 118.334 152.352 118.036 153.971C117.739 155.59 116.996 157.077 115.902 158.242C114.808 159.406 113.413 160.195 111.896 160.507C110.379 160.818 108.81 160.639 107.389 159.99C105.969 159.342 104.762 158.256 103.924 156.87C103.086 155.484 102.654 153.862 102.686 152.212" fill="#004900"/>
<path d="M110.304 144.103C111.849 144.076 113.366 144.542 114.66 145.442C115.955 146.343 116.968 147.635 117.569 149.155C118.171 150.675 118.334 152.352 118.036 153.971C117.739 155.59 116.996 157.077 115.902 158.242C114.808 159.406 113.413 160.195 111.896 160.507C110.379 160.818 108.81 160.639 107.389 159.99C105.969 159.342 104.762 158.256 103.924 156.87C103.086 155.484 102.654 153.862 102.686 152.212" stroke="white" stroke-width="8.71222" stroke-linecap="round" stroke-linejoin="round"/>
<path d="M126.175 169.284C127.72 169.257 129.237 169.724 130.531 170.624C131.826 171.524 132.839 172.817 133.44 174.336C134.042 175.856 134.204 177.533 133.907 179.152C133.61 180.771 132.867 182.259 131.773 183.423C130.679 184.588 129.284 185.377 127.767 185.688C126.25 186 124.681 185.82 123.26 185.172C121.84 184.524 120.633 183.437 119.795 182.051C118.957 180.665 118.525 179.043 118.557 177.394" fill="#004900"/>
<path d="M126.175 169.284C127.72 169.257 129.237 169.724 130.531 170.624C131.826 171.524 132.839 172.817 133.44 174.336C134.042 175.856 134.204 177.533 133.907 179.152C133.61 180.771 132.867 182.259 131.773 183.423C130.679 184.588 129.284 185.377 127.767 185.688C126.25 186 124.681 185.82 123.26 185.172C121.84 184.524 120.633 183.437 119.795 182.051C118.957 180.665 118.525 179.043 118.557 177.394" stroke="white" stroke-width="8.71222" stroke-linecap="round" stroke-linejoin="round"/>
<path d="M128.929 217.347C130.099 218.769 130.421 220.461 129.824 222.05C129.227 223.639 127.76 224.997 125.744 225.826C123.728 226.655 121.328 226.887 119.069 226.471C116.811 226.055 114.879 225.026 113.696 223.608C112.513 222.191 112.177 220.501 112.761 218.909C113.344 217.317 114.8 215.953 116.809 215.116C118.818 214.278 121.216 214.036 123.478 214.443C125.74 214.849 127.681 215.87 128.875 217.283" fill="white"/>
<path d="M140.815 232.079C141.985 233.501 142.307 235.192 141.71 236.782C141.113 238.371 139.646 239.729 137.63 240.558C135.614 241.387 133.214 241.619 130.955 241.203C128.697 240.787 126.765 239.758 125.582 238.34C124.4 236.923 124.063 235.233 124.647 233.641C125.23 232.049 126.686 230.685 128.695 229.847C130.704 229.01 133.102 228.768 135.364 229.175C137.626 229.581 139.567 230.602 140.761 232.015" fill="white"/>
<path fill-rule="evenodd" clip-rule="evenodd" d="M205.092 286.231C186.625 287.118 169.317 287.411 151.271 282.755C140.714 281.702 120.08 289.348 98.3166 289.578C84.0376 290.772 83.9905 284.564 89.1009 275.772C96.6758 262.917 128.934 245.045 153.839 229.965C144.772 229.697 124.349 223.19 121.987 212.775C120.297 205.714 122.265 197.281 129.652 195.051C137.39 192.69 139.174 192.023 150.712 195.708C154.579 195.846 158.741 200.639 162.191 202.973C167.075 208.955 172.98 213.593 174.267 224.31C174.082 229.052 173.767 233.794 171.089 238.535C165.441 244.651 152.435 253.893 145.095 257.224C152.082 254.843 165.16 247.052 171.724 243.556C181.765 259.918 193.39 273.15 205.092 286.231Z" fill="white" stroke="black" stroke-width="6" stroke-linecap="round" stroke-linejoin="round"/>
<path fill-rule="evenodd" clip-rule="evenodd" d="M140.503 202.281C139.78 203.693 139.385 204.436 139.592 206.765C140.875 208.372 141.81 209.944 144.618 207.951C146.416 206.295 145.975 205.176 145.862 203.667C144.91 201.391 145.039 200.621 143.757 200.266C142.201 199.981 141.328 201.604 140.503 202.281Z" fill="black"/>
<path fill-rule="evenodd" clip-rule="evenodd" d="M83.7601 190.659C66.5043 189.474 57.1366 184.792 40.2946 182.28C53.0752 182.723 58.8864 184.006 71.8904 183.016C57.9871 178.102 58.6807 176.817 45.7245 171.144C62.4277 177.06 65.9402 176.023 86.083 178.951L83.7601 190.659Z" fill="#004900"/>
<path fill-rule="evenodd" clip-rule="evenodd" d="M148.654 89.0348C145.54 86.4214 145.294 83.282 148.208 79.563L142.001 85.4335L146.008 75.7867L139.967 83.2836L141.519 73.6278L138.002 81.8836L136.035 73.5762L134.943 83.1694L131.689 74.0903C133.5 82.5347 131.314 85.094 129.181 90.4677C136.012 87.1154 142.026 85.3051 148.654 89.0348Z" fill="white" stroke="white" stroke-width="1.90968" stroke-linecap="round" stroke-linejoin="round"/>
<path fill-rule="evenodd" clip-rule="evenodd" d="M191.042 93.8415C190.286 91.2024 188.504 89.0331 185.677 87.3421L190.15 79.1376L182.965 85.2443L185.094 75.5794L180.127 84.4944L178.949 74.9792L176.439 83.9917L172.493 76.3586C172.144 79.8407 172.979 83.9195 166.942 84.5369C174.152 85.5646 187.016 90.3553 191.042 93.8415Z" fill="white" stroke="white" stroke-width="2.13132" stroke-linecap="round" stroke-linejoin="round"/>
<path fill-rule="evenodd" clip-rule="evenodd" d="M188.317 114.268C190.725 109.24 190.389 106.166 191.248 102.24L192.91 113.16L198.96 106.194L196.705 115.066L205.697 110.399L200.283 116.776L210.877 117.382L202.628 119.473L210.529 124.318C206.398 122.175 202.222 121.845 197.726 127.119C198.587 116.291 193.381 115.528 188.317 114.268Z" fill="white" stroke="white" stroke-width="2.10276" stroke-linejoin="round"/>
<path fill-rule="evenodd" clip-rule="evenodd" d="M213.109 129.361L193.674 136.468C197.805 138.73 200.336 139.883 201.203 144.136L213.109 140.396L200.853 141.144L211.358 135.907L199.802 137.403L213.109 129.361Z" fill="white" stroke="white" stroke-width="2.38692" stroke-linejoin="round"/>
<path fill-rule="evenodd" clip-rule="evenodd" d="M208.749 162.336C212.988 164.047 214.761 165.678 222.276 165.638L204.547 168.321L208.749 162.336Z" fill="white" stroke="white" stroke-width="2.38692" stroke-linejoin="round"/>
<path fill-rule="evenodd" clip-rule="evenodd" d="M195.641 178.478C202.776 178.603 210.35 176.231 217.451 175.047C211.232 178.694 204.413 179.138 197.865 181.026C203.151 182.827 208.278 184.749 214.613 186.726C207.965 186.09 201.646 184.305 196.511 187.107C200.402 189.216 204.079 191.364 211.025 192.93L185.779 191.854C190.773 190.969 196.847 181.875 195.641 178.478Z" fill="white" stroke="white" stroke-width="2.38692" stroke-linejoin="round"/>
<path fill-rule="evenodd" clip-rule="evenodd" d="M111.088 128.839C111.249 122.09 111.413 121.318 114.826 118.084C107.852 116.838 106.721 113.324 102.73 110.299L109.631 119.81L93.6033 114.579L106.515 121.712H89.1512L103.843 124.09C103.08 127.67 97.872 127.708 92.4903 130.273C98.1677 128.803 106.597 126.507 111.088 128.839Z" fill="white" stroke="white" stroke-width="2.14587" stroke-linejoin="round"/>
<path fill-rule="evenodd" clip-rule="evenodd" d="M118.593 95.2029C119.89 101.189 120.313 106.427 124.425 111.305C121.906 110.124 121.374 111.888 116.877 112.555C119.076 106.616 117.306 100.94 118.593 95.2029Z" fill="white" stroke="white" stroke-width="2.05925" stroke-linejoin="round"/>
<path fill-rule="evenodd" clip-rule="evenodd" d="M106.566 138.62C96.2216 134.239 94.9456 135.859 94.9456 135.859L105.611 140.737L106.566 138.62Z" fill="white" stroke="white" stroke-width="2.13662" stroke-linejoin="round"/>
<path fill-rule="evenodd" clip-rule="evenodd" d="M58.9338 263.853C51.9075 265.566 46.3099 270.394 42.406 273.677C46.657 272.226 51.7455 270.486 56.2409 270.028C58.6291 269.963 58.5509 269.947 58.2722 271.417L63.7552 256.906C62.5578 258.246 60.8271 262.93 58.9338 263.853Z" fill="black" stroke="black" stroke-width="0.220879"/>
<defs>
<filter id="filter0_f_13_24" x="-11.8441" y="-18.6217" width="272.981" height="151.274" filterUnits="userSpaceOnUse" color-interpolation-filters="sRGB">
<feFlood flood-opacity="0" result="BackgroundImageFix"/>
<feBlend mode="normal" in="SourceGraphic" in2="BackgroundImageFix" result="shape"/>
<feGaussianBlur stdDeviation="0.6275" result="effect1_foregroundBlur_13_24"/>
</filter>
<filter id="filter1_f_13_24" x="60.6515" y="291.58" width="240.61" height="111.805" filterUnits="userSpaceOnUse" color-interpolation-filters="sRGB">
<feFlood flood-opacity="0" result="BackgroundImageFix"/>
<feBlend mode="normal" in="SourceGraphic" in2="BackgroundImageFix" result="shape"/>
<feGaussianBlur stdDeviation="0.6275" result="effect1_foregroundBlur_13_24"/>
</filter>
<clipPath id="clip0_13_24">
<rect width="300" height="400" fill="white"/>
</clipPath>
</defs>
</svg>
