<svg width="300" height="400" viewBox="0 0 300 400" fill="none" xmlns="http://www.w3.org/2000/svg">
<g clip-path="url(#clip0_13_24)">
<path d="M256.103 -0.0786133H39.3916C17.6362 -0.0786133 0 17.5576 0 39.313V355.212C0 376.967 17.6362 394.604 39.3916 394.604H256.103C277.859 394.604 295.495 376.967 295.495 355.212V39.313C295.495 17.5576 277.859 -0.0786133 256.103 -0.0786133Z" fill="#F5F0EB"/>
<mask id="mask0_13_24" style="mask-type:luminance" maskUnits="userSpaceOnUse" x="0" y="-1" width="296" height="396">
<path d="M256.103 -0.0786133H39.3916C17.6362 -0.0786133 0 17.5576 0 39.313V355.212C0 376.967 17.6362 394.604 39.3916 394.604H256.103C277.859 394.604 295.495 376.967 295.495 355.212V39.313C295.495 17.5576 277.859 -0.0786133 256.103 -0.0786133Z" fill="#FF3737"/>
</mask>
<g mask="url(#mask0_13_24)">
<g filter="url(#filter0_f_13_24)">
<path fill-rule="evenodd" clip-rule="evenodd" d="M-4.6963 120.841C-9.50345 88.2683 -16.5893 21.5408 -1.25947 -0.294601C18.7093 -26.0176 229.949 -20.4167 259.309 1.52321C272.013 10.1289 69.2795 10.5944 46.3829 38.7826C24.0199 65.7339 0.640658 163.302 -4.6963 120.841Z" fill="white"/>
</g>
</g>
<mask id="mask1_13_24" style="mask-type:luminance" maskUnits="userSpaceOnUse" x="149" y="268" width="297" height="396">
<path d="M188.961 663H405.672C427.428 663 445.064 645.364 445.064 623.609V307.71C445.064 285.954 427.428 268.318 405.672 268.318H188.961C167.205 268.318 149.569 285.954 149.569 307.71V623.609C149.569 645.364 167.205 663 188.961 663Z" fill="#FF3737"/>
</mask>
<g mask="url(#mask1_13_24)">
<g filter="url(#filter1_f_13_24)">
<path fill-rule="evenodd" clip-rule="evenodd" d="M295.636 295.935C298.912 305.107 305.728 363.348 290.399 385.183C270.43 410.906 74.3007 401.391 62.3656 394.964C51.4597 389.728 238.253 394.906 264.101 360.628C285.366 331.084 290.199 279.7 295.636 295.935Z" fill="black" fill-opacity="0.196078"/>
</g>
</g>
</g>
<g clip-path="url(#clip1_13_24)">
<path d="M139.239 84.0457C149.044 84.0457 156.993 77.895 156.993 70.3076C156.993 62.7203 149.044 56.5696 139.239 56.5696C129.433 56.5696 121.484 62.7203 121.484 70.3076C121.484 77.895 129.433 84.0457 139.239 84.0457Z" fill="#004900"/>
<path d="M160.075 84.0457C169.88 84.0457 177.829 77.895 177.829 70.3076C177.829 62.7203 169.88 56.5696 160.075 56.5696C150.27 56.5696 142.321 62.7203 142.321 70.3076C142.321 77.895 150.27 84.0457 160.075 84.0457Z" fill="#004900"/>
<path d="M138.363 191.5C148.169 191.5 156.117 185.349 156.117 177.761C156.117 170.174 148.169 164.023 138.363 164.023C128.558 164.023 120.609 170.174 120.609 177.761C120.609 185.349 128.558 191.5 138.363 191.5Z" fill="#004900"/>
<path d="M149.691 169.861V72.981" stroke="#004900" stroke-width="52.7536" stroke-linecap="round"/>
<path d="M161.242 191.5C171.047 191.5 178.996 185.349 178.996 177.761C178.996 170.174 171.047 164.023 161.242 164.023C151.437 164.023 143.488 170.174 143.488 177.761C143.488 185.349 151.437 191.5 161.242 191.5Z" fill="#004900"/>
<path d="M157.899 137.766C170.925 137.766 181.484 129.595 181.484 119.516C181.484 109.436 170.925 101.265 157.899 101.265C144.873 101.265 134.313 109.436 134.313 119.516C134.313 129.595 144.873 137.766 157.899 137.766Z" fill="#004900"/>
<path d="M141.59 137.766C154.616 137.766 165.175 129.595 165.175 119.516C165.175 109.436 154.616 101.265 141.59 101.265C128.564 101.265 118.004 109.436 118.004 119.516C118.004 129.595 128.564 137.766 141.59 137.766Z" fill="#004900"/>
<path d="M149.691 74.1182V101.341" stroke="white" stroke-width="12" stroke-linecap="round"/>
<path d="M149.691 140.184V173.803" stroke="white" stroke-width="12" stroke-linecap="round"/>
<path d="M149.691 78.7991C153.263 78.7991 156.16 75.9978 156.16 72.5423C156.16 69.0869 153.263 66.2856 149.691 66.2856C146.118 66.2856 143.222 69.0869 143.222 72.5423C143.222 75.9978 146.118 78.7991 149.691 78.7991Z" fill="white"/>
<path d="M142.96 128.858C146.002 124.224 154.153 124.424 156.713 128.858" stroke="white" stroke-width="10" stroke-linecap="round" stroke-linejoin="round"/>
<path d="M142.96 115.703C146.002 111.07 154.153 111.27 156.713 115.703" stroke="white" stroke-width="10" stroke-linecap="round" stroke-linejoin="round"/>
<path d="M139.239 240.37C149.044 240.37 156.993 234.219 156.993 226.632C156.993 219.045 149.044 212.894 139.239 212.894C129.433 212.894 121.484 219.045 121.484 226.632C121.484 234.219 129.433 240.37 139.239 240.37Z" fill="#004900"/>
<path d="M160.075 240.37C169.88 240.37 177.829 234.219 177.829 226.632C177.829 219.045 169.88 212.894 160.075 212.894C150.27 212.894 142.321 219.045 142.321 226.632C142.321 234.219 150.27 240.37 160.075 240.37Z" fill="#004900"/>
<path d="M138.363 347.824C148.169 347.824 156.117 341.673 156.117 334.086C156.117 326.499 148.169 320.348 138.363 320.348C128.558 320.348 120.609 326.499 120.609 334.086C120.609 341.673 128.558 347.824 138.363 347.824Z" fill="#004900"/>
<path d="M149.691 326.185V229.305" stroke="#004900" stroke-width="52.7536" stroke-linecap="round"/>
<path d="M161.242 347.824C171.047 347.824 178.996 341.673 178.996 334.086C178.996 326.499 171.047 320.348 161.242 320.348C151.437 320.348 143.488 326.499 143.488 334.086C143.488 341.673 151.437 347.824 161.242 347.824Z" fill="#004900"/>
<path d="M157.899 294.091C170.925 294.091 181.484 285.92 181.484 275.84C181.484 265.761 170.925 257.59 157.899 257.59C144.873 257.59 134.313 265.761 134.313 275.84C134.313 285.92 144.873 294.091 157.899 294.091Z" fill="#004900"/>
<path d="M141.59 294.091C154.616 294.091 165.175 285.92 165.175 275.84C165.175 265.761 154.616 257.59 141.59 257.59C128.564 257.59 118.004 265.761 118.004 275.84C118.004 285.92 128.564 294.091 141.59 294.091Z" fill="#004900"/>
<path d="M149.691 230.443V257.665" stroke="white" stroke-width="12" stroke-linecap="round"/>
<path d="M149.691 296.508V330.127" stroke="white" stroke-width="12" stroke-linecap="round"/>
<path d="M149.691 235.124C153.263 235.124 156.16 232.322 156.16 228.867C156.16 225.411 153.263 222.61 149.691 222.61C146.118 222.61 143.222 225.411 143.222 228.867C143.222 232.322 146.118 235.124 149.691 235.124Z" fill="white"/>
<path d="M142.96 285.182C146.002 280.549 154.153 280.749 156.713 285.182" stroke="white" stroke-width="10" stroke-linecap="round" stroke-linejoin="round"/>
<path d="M142.96 272.028C146.002 267.394 154.153 267.594 156.713 272.028" stroke="white" stroke-width="10" stroke-linecap="round" stroke-linejoin="round"/>
</g>
<defs>
<filter id="filter0_f_13_24" x="-11.8441" y="-18.6217" width="272.981" height="151.274" filterUnits="userSpaceOnUse" color-interpolation-filters="sRGB">
<feFlood flood-opacity="0" result="BackgroundImageFix"/>
<feBlend mode="normal" in="SourceGraphic" in2="BackgroundImageFix" result="shape"/>
<feGaussianBlur stdDeviation="0.6275" result="effect1_foregroundBlur_13_24"/>
</filter>
<filter id="filter1_f_13_24" x="60.6515" y="291.58" width="240.61" height="111.805" filterUnits="userSpaceOnUse" color-interpolation-filters="sRGB">
<feFlood flood-opacity="0" result="BackgroundImageFix"/>
<feBlend mode="normal" in="SourceGraphic" in2="BackgroundImageFix" result="shape"/>
<feGaussianBlur stdDeviation="0.6275" result="effect1_foregroundBlur_13_24"/>
</filter>
<clipPath id="clip0_13_24">
<rect width="300" height="400" fill="white"/>
</clipPath>
<clipPath id="clip1_13_24">
<rect width="225" height="300" fill="white" transform="translate(37.5 50)"/>
</clipPath>
</defs>
</svg>
