<svg width="300" height="400" viewBox="0 0 300 400" fill="none" xmlns="http://www.w3.org/2000/svg">
<g clip-path="url(#clip0_13_24)">
<path d="M256.103 -0.0786133H39.3916C17.6362 -0.0786133 0 17.5576 0 39.313V355.212C0 376.967 17.6362 394.604 39.3916 394.604H256.103C277.859 394.604 295.495 376.967 295.495 355.212V39.313C295.495 17.5576 277.859 -0.0786133 256.103 -0.0786133Z" fill="#F5F0EB"/>
<mask id="mask0_13_24" style="mask-type:luminance" maskUnits="userSpaceOnUse" x="0" y="-1" width="296" height="396">
<path d="M256.103 -0.0786133H39.3916C17.6362 -0.0786133 0 17.5576 0 39.313V355.212C0 376.967 17.6362 394.604 39.3916 394.604H256.103C277.859 394.604 295.495 376.967 295.495 355.212V39.313C295.495 17.5576 277.859 -0.0786133 256.103 -0.0786133Z" fill="#FF3737"/>
</mask>
<g mask="url(#mask0_13_24)">
<g filter="url(#filter0_f_13_24)">
<path fill-rule="evenodd" clip-rule="evenodd" d="M-4.6963 120.841C-9.50345 88.2683 -16.5893 21.5408 -1.25947 -0.294601C18.7093 -26.0176 229.949 -20.4167 259.309 1.52321C272.013 10.1289 69.2795 10.5944 46.3829 38.7826C24.0199 65.7339 0.640658 163.302 -4.6963 120.841Z" fill="white"/>
</g>
</g>
<mask id="mask1_13_24" style="mask-type:luminance" maskUnits="userSpaceOnUse" x="149" y="268" width="297" height="396">
<path d="M188.961 663H405.672C427.428 663 445.064 645.364 445.064 623.609V307.71C445.064 285.954 427.428 268.318 405.672 268.318H188.961C167.205 268.318 149.569 285.954 149.569 307.71V623.609C149.569 645.364 167.205 663 188.961 663Z" fill="#FF3737"/>
</mask>
<g mask="url(#mask1_13_24)">
<g filter="url(#filter1_f_13_24)">
<path fill-rule="evenodd" clip-rule="evenodd" d="M295.636 295.935C298.912 305.107 305.728 363.348 290.399 385.183C270.43 410.906 74.3007 401.391 62.3656 394.964C51.4597 389.728 238.253 394.906 264.101 360.628C285.366 331.084 290.199 279.7 295.636 295.935Z" fill="black" fill-opacity="0.196078"/>
</g>
</g>
</g>
<g clip-path="url(#clip1_13_24)">
<path d="M217.029 84.1705C226.834 84.1705 234.783 78.0197 234.783 70.4324C234.783 62.8451 226.834 56.6943 217.029 56.6943C207.224 56.6943 199.275 62.8451 199.275 70.4324C199.275 78.0197 207.224 84.1705 217.029 84.1705Z" fill="#004900"/>
<path d="M216.154 191.624C225.959 191.624 233.908 185.474 233.908 177.886C233.908 170.299 225.959 164.148 216.154 164.148C206.348 164.148 198.4 170.299 198.4 177.886C198.4 185.474 206.348 191.624 216.154 191.624Z" fill="#004900"/>
<path d="M219.38 137.891C232.406 137.891 242.966 129.72 242.966 119.64C242.966 109.561 232.406 101.39 219.38 101.39C206.354 101.39 195.795 109.561 195.795 119.64C195.795 129.72 206.354 137.891 219.38 137.891Z" fill="#004900"/>
<path d="M237.866 84.1705C247.671 84.1705 255.62 78.0197 255.62 70.4324C255.62 62.8451 247.671 56.6943 237.866 56.6943C228.06 56.6943 220.111 62.8451 220.111 70.4324C220.111 78.0197 228.06 84.1705 237.866 84.1705Z" fill="#004900"/>
<path d="M227.481 169.985V73.1057" stroke="#004900" stroke-width="52.7536" stroke-linecap="round"/>
<path d="M227.481 78.9238C231.054 78.9238 233.95 76.1226 233.95 72.6671C233.95 69.2116 231.054 66.4104 227.481 66.4104C223.909 66.4104 221.013 69.2116 221.013 72.6671C221.013 76.1226 223.909 78.9238 227.481 78.9238Z" fill="white"/>
<path d="M92.7049 118.633L140.086 118.588" stroke="#004900" stroke-width="34.7849" stroke-linecap="round"/>
<path d="M127.743 146.115L90.2264 136.436" stroke="#004900" stroke-width="46.3798" stroke-linecap="round"/>
<path d="M87.1377 171.683L165.484 106.919" stroke="#004900" stroke-width="45" stroke-linecap="round"/>
<path d="M62.7609 84.1705C72.5662 84.1705 80.5149 78.0197 80.5149 70.4324C80.5149 62.8451 72.5662 56.6943 62.7609 56.6943C52.9556 56.6943 45.0068 62.8451 45.0068 70.4324C45.0068 78.0197 52.9556 84.1705 62.7609 84.1705Z" fill="#004900"/>
<path d="M83.5973 84.1705C93.4026 84.1705 101.351 78.0197 101.351 70.4324C101.351 62.8451 93.4026 56.6943 83.5973 56.6943C73.792 56.6943 65.8433 62.8451 65.8433 70.4324C65.8433 78.0197 73.792 84.1705 83.5973 84.1705Z" fill="#004900"/>
<path d="M61.8856 191.624C71.6909 191.624 79.6397 185.474 79.6397 177.886C79.6397 170.299 71.6909 164.148 61.8856 164.148C52.0803 164.148 44.1315 170.299 44.1315 177.886C44.1315 185.474 52.0803 191.624 61.8856 191.624Z" fill="#004900"/>
<path d="M73.2133 169.985V73.1057" stroke="#004900" stroke-width="52.7536" stroke-linecap="round"/>
<path d="M73.2133 78.9238C76.7858 78.9238 79.6819 76.1226 79.6819 72.6671C79.6819 69.2116 76.7858 66.4104 73.2133 66.4104C69.6408 66.4104 66.7448 69.2116 66.7448 72.6671C66.7448 76.1226 69.6408 78.9238 73.2133 78.9238Z" fill="white"/>
<path d="M84.7643 191.624C94.5696 191.624 102.518 185.474 102.518 177.886C102.518 170.299 94.5696 164.148 84.7643 164.148C74.959 164.148 67.0103 170.299 67.0103 177.886C67.0103 185.474 74.959 191.624 84.7643 191.624Z" fill="#004900"/>
<path d="M81.4212 137.891C94.4471 137.891 105.007 129.72 105.007 119.64C105.007 109.561 94.4471 101.39 81.4212 101.39C68.3952 101.39 57.8356 109.561 57.8356 119.64C57.8356 129.72 68.3952 137.891 81.4212 137.891Z" fill="#004900"/>
<path d="M65.112 137.891C78.138 137.891 88.6976 129.72 88.6976 119.64C88.6976 109.561 78.138 101.39 65.112 101.39C52.0861 101.39 41.5265 109.561 41.5265 119.64C41.5265 129.72 52.0861 137.891 65.112 137.891Z" fill="#004900"/>
<path d="M73.2133 74.2429V101.466" stroke="white" stroke-width="12" stroke-linecap="round"/>
<path d="M73.2133 140.309V173.927" stroke="white" stroke-width="12" stroke-linecap="round"/>
<path d="M66.4827 128.982C69.5243 124.349 77.6758 124.549 80.2357 128.982" stroke="white" stroke-width="10" stroke-linecap="round" stroke-linejoin="round"/>
<path d="M66.4827 115.828C69.5243 111.195 77.6758 111.394 80.2357 115.828" stroke="white" stroke-width="10" stroke-linecap="round" stroke-linejoin="round"/>
<path d="M207.47 118.633L160.089 118.588" stroke="#004900" stroke-width="34.7849" stroke-linecap="round"/>
<path d="M239.033 191.624C248.838 191.624 256.787 185.474 256.787 177.886C256.787 170.299 248.838 164.148 239.033 164.148C229.227 164.148 221.278 170.299 221.278 177.886C221.278 185.474 229.227 191.624 239.033 191.624Z" fill="#004900"/>
<path d="M213.037 171.683L134.691 106.919" stroke="#004900" stroke-width="45" stroke-linecap="round"/>
<path d="M235.689 137.891C248.715 137.891 259.275 129.72 259.275 119.64C259.275 109.561 248.715 101.39 235.689 101.39C222.663 101.39 212.104 109.561 212.104 119.64C212.104 129.72 222.663 137.891 235.689 137.891Z" fill="#004900"/>
<path d="M169.204 91.9976H130.687C129.88 91.9976 129.227 92.927 129.227 94.0736V145.452C129.227 146.599 129.88 147.528 130.687 147.528H169.204C170.011 147.528 170.664 146.599 170.664 145.452V94.0736C170.664 92.927 170.011 91.9976 169.204 91.9976Z" fill="#004900"/>
<path d="M124.129 133.836L129.366 138.961" stroke="white" stroke-width="12" stroke-linecap="round"/>
<path d="M139.871 125.686L149.908 117.718L149.946 106.601" stroke="white" stroke-width="12" stroke-linecap="round"/>
<path d="M172.432 146.115L209.949 136.436" stroke="#004900" stroke-width="46.3798" stroke-linecap="round"/>
<path d="M227.481 74.2429V101.466" stroke="white" stroke-width="12" stroke-linecap="round"/>
<path d="M210.385 166.912L185.649 146.615" stroke="white" stroke-width="12" stroke-linecap="round"/>
<path d="M227.481 140.309V173.927" stroke="white" stroke-width="12" stroke-linecap="round"/>
<path d="M220.751 128.982C223.793 124.349 231.944 124.549 234.504 128.982" stroke="white" stroke-width="10" stroke-linecap="round" stroke-linejoin="round"/>
<path d="M220.751 115.828C223.793 111.195 231.944 111.394 234.504 115.828" stroke="white" stroke-width="10" stroke-linecap="round" stroke-linejoin="round"/>
<path d="M175.99 133.78L170.865 139.017" stroke="white" stroke-width="12" stroke-linecap="round"/>
<path d="M199.804 132.017L189.674 123.902" stroke="white" stroke-width="12" stroke-linecap="round"/>
<path d="M160.304 125.686L150.267 117.718L150.23 106.601" stroke="white" stroke-width="12" stroke-linecap="round"/>
<path d="M89.7898 166.912L114.526 146.615" stroke="white" stroke-width="12" stroke-linecap="round"/>
<path d="M100.371 132.017L110.501 123.902" stroke="white" stroke-width="12" stroke-linecap="round"/>
<path d="M217.029 315.867C226.834 315.867 234.783 322.018 234.783 329.605C234.783 337.193 226.834 343.344 217.029 343.344C207.224 343.344 199.275 337.193 199.275 329.605C199.275 322.018 207.224 315.867 217.029 315.867Z" fill="#004900"/>
<path d="M216.154 208.413C225.959 208.413 233.908 214.564 233.908 222.152C233.908 229.739 225.959 235.89 216.154 235.89C206.348 235.89 198.4 229.739 198.4 222.152C198.4 214.564 206.348 208.413 216.154 208.413Z" fill="#004900"/>
<path d="M219.38 262.147C232.406 262.147 242.966 270.318 242.966 280.397C242.966 290.477 232.406 298.648 219.38 298.648C206.354 298.648 195.795 290.477 195.795 280.397C195.795 270.318 206.354 262.147 219.38 262.147Z" fill="#004900"/>
<path d="M237.866 315.867C247.671 315.867 255.62 322.018 255.62 329.605C255.62 337.193 247.671 343.344 237.866 343.344C228.06 343.344 220.111 337.193 220.111 329.605C220.111 322.018 228.06 315.867 237.866 315.867Z" fill="#004900"/>
<path d="M227.481 230.052V326.932" stroke="#004900" stroke-width="52.7536" stroke-linecap="round"/>
<path d="M227.481 321.114C231.054 321.114 233.95 323.915 233.95 327.371C233.95 330.826 231.054 333.627 227.481 333.627C223.909 333.627 221.013 330.826 221.013 327.371C221.013 323.915 223.909 321.114 227.481 321.114Z" fill="white"/>
<path d="M92.7049 281.405L140.086 281.45" stroke="#004900" stroke-width="34.7849" stroke-linecap="round"/>
<path d="M127.743 253.923L90.2264 263.603" stroke="#004900" stroke-width="46.3798" stroke-linecap="round"/>
<path d="M87.1377 228.355L165.484 293.119" stroke="#004900" stroke-width="45" stroke-linecap="round"/>
<path d="M62.7609 315.867C72.5662 315.867 80.5149 322.018 80.5149 329.605C80.5149 337.193 72.5662 343.344 62.7609 343.344C52.9556 343.344 45.0068 337.193 45.0068 329.605C45.0068 322.018 52.9556 315.867 62.7609 315.867Z" fill="#004900"/>
<path d="M83.5973 315.867C93.4026 315.867 101.351 322.018 101.351 329.605C101.351 337.193 93.4026 343.344 83.5973 343.344C73.792 343.344 65.8433 337.193 65.8433 329.605C65.8433 322.018 73.792 315.867 83.5973 315.867Z" fill="#004900"/>
<path d="M61.8856 208.413C71.6909 208.413 79.6397 214.564 79.6397 222.152C79.6397 229.739 71.6909 235.89 61.8856 235.89C52.0803 235.89 44.1315 229.739 44.1315 222.152C44.1315 214.564 52.0803 208.413 61.8856 208.413Z" fill="#004900"/>
<path d="M73.2133 230.052V326.932" stroke="#004900" stroke-width="52.7536" stroke-linecap="round"/>
<path d="M73.2133 321.114C76.7858 321.114 79.6819 323.915 79.6819 327.371C79.6819 330.826 76.7858 333.627 73.2133 333.627C69.6408 333.627 66.7448 330.826 66.7448 327.371C66.7448 323.915 69.6408 321.114 73.2133 321.114Z" fill="white"/>
<path d="M84.7643 208.413C94.5696 208.413 102.518 214.564 102.518 222.152C102.518 229.739 94.5696 235.89 84.7643 235.89C74.959 235.89 67.0103 229.739 67.0103 222.152C67.0103 214.564 74.959 208.413 84.7643 208.413Z" fill="#004900"/>
<path d="M81.4212 262.147C94.4471 262.147 105.007 270.318 105.007 280.397C105.007 290.477 94.4471 298.648 81.4212 298.648C68.3952 298.648 57.8356 290.477 57.8356 280.397C57.8356 270.318 68.3952 262.147 81.4212 262.147Z" fill="#004900"/>
<path d="M65.112 262.147C78.138 262.147 88.6976 270.318 88.6976 280.397C88.6976 290.477 78.138 298.648 65.112 298.648C52.0861 298.648 41.5265 290.477 41.5265 280.397C41.5265 270.318 52.0861 262.147 65.112 262.147Z" fill="#004900"/>
<path d="M73.2133 325.795V298.572" stroke="white" stroke-width="12" stroke-linecap="round"/>
<path d="M73.2133 259.729V226.11" stroke="white" stroke-width="12" stroke-linecap="round"/>
<path d="M66.4827 271.055C69.5243 275.689 77.6758 275.489 80.2357 271.055" stroke="white" stroke-width="10" stroke-linecap="round" stroke-linejoin="round"/>
<path d="M66.4827 284.21C69.5243 288.843 77.6758 288.643 80.2357 284.21" stroke="white" stroke-width="10" stroke-linecap="round" stroke-linejoin="round"/>
<path d="M207.47 281.405L160.089 281.45" stroke="#004900" stroke-width="34.7849" stroke-linecap="round"/>
<path d="M239.033 208.413C248.838 208.413 256.787 214.564 256.787 222.152C256.787 229.739 248.838 235.89 239.033 235.89C229.227 235.89 221.278 229.739 221.278 222.152C221.278 214.564 229.227 208.413 239.033 208.413Z" fill="#004900"/>
<path d="M213.037 228.355L134.691 293.119" stroke="#004900" stroke-width="45" stroke-linecap="round"/>
<path d="M235.689 262.147C248.715 262.147 259.275 270.318 259.275 280.397C259.275 290.477 248.715 298.648 235.689 298.648C222.663 298.648 212.104 290.477 212.104 280.397C212.104 270.318 222.663 262.147 235.689 262.147Z" fill="#004900"/>
<path d="M169.204 308.04H130.687C129.88 308.04 129.227 307.111 129.227 305.964V254.586C129.227 253.439 129.88 252.51 130.687 252.51H169.204C170.011 252.51 170.664 253.439 170.664 254.586V305.964C170.664 307.111 170.011 308.04 169.204 308.04Z" fill="#004900"/>
<path d="M124.129 266.202L129.366 261.077" stroke="white" stroke-width="12" stroke-linecap="round"/>
<path d="M139.871 274.352L149.908 282.32L149.946 293.437" stroke="white" stroke-width="12" stroke-linecap="round"/>
<path d="M172.432 253.923L209.949 263.603" stroke="#004900" stroke-width="46.3798" stroke-linecap="round"/>
<path d="M227.481 325.795V298.572" stroke="white" stroke-width="12" stroke-linecap="round"/>
<path d="M210.385 233.126L185.649 253.423" stroke="white" stroke-width="12" stroke-linecap="round"/>
<path d="M227.481 259.729V226.11" stroke="white" stroke-width="12" stroke-linecap="round"/>
<path d="M220.751 271.055C223.793 275.689 231.944 275.489 234.504 271.055" stroke="white" stroke-width="10" stroke-linecap="round" stroke-linejoin="round"/>
<path d="M220.751 284.21C223.793 288.843 231.944 288.643 234.504 284.21" stroke="white" stroke-width="10" stroke-linecap="round" stroke-linejoin="round"/>
<path d="M175.99 266.258L170.865 261.021" stroke="white" stroke-width="12" stroke-linecap="round"/>
<path d="M199.804 268.021L189.674 276.135" stroke="white" stroke-width="12" stroke-linecap="round"/>
<path d="M160.304 274.352L150.267 282.32L150.23 293.437" stroke="white" stroke-width="12" stroke-linecap="round"/>
<path d="M89.7898 233.126L114.526 253.423" stroke="white" stroke-width="12" stroke-linecap="round"/>
<path d="M100.371 268.021L110.501 276.135" stroke="white" stroke-width="12" stroke-linecap="round"/>
</g>
<defs>
<filter id="filter0_f_13_24" x="-11.8441" y="-18.6217" width="272.981" height="151.274" filterUnits="userSpaceOnUse" color-interpolation-filters="sRGB">
<feFlood flood-opacity="0" result="BackgroundImageFix"/>
<feBlend mode="normal" in="SourceGraphic" in2="BackgroundImageFix" result="shape"/>
<feGaussianBlur stdDeviation="0.6275" result="effect1_foregroundBlur_13_24"/>
</filter>
<filter id="filter1_f_13_24" x="60.6515" y="291.58" width="240.61" height="111.805" filterUnits="userSpaceOnUse" color-interpolation-filters="sRGB">
<feFlood flood-opacity="0" result="BackgroundImageFix"/>
<feBlend mode="normal" in="SourceGraphic" in2="BackgroundImageFix" result="shape"/>
<feGaussianBlur stdDeviation="0.6275" result="effect1_foregroundBlur_13_24"/>
</filter>
<clipPath id="clip0_13_24">
<rect width="300" height="400" fill="white"/>
</clipPath>
<clipPath id="clip1_13_24">
<rect width="225" height="300" fill="white" transform="translate(37.5 50)"/>
</clipPath>
</defs>
</svg>
