<svg width="300" height="400" viewBox="0 0 300 400" fill="none" xmlns="http://www.w3.org/2000/svg">
<g clip-path="url(#clip0_13_24)">
<path d="M256.103 -0.0786133H39.3916C17.6362 -0.0786133 0 17.5576 0 39.313V355.212C0 376.967 17.6362 394.604 39.3916 394.604H256.103C277.859 394.604 295.495 376.967 295.495 355.212V39.313C295.495 17.5576 277.859 -0.0786133 256.103 -0.0786133Z" fill="#F5F0EB"/>
<mask id="mask0_13_24" style="mask-type:luminance" maskUnits="userSpaceOnUse" x="0" y="-1" width="296" height="396">
<path d="M256.103 -0.0786133H39.3916C17.6362 -0.0786133 0 17.5576 0 39.313V355.212C0 376.967 17.6362 394.604 39.3916 394.604H256.103C277.859 394.604 295.495 376.967 295.495 355.212V39.313C295.495 17.5576 277.859 -0.0786133 256.103 -0.0786133Z" fill="#FF3737"/>
</mask>
<g mask="url(#mask0_13_24)">
<g filter="url(#filter0_f_13_24)">
<path fill-rule="evenodd" clip-rule="evenodd" d="M-4.6963 120.841C-9.50345 88.2683 -16.5893 21.5408 -1.25947 -0.294601C18.7093 -26.0176 229.949 -20.4167 259.309 1.52321C272.013 10.1289 69.2795 10.5944 46.3829 38.7826C24.0199 65.7339 0.640658 163.302 -4.6963 120.841Z" fill="white"/>
</g>
</g>
<mask id="mask1_13_24" style="mask-type:luminance" maskUnits="userSpaceOnUse" x="149" y="268" width="297" height="396">
<path d="M188.961 663H405.672C427.428 663 445.064 645.364 445.064 623.609V307.71C445.064 285.954 427.428 268.318 405.672 268.318H188.961C167.205 268.318 149.569 285.954 149.569 307.71V623.609C149.569 645.364 167.205 663 188.961 663Z" fill="#FF3737"/>
</mask>
<g mask="url(#mask1_13_24)">
<g filter="url(#filter1_f_13_24)">
<path fill-rule="evenodd" clip-rule="evenodd" d="M295.636 295.935C298.912 305.107 305.728 363.348 290.399 385.183C270.43 410.906 74.3007 401.391 62.3656 394.964C51.4597 389.728 238.253 394.906 264.101 360.628C285.366 331.084 290.199 279.7 295.636 295.935Z" fill="black" fill-opacity="0.196078"/>
</g>
</g>
</g>
<g clip-path="url(#clip1_13_24)">
<path d="M140.273 81.0208C148.61 81.0208 155.368 75.8475 155.368 69.4657C155.368 63.084 148.61 57.9106 140.273 57.9106C131.937 57.9106 125.178 63.084 125.178 69.4657C125.178 75.8475 131.937 81.0208 140.273 81.0208Z" fill="#B93C3C"/>
<path d="M159.761 81.0208C168.098 81.0208 174.856 75.8475 174.856 69.4657C174.856 63.084 168.098 57.9106 159.761 57.9106C151.424 57.9106 144.666 63.084 144.666 69.4657C144.666 75.8475 151.424 81.0208 159.761 81.0208Z" fill="#B93C3C"/>
<path d="M139.455 142.969C147.792 142.969 154.55 137.795 154.55 131.414C154.55 125.032 147.792 119.859 139.455 119.859C131.118 119.859 124.36 125.032 124.36 131.414C124.36 137.795 131.118 142.969 139.455 142.969Z" fill="#B93C3C"/>
<path d="M150.049 129.475V67.8921" stroke="#B93C3C" stroke-width="38.1977" stroke-linecap="round"/>
<path d="M160.852 142.969C169.189 142.969 175.947 137.795 175.947 131.414C175.947 125.032 169.189 119.859 160.852 119.859C152.515 119.859 145.757 125.032 145.757 131.414C145.757 137.795 152.515 142.969 160.852 142.969Z" fill="#B93C3C"/>
<path d="M157.726 112.923C167.878 112.923 176.108 106.623 176.108 98.8516C176.108 91.0802 167.878 84.7803 157.726 84.7803C147.573 84.7803 139.343 91.0802 139.343 98.8516C139.343 106.623 147.573 112.923 157.726 112.923Z" fill="#B93C3C"/>
<path d="M142.472 112.923C152.624 112.923 160.854 106.623 160.854 98.8516C160.854 91.0802 152.624 84.7803 142.472 84.7803C132.32 84.7803 124.09 91.0802 124.09 98.8516C124.09 106.623 132.32 112.923 142.472 112.923Z" fill="#B93C3C"/>
<path d="M149.925 66.793V86.3279" stroke="white" stroke-width="11" stroke-linecap="round"/>
<path d="M149.925 111.051V129.559" stroke="white" stroke-width="11" stroke-linecap="round"/>
<path d="M149.36 98.531H150.496" stroke="white" stroke-width="11" stroke-linecap="round" stroke-linejoin="round"/>
<path d="M61.7721 281.254C70.1088 281.254 76.8671 276.08 76.8671 269.698C76.8671 263.317 70.1088 258.143 61.7721 258.143C53.4353 258.143 46.677 263.317 46.677 269.698C46.677 276.08 53.4353 281.254 61.7721 281.254Z" fill="#004900"/>
<path d="M81.2594 281.254C89.5962 281.254 96.3545 276.08 96.3545 269.698C96.3545 263.317 89.5962 258.143 81.2594 258.143C72.9226 258.143 66.1643 263.317 66.1643 269.698C66.1643 276.08 72.9226 281.254 81.2594 281.254Z" fill="#004900"/>
<path d="M60.9534 343.202C69.2902 343.202 76.0485 338.028 76.0485 331.646C76.0485 325.265 69.2902 320.091 60.9534 320.091C52.6167 320.091 45.8584 325.265 45.8584 331.646C45.8584 338.028 52.6167 343.202 60.9534 343.202Z" fill="#004900"/>
<path d="M71.5477 329.707V268.125" stroke="#004900" stroke-width="38.1977" stroke-linecap="round"/>
<path d="M82.3509 343.202C90.6877 343.202 97.446 338.028 97.446 331.646C97.446 325.265 90.6877 320.091 82.3509 320.091C74.0141 320.091 67.2558 325.265 67.2558 331.646C67.2558 338.028 74.0141 343.202 82.3509 343.202Z" fill="#004900"/>
<path d="M79.2242 313.156C89.3764 313.156 97.6063 306.856 97.6063 299.084C97.6063 291.313 89.3764 285.013 79.2242 285.013C69.0721 285.013 60.8421 291.313 60.8421 299.084C60.8421 306.856 69.0721 313.156 79.2242 313.156Z" fill="#004900"/>
<path d="M63.971 313.156C74.1231 313.156 82.3531 306.856 82.3531 299.084C82.3531 291.313 74.1231 285.013 63.971 285.013C53.8188 285.013 45.5889 291.313 45.5889 299.084C45.5889 306.856 53.8188 313.156 63.971 313.156Z" fill="#004900"/>
<path d="M71.4235 267.026V286.561" stroke="white" stroke-width="11" stroke-linecap="round"/>
<path d="M71.4235 311.283V329.791" stroke="white" stroke-width="11" stroke-linecap="round"/>
<path d="M70.859 298.764H71.9943" stroke="white" stroke-width="11" stroke-linecap="round" stroke-linejoin="round"/>
<path d="M218.096 281.254C226.433 281.254 233.192 276.08 233.192 269.698C233.192 263.317 226.433 258.143 218.096 258.143C209.76 258.143 203.001 263.317 203.001 269.698C203.001 276.08 209.76 281.254 218.096 281.254Z" fill="#004900"/>
<path d="M237.584 281.254C245.921 281.254 252.679 276.08 252.679 269.698C252.679 263.317 245.921 258.143 237.584 258.143C229.247 258.143 222.489 263.317 222.489 269.698C222.489 276.08 229.247 281.254 237.584 281.254Z" fill="#004900"/>
<path d="M217.278 343.202C225.615 343.202 232.373 338.028 232.373 331.646C232.373 325.265 225.615 320.091 217.278 320.091C208.941 320.091 202.183 325.265 202.183 331.646C202.183 338.028 208.941 343.202 217.278 343.202Z" fill="#004900"/>
<path d="M227.872 329.707V268.125" stroke="#004900" stroke-width="38.1977" stroke-linecap="round"/>
<path d="M238.675 343.202C247.012 343.202 253.77 338.028 253.77 331.646C253.77 325.265 247.012 320.091 238.675 320.091C230.339 320.091 223.58 325.265 223.58 331.646C223.58 338.028 230.339 343.202 238.675 343.202Z" fill="#004900"/>
<path d="M235.549 313.156C245.701 313.156 253.931 306.856 253.931 299.084C253.931 291.313 245.701 285.013 235.549 285.013C225.397 285.013 217.167 291.313 217.167 299.084C217.167 306.856 225.397 313.156 235.549 313.156Z" fill="#004900"/>
<path d="M220.295 313.156C230.448 313.156 238.678 306.856 238.678 299.084C238.678 291.313 230.448 285.013 220.295 285.013C210.143 285.013 201.913 291.313 201.913 299.084C201.913 306.856 210.143 313.156 220.295 313.156Z" fill="#004900"/>
<path d="M227.748 267.026V286.561" stroke="white" stroke-width="11" stroke-linecap="round"/>
<path d="M227.748 311.283V329.791" stroke="white" stroke-width="11" stroke-linecap="round"/>
<path d="M227.183 298.764H228.319" stroke="white" stroke-width="11" stroke-linecap="round" stroke-linejoin="round"/>
<path d="M61.7721 182.285C70.1088 182.285 76.8671 177.112 76.8671 170.73C76.8671 164.349 70.1088 159.175 61.7721 159.175C53.4353 159.175 46.677 164.349 46.677 170.73C46.677 177.112 53.4353 182.285 61.7721 182.285Z" fill="#004900"/>
<path d="M81.2594 182.285C89.5962 182.285 96.3545 177.112 96.3545 170.73C96.3545 164.349 89.5962 159.175 81.2594 159.175C72.9226 159.175 66.1643 164.349 66.1643 170.73C66.1643 177.112 72.9226 182.285 81.2594 182.285Z" fill="#004900"/>
<path d="M60.9534 244.233C69.2902 244.233 76.0485 239.06 76.0485 232.678C76.0485 226.297 69.2902 221.123 60.9534 221.123C52.6167 221.123 45.8584 226.297 45.8584 232.678C45.8584 239.06 52.6167 244.233 60.9534 244.233Z" fill="#004900"/>
<path d="M71.5477 230.739V169.157" stroke="#004900" stroke-width="38.1977" stroke-linecap="round"/>
<path d="M82.3509 244.233C90.6877 244.233 97.446 239.06 97.446 232.678C97.446 226.297 90.6877 221.123 82.3509 221.123C74.0141 221.123 67.2558 226.297 67.2558 232.678C67.2558 239.06 74.0141 244.233 82.3509 244.233Z" fill="#004900"/>
<path d="M79.2242 214.188C89.3764 214.188 97.6063 207.888 97.6063 200.116C97.6063 192.345 89.3764 186.045 79.2242 186.045C69.0721 186.045 60.8421 192.345 60.8421 200.116C60.8421 207.888 69.0721 214.188 79.2242 214.188Z" fill="#004900"/>
<path d="M63.971 214.188C74.1231 214.188 82.3531 207.888 82.3531 200.116C82.3531 192.345 74.1231 186.045 63.971 186.045C53.8188 186.045 45.5889 192.345 45.5889 200.116C45.5889 207.888 53.8188 214.188 63.971 214.188Z" fill="#004900"/>
<path d="M71.4235 168.058V187.592" stroke="white" stroke-width="11" stroke-linecap="round"/>
<path d="M71.4235 212.315V230.823" stroke="white" stroke-width="11" stroke-linecap="round"/>
<path d="M70.859 199.796H71.9943" stroke="white" stroke-width="11" stroke-linecap="round" stroke-linejoin="round"/>
<path d="M218.096 182.285C226.433 182.285 233.192 177.112 233.192 170.73C233.192 164.349 226.433 159.175 218.096 159.175C209.76 159.175 203.001 164.349 203.001 170.73C203.001 177.112 209.76 182.285 218.096 182.285Z" fill="#004900"/>
<path d="M237.584 182.285C245.921 182.285 252.679 177.112 252.679 170.73C252.679 164.349 245.921 159.175 237.584 159.175C229.247 159.175 222.489 164.349 222.489 170.73C222.489 177.112 229.247 182.285 237.584 182.285Z" fill="#004900"/>
<path d="M217.278 244.233C225.615 244.233 232.373 239.06 232.373 232.678C232.373 226.297 225.615 221.123 217.278 221.123C208.941 221.123 202.183 226.297 202.183 232.678C202.183 239.06 208.941 244.233 217.278 244.233Z" fill="#004900"/>
<path d="M227.872 230.739V169.157" stroke="#004900" stroke-width="38.1977" stroke-linecap="round"/>
<path d="M238.675 244.233C247.012 244.233 253.77 239.06 253.77 232.678C253.77 226.297 247.012 221.123 238.675 221.123C230.339 221.123 223.58 226.297 223.58 232.678C223.58 239.06 230.339 244.233 238.675 244.233Z" fill="#004900"/>
<path d="M235.549 214.188C245.701 214.188 253.931 207.888 253.931 200.116C253.931 192.345 245.701 186.045 235.549 186.045C225.397 186.045 217.167 192.345 217.167 200.116C217.167 207.888 225.397 214.188 235.549 214.188Z" fill="#004900"/>
<path d="M220.295 214.188C230.448 214.188 238.678 207.888 238.678 200.116C238.678 192.345 230.448 186.045 220.295 186.045C210.143 186.045 201.913 192.345 201.913 200.116C201.913 207.888 210.143 214.188 220.295 214.188Z" fill="#004900"/>
<path d="M227.748 168.058V187.592" stroke="white" stroke-width="11" stroke-linecap="round"/>
<path d="M227.748 212.315V230.823" stroke="white" stroke-width="11" stroke-linecap="round"/>
<path d="M227.183 199.796H228.319" stroke="white" stroke-width="11" stroke-linecap="round" stroke-linejoin="round"/>
<path d="M140.273 182.285C148.61 182.285 155.368 177.112 155.368 170.73C155.368 164.349 148.61 159.175 140.273 159.175C131.937 159.175 125.178 164.349 125.178 170.73C125.178 177.112 131.937 182.285 140.273 182.285Z" fill="#B93C3C"/>
<path d="M159.761 182.285C168.098 182.285 174.856 177.112 174.856 170.73C174.856 164.349 168.098 159.175 159.761 159.175C151.424 159.175 144.666 164.349 144.666 170.73C144.666 177.112 151.424 182.285 159.761 182.285Z" fill="#B93C3C"/>
<path d="M139.455 244.233C147.792 244.233 154.55 239.06 154.55 232.678C154.55 226.297 147.792 221.123 139.455 221.123C131.118 221.123 124.36 226.297 124.36 232.678C124.36 239.06 131.118 244.233 139.455 244.233Z" fill="#B93C3C"/>
<path d="M150.049 230.739V169.157" stroke="#B93C3C" stroke-width="38.1977" stroke-linecap="round"/>
<path d="M160.852 244.233C169.189 244.233 175.947 239.06 175.947 232.678C175.947 226.297 169.189 221.123 160.852 221.123C152.515 221.123 145.757 226.297 145.757 232.678C145.757 239.06 152.515 244.233 160.852 244.233Z" fill="#B93C3C"/>
<path d="M157.726 214.188C167.878 214.188 176.108 207.888 176.108 200.116C176.108 192.345 167.878 186.045 157.726 186.045C147.573 186.045 139.343 192.345 139.343 200.116C139.343 207.888 147.573 214.188 157.726 214.188Z" fill="#B93C3C"/>
<path d="M142.472 214.188C152.624 214.188 160.854 207.888 160.854 200.116C160.854 192.345 152.624 186.045 142.472 186.045C132.32 186.045 124.09 192.345 124.09 200.116C124.09 207.888 132.32 214.188 142.472 214.188Z" fill="#B93C3C"/>
<path d="M149.925 168.058V187.592" stroke="white" stroke-width="11" stroke-linecap="round"/>
<path d="M149.925 212.315V230.823" stroke="white" stroke-width="11" stroke-linecap="round"/>
<path d="M149.36 199.796H150.496" stroke="white" stroke-width="11" stroke-linecap="round" stroke-linejoin="round"/>
<path d="M140.273 281.254C148.61 281.254 155.368 276.08 155.368 269.698C155.368 263.317 148.61 258.143 140.273 258.143C131.937 258.143 125.178 263.317 125.178 269.698C125.178 276.08 131.937 281.254 140.273 281.254Z" fill="#B93C3C"/>
<path d="M159.761 281.254C168.098 281.254 174.856 276.08 174.856 269.698C174.856 263.317 168.098 258.143 159.761 258.143C151.424 258.143 144.666 263.317 144.666 269.698C144.666 276.08 151.424 281.254 159.761 281.254Z" fill="#B93C3C"/>
<path d="M139.455 343.202C147.792 343.202 154.55 338.028 154.55 331.646C154.55 325.265 147.792 320.091 139.455 320.091C131.118 320.091 124.36 325.265 124.36 331.646C124.36 338.028 131.118 343.202 139.455 343.202Z" fill="#B93C3C"/>
<path d="M150.049 329.707V268.125" stroke="#B93C3C" stroke-width="38.1977" stroke-linecap="round"/>
<path d="M160.852 343.202C169.189 343.202 175.947 338.028 175.947 331.646C175.947 325.265 169.189 320.091 160.852 320.091C152.515 320.091 145.757 325.265 145.757 331.646C145.757 338.028 152.515 343.202 160.852 343.202Z" fill="#B93C3C"/>
<path d="M157.726 313.156C167.878 313.156 176.108 306.856 176.108 299.084C176.108 291.313 167.878 285.013 157.726 285.013C147.573 285.013 139.343 291.313 139.343 299.084C139.343 306.856 147.573 313.156 157.726 313.156Z" fill="#B93C3C"/>
<path d="M142.472 313.156C152.624 313.156 160.854 306.856 160.854 299.084C160.854 291.313 152.624 285.013 142.472 285.013C132.32 285.013 124.09 291.313 124.09 299.084C124.09 306.856 132.32 313.156 142.472 313.156Z" fill="#B93C3C"/>
<path d="M149.925 267.026V286.561" stroke="white" stroke-width="11" stroke-linecap="round"/>
<path d="M149.925 311.283V329.791" stroke="white" stroke-width="11" stroke-linecap="round"/>
<path d="M149.36 298.764H150.496" stroke="white" stroke-width="11" stroke-linecap="round" stroke-linejoin="round"/>
<path d="M61.7721 81.0208C70.1088 81.0208 76.8671 75.8475 76.8671 69.4657C76.8671 63.084 70.1088 57.9106 61.7721 57.9106C53.4353 57.9106 46.677 63.084 46.677 69.4657C46.677 75.8475 53.4353 81.0208 61.7721 81.0208Z" fill="#004900"/>
<path d="M81.2594 81.0208C89.5962 81.0208 96.3545 75.8475 96.3545 69.4657C96.3545 63.084 89.5962 57.9106 81.2594 57.9106C72.9226 57.9106 66.1643 63.084 66.1643 69.4657C66.1643 75.8475 72.9226 81.0208 81.2594 81.0208Z" fill="#004900"/>
<path d="M60.9534 142.969C69.2902 142.969 76.0485 137.795 76.0485 131.414C76.0485 125.032 69.2902 119.859 60.9534 119.859C52.6167 119.859 45.8584 125.032 45.8584 131.414C45.8584 137.795 52.6167 142.969 60.9534 142.969Z" fill="#004900"/>
<path d="M71.5477 129.475V67.8921" stroke="#004900" stroke-width="38.1977" stroke-linecap="round"/>
<path d="M82.3509 142.969C90.6877 142.969 97.446 137.795 97.446 131.414C97.446 125.032 90.6877 119.859 82.3509 119.859C74.0141 119.859 67.2558 125.032 67.2558 131.414C67.2558 137.795 74.0141 142.969 82.3509 142.969Z" fill="#004900"/>
<path d="M79.2242 112.923C89.3764 112.923 97.6063 106.623 97.6063 98.8516C97.6063 91.0802 89.3764 84.7803 79.2242 84.7803C69.0721 84.7803 60.8421 91.0802 60.8421 98.8516C60.8421 106.623 69.0721 112.923 79.2242 112.923Z" fill="#004900"/>
<path d="M63.971 112.923C74.1231 112.923 82.3531 106.623 82.3531 98.8516C82.3531 91.0802 74.1231 84.7803 63.971 84.7803C53.8188 84.7803 45.5889 91.0802 45.5889 98.8516C45.5889 106.623 53.8188 112.923 63.971 112.923Z" fill="#004900"/>
<path d="M71.4235 66.793V86.3279" stroke="white" stroke-width="11" stroke-linecap="round"/>
<path d="M71.4235 111.051V129.559" stroke="white" stroke-width="11" stroke-linecap="round"/>
<path d="M70.859 98.531H71.9943" stroke="white" stroke-width="11" stroke-linecap="round" stroke-linejoin="round"/>
<path d="M218.096 81.0208C226.433 81.0208 233.192 75.8475 233.192 69.4657C233.192 63.084 226.433 57.9106 218.096 57.9106C209.76 57.9106 203.001 63.084 203.001 69.4657C203.001 75.8475 209.76 81.0208 218.096 81.0208Z" fill="#004900"/>
<path d="M237.584 81.0208C245.921 81.0208 252.679 75.8475 252.679 69.4657C252.679 63.084 245.921 57.9106 237.584 57.9106C229.247 57.9106 222.489 63.084 222.489 69.4657C222.489 75.8475 229.247 81.0208 237.584 81.0208Z" fill="#004900"/>
<path d="M217.278 142.969C225.615 142.969 232.373 137.795 232.373 131.414C232.373 125.032 225.615 119.859 217.278 119.859C208.941 119.859 202.183 125.032 202.183 131.414C202.183 137.795 208.941 142.969 217.278 142.969Z" fill="#004900"/>
<path d="M227.872 129.475V67.8921" stroke="#004900" stroke-width="38.1977" stroke-linecap="round"/>
<path d="M238.675 142.969C247.012 142.969 253.77 137.795 253.77 131.414C253.77 125.032 247.012 119.859 238.675 119.859C230.339 119.859 223.58 125.032 223.58 131.414C223.58 137.795 230.339 142.969 238.675 142.969Z" fill="#004900"/>
<path d="M235.549 112.923C245.701 112.923 253.931 106.623 253.931 98.8516C253.931 91.0802 245.701 84.7803 235.549 84.7803C225.397 84.7803 217.167 91.0802 217.167 98.8516C217.167 106.623 225.397 112.923 235.549 112.923Z" fill="#004900"/>
<path d="M220.295 112.923C230.448 112.923 238.678 106.623 238.678 98.8516C238.678 91.0802 230.448 84.7803 220.295 84.7803C210.143 84.7803 201.913 91.0802 201.913 98.8516C201.913 106.623 210.143 112.923 220.295 112.923Z" fill="#004900"/>
<path d="M227.748 66.793V86.3279" stroke="white" stroke-width="11" stroke-linecap="round"/>
<path d="M227.748 111.051V129.559" stroke="white" stroke-width="11" stroke-linecap="round"/>
<path d="M227.183 98.531H228.319" stroke="white" stroke-width="11" stroke-linecap="round" stroke-linejoin="round"/>
</g>
<defs>
<filter id="filter0_f_13_24" x="-11.8441" y="-18.6217" width="272.981" height="151.274" filterUnits="userSpaceOnUse" color-interpolation-filters="sRGB">
<feFlood flood-opacity="0" result="BackgroundImageFix"/>
<feBlend mode="normal" in="SourceGraphic" in2="BackgroundImageFix" result="shape"/>
<feGaussianBlur stdDeviation="0.6275" result="effect1_foregroundBlur_13_24"/>
</filter>
<filter id="filter1_f_13_24" x="60.6515" y="291.58" width="240.61" height="111.805" filterUnits="userSpaceOnUse" color-interpolation-filters="sRGB">
<feFlood flood-opacity="0" result="BackgroundImageFix"/>
<feBlend mode="normal" in="SourceGraphic" in2="BackgroundImageFix" result="shape"/>
<feGaussianBlur stdDeviation="0.6275" result="effect1_foregroundBlur_13_24"/>
</filter>
<clipPath id="clip0_13_24">
<rect width="300" height="400" fill="white"/>
</clipPath>
<clipPath id="clip1_13_24">
<rect width="225" height="300" fill="white" transform="translate(37.5 50)"/>
</clipPath>
</defs>
</svg>
