<svg width="300" height="400" viewBox="0 0 300 400" fill="none" xmlns="http://www.w3.org/2000/svg">
<g clip-path="url(#clip0_13_24)">
<path d="M256.103 -0.0786133H39.3916C17.6362 -0.0786133 0 17.5576 0 39.313V355.212C0 376.967 17.6362 394.604 39.3916 394.604H256.103C277.859 394.604 295.495 376.967 295.495 355.212V39.313C295.495 17.5576 277.859 -0.0786133 256.103 -0.0786133Z" fill="#F5F0EB"/>
<mask id="mask0_13_24" style="mask-type:luminance" maskUnits="userSpaceOnUse" x="0" y="-1" width="296" height="396">
<path d="M256.103 -0.0786133H39.3916C17.6362 -0.0786133 0 17.5576 0 39.313V355.212C0 376.967 17.6362 394.604 39.3916 394.604H256.103C277.859 394.604 295.495 376.967 295.495 355.212V39.313C295.495 17.5576 277.859 -0.0786133 256.103 -0.0786133Z" fill="#FF3737"/>
</mask>
<g mask="url(#mask0_13_24)">
<g filter="url(#filter0_f_13_24)">
<path fill-rule="evenodd" clip-rule="evenodd" d="M-4.6963 120.841C-9.50345 88.2683 -16.5893 21.5408 -1.25947 -0.294601C18.7093 -26.0176 229.949 -20.4167 259.309 1.52321C272.013 10.1289 69.2795 10.5944 46.3829 38.7826C24.0199 65.7339 0.640658 163.302 -4.6963 120.841Z" fill="white"/>
</g>
</g>
<mask id="mask1_13_24" style="mask-type:luminance" maskUnits="userSpaceOnUse" x="149" y="268" width="297" height="396">
<path d="M188.961 663H405.672C427.428 663 445.064 645.364 445.064 623.609V307.71C445.064 285.954 427.428 268.318 405.672 268.318H188.961C167.205 268.318 149.569 285.954 149.569 307.71V623.609C149.569 645.364 167.205 663 188.961 663Z" fill="#FF3737"/>
</mask>
<g mask="url(#mask1_13_24)">
<g filter="url(#filter1_f_13_24)">
<path fill-rule="evenodd" clip-rule="evenodd" d="M295.636 295.935C298.912 305.107 305.728 363.348 290.399 385.183C270.43 410.906 74.3007 401.391 62.3656 394.964C51.4597 389.728 238.253 394.906 264.101 360.628C285.366 331.084 290.199 279.7 295.636 295.935Z" fill="black" fill-opacity="0.196078"/>
</g>
</g>
</g>
<path fill-rule="evenodd" clip-rule="evenodd" d="M212.18 129.009C174.695 137.413 97.8444 154.981 93.9735 151.26C83.1771 143.306 71.712 148.146 78.537 158.867C89.5075 179.041 106.289 197.6 114.376 219.465C115.922 222.635 117.469 223.129 119.015 223.105C142.587 223.542 159.288 217.884 181.811 215.79C185.356 215.42 190.04 219.591 192.672 218.346C195.004 216.97 195.975 212.079 196.59 209.013C201.223 190.422 215.54 174.139 223.541 155.826C224.557 153.635 230.191 153.229 230.149 151.115C229.325 143.203 218.46 128.655 212.18 129.009ZM196.549 153.571C204.967 153.348 196.28 171.891 192.832 172.67C188.992 173.28 188.38 167.328 183.674 167.223C180.139 167.625 180.943 170.099 177.298 171.276C155.059 176.005 138.758 177.684 115.554 180.153C112.627 180.233 105.377 167.556 109.465 166.526C137.121 159.257 183.627 153.766 196.549 153.571ZM185.477 190.164C188.189 195.187 183.556 200.258 180.202 200.816C159.806 204.119 127.34 209.702 124.805 206.837C123.002 204.757 119.345 198.806 119.926 194.74C127.449 192.022 182.277 184.189 185.477 190.164Z" fill="#142896"/>
<path fill-rule="evenodd" clip-rule="evenodd" d="M137.518 56.4759C125.108 51.0624 123.757 60.7419 125.424 66.964C129.622 81.7407 135.171 87.9074 142.001 98.1815C143.22 99.95 144.574 103.345 144.368 104.963L142.475 256.813C142.491 261.566 141.648 276.603 138.869 274.232C127.887 265.193 124.568 260.12 106.955 236.528C99.4285 225.608 93.5193 231.448 102.654 245.738C131.337 285.693 133.782 289.505 134.206 329.935C135.303 351.278 155.66 347.964 157.56 334.425C159.877 319.816 156.447 296.547 156.311 280.47C155.788 219.007 155.73 164.651 164.988 105.259C166.74 95.9941 180.518 88.3873 187.939 85.7213C191.226 84.5365 194.888 75.4996 188.547 75.1499C171.537 73.2124 153.229 63.7747 137.518 56.4759Z" fill="#142896"/>
<path fill-rule="evenodd" clip-rule="evenodd" d="M115.198 125.106C95.9461 124.149 110.193 136.654 114.52 136.337C138.48 133.98 177.975 127.805 202.407 121.789C204.098 121.731 202.278 109.215 190.695 107.95C187.173 107.763 187.779 109.853 183.616 111.487C164.949 115.877 132.171 126.277 115.198 125.106Z" fill="#142896"/>
<path fill-rule="evenodd" clip-rule="evenodd" d="M122.642 205.947C109.104 234.334 96.6561 244.441 55.6997 263.595C39.852 270.465 40.9816 280.897 60.1883 273.759C112.318 251.825 123.249 238.132 131.751 211.546L122.642 205.947Z" fill="#142896"/>
<path fill-rule="evenodd" clip-rule="evenodd" d="M154.949 206.504C171.71 227.672 194.632 284.737 207.342 276.262C217.376 269.284 230.276 268.459 235.759 270.058C242.935 272.105 243.28 275.73 247.297 278.082C257.859 282.901 255.649 276.604 251.983 271.064C242.497 255.264 197.555 245.705 169.36 203.351L154.949 206.504Z" fill="#142896"/>
<defs>
<filter id="filter0_f_13_24" x="-11.8441" y="-18.6217" width="272.981" height="151.274" filterUnits="userSpaceOnUse" color-interpolation-filters="sRGB">
<feFlood flood-opacity="0" result="BackgroundImageFix"/>
<feBlend mode="normal" in="SourceGraphic" in2="BackgroundImageFix" result="shape"/>
<feGaussianBlur stdDeviation="0.6275" result="effect1_foregroundBlur_13_24"/>
</filter>
<filter id="filter1_f_13_24" x="60.6515" y="291.58" width="240.61" height="111.805" filterUnits="userSpaceOnUse" color-interpolation-filters="sRGB">
<feFlood flood-opacity="0" result="BackgroundImageFix"/>
<feBlend mode="normal" in="SourceGraphic" in2="BackgroundImageFix" result="shape"/>
<feGaussianBlur stdDeviation="0.6275" result="effect1_foregroundBlur_13_24"/>
</filter>
<clipPath id="clip0_13_24">
<rect width="300" height="400" fill="white"/>
</clipPath>
</defs>
</svg>
