<svg width="75" height="100" viewBox="0 0 75 100" fill="none" xmlns="http://www.w3.org/2000/svg">
<g clip-path="url(#clip0_13_24)">
<path d="M64.0258 -0.0195312H9.8479C4.40905 -0.0195312 0 4.38952 0 9.82837V88.8031C0 94.242 4.40905 98.651 9.8479 98.651H64.0258C69.4647 98.651 73.8737 94.242 73.8737 88.8031V9.82837C73.8737 4.38952 69.4647 -0.0195312 64.0258 -0.0195312Z" fill="#F5F0EB"/>
<mask id="mask0_13_24" style="mask-type:luminance" maskUnits="userSpaceOnUse" x="0" y="-1" width="74" height="100">
<path d="M64.0258 -0.0195312H9.8479C4.40905 -0.0195312 0 4.38952 0 9.82837V88.8031C0 94.242 4.40905 98.651 9.8479 98.651H64.0258C69.4647 98.651 73.8737 94.242 73.8737 88.8031V9.82837C73.8737 4.38952 69.4647 -0.0195312 64.0258 -0.0195312Z" fill="#FF3737"/>
</mask>
<g mask="url(#mask0_13_24)">
<g filter="url(#filter0_f_13_24)">
<path fill-rule="evenodd" clip-rule="evenodd" d="M-1.17407 30.2102C-2.37586 22.067 -4.14733 5.38508 -0.314861 -0.0737726C4.67733 -6.50453 57.4873 -5.10431 64.8273 0.38068C68.0032 2.53209 17.3199 2.64848 11.5957 9.69552C6.00499 16.4334 0.160172 40.8253 -1.17407 30.2102Z" fill="white"/>
</g>
</g>
<mask id="mask1_13_24" style="mask-type:luminance" maskUnits="userSpaceOnUse" x="37" y="67" width="75" height="99">
<path d="M47.2401 165.75H101.418C106.857 165.75 111.266 161.341 111.266 155.902V76.9274C111.266 71.4885 106.857 67.0795 101.418 67.0795H47.2401C41.8013 67.0795 37.3922 71.4885 37.3922 76.9274V155.902C37.3922 161.341 41.8013 165.75 47.2401 165.75Z" fill="#FF3737"/>
</mask>
<g mask="url(#mask1_13_24)">
<g filter="url(#filter1_f_13_24)">
<path fill-rule="evenodd" clip-rule="evenodd" d="M73.909 73.9837C74.728 76.2768 76.4321 90.8369 72.5996 96.2958C67.6075 102.727 18.5752 100.348 15.5914 98.741C12.8649 97.4319 59.5631 98.7265 66.0252 90.1569C71.3415 82.7709 72.5497 69.9248 73.909 73.9837Z" fill="black" fill-opacity="0.196078"/>
</g>
</g>
</g>
<g clip-path="url(#clip1_13_24)">
<path fill-rule="evenodd" clip-rule="evenodd" d="M52.9886 28.1403C41.3603 31.2681 36.8127 32.2483 21.834 36.1753C20.8167 36.1572 18.7337 36.0014 17.7705 34.3926C16.8784 33.2828 15.9512 34.5203 16.001 35.6568C16.0694 37.2194 16.1132 38.524 16.8411 39.257C20.9031 42.9977 22.2932 47.0049 22.8828 51.5833C22.8208 52.5604 22.016 53.4588 23.4815 53.3924C24.957 53.2829 39.281 52.1493 49.8092 53.0748C50.6795 53.1642 50.8328 52.3846 50.7749 52.0641C50.2794 49.3236 55.3383 40.5587 57.0327 36.9751C57.3819 36.2365 59.2486 36.1437 59.6452 36.049C59.6191 36.0555 60.1819 35.7256 59.8507 35.3151C57.8409 32.8237 53.6885 27.9193 52.9886 28.1403ZM48.9991 34.6845C50.7029 34.6973 51.5154 35.1403 50.8423 36.25C48.7583 40.4332 46.2966 48.6131 45.552 48.487C34.0571 48.4083 29.0657 49.2485 27.9241 48.8707C27.5117 48.7179 26.9093 44.2021 24.2991 40.962C23.8886 40.4525 24.0579 40.0817 24.7217 39.9202C28.5897 39.0546 43.4336 34.6424 48.9991 34.6845Z" fill="#B93C3C"/>
<path fill-rule="evenodd" clip-rule="evenodd" d="M30.4526 18.2573C30.5064 18.8534 30.4274 20.0349 31.3539 20.3756C32.1585 20.4595 34.1838 22.0155 33.7829 24.469C33.7962 51.3932 34.259 53.1464 33.8278 73.9626C33.0217 81.4953 34.7926 85.4916 35.3782 86.4221C35.7988 87.3663 36.256 87.2125 36.4677 86.6282C38.3271 81.4962 39.1412 84.8295 38.574 71.8854C38.4908 50.3751 38.1605 26.6628 41.3056 24.9201C42.548 23.9227 44.1789 20.8099 43.7911 20.088C44.2357 19.3753 36.5385 12.3458 35.8933 12.9966C34.8376 14.1484 30.6431 16.1428 30.4526 18.2573Z" fill="#B93C3C"/>
</g>
<defs>
<filter id="filter0_f_13_24" x="-3.90228" y="-5.5968" width="70.1277" height="39.7009" filterUnits="userSpaceOnUse" color-interpolation-filters="sRGB">
<feFlood flood-opacity="0" result="BackgroundImageFix"/>
<feBlend mode="normal" in="SourceGraphic" in2="BackgroundImageFix" result="shape"/>
<feGaussianBlur stdDeviation="0.6275" result="effect1_foregroundBlur_13_24"/>
</filter>
<filter id="filter1_f_13_24" x="14.2216" y="71.9537" width="62.0351" height="29.8337" filterUnits="userSpaceOnUse" color-interpolation-filters="sRGB">
<feFlood flood-opacity="0" result="BackgroundImageFix"/>
<feBlend mode="normal" in="SourceGraphic" in2="BackgroundImageFix" result="shape"/>
<feGaussianBlur stdDeviation="0.6275" result="effect1_foregroundBlur_13_24"/>
</filter>
<clipPath id="clip0_13_24">
<rect width="75" height="100" fill="white"/>
</clipPath>
<clipPath id="clip1_13_24">
<rect width="56.25" height="75" fill="white" transform="translate(9.375 12.5)"/>
</clipPath>
</defs>
</svg>
