<svg width="300" height="400" viewBox="0 0 300 400" fill="none" xmlns="http://www.w3.org/2000/svg">
<g clip-path="url(#clip0_13_24)">
<path d="M256.103 -0.0786133H39.3916C17.6362 -0.0786133 0 17.5576 0 39.313V355.212C0 376.967 17.6362 394.604 39.3916 394.604H256.103C277.859 394.604 295.495 376.967 295.495 355.212V39.313C295.495 17.5576 277.859 -0.0786133 256.103 -0.0786133Z" fill="#F5F0EB"/>
<mask id="mask0_13_24" style="mask-type:luminance" maskUnits="userSpaceOnUse" x="0" y="-1" width="296" height="396">
<path d="M256.103 -0.0786133H39.3916C17.6362 -0.0786133 0 17.5576 0 39.313V355.212C0 376.967 17.6362 394.604 39.3916 394.604H256.103C277.859 394.604 295.495 376.967 295.495 355.212V39.313C295.495 17.5576 277.859 -0.0786133 256.103 -0.0786133Z" fill="#FF3737"/>
</mask>
<g mask="url(#mask0_13_24)">
<g filter="url(#filter0_f_13_24)">
<path fill-rule="evenodd" clip-rule="evenodd" d="M-4.6963 120.841C-9.50345 88.2683 -16.5893 21.5408 -1.25947 -0.294602C18.7093 -26.0176 229.949 -20.4167 259.309 1.52321C272.013 10.1289 69.2795 10.5944 46.3829 38.7826C24.0199 65.7339 0.640659 163.302 -4.6963 120.841Z" fill="white"/>
</g>
</g>
<mask id="mask1_13_24" style="mask-type:luminance" maskUnits="userSpaceOnUse" x="149" y="268" width="297" height="396">
<path d="M188.961 663H405.672C427.428 663 445.064 645.364 445.064 623.609V307.71C445.064 285.954 427.428 268.318 405.672 268.318H188.961C167.205 268.318 149.569 285.954 149.569 307.71V623.609C149.569 645.364 167.205 663 188.961 663Z" fill="#FF3737"/>
</mask>
<g mask="url(#mask1_13_24)">
<g filter="url(#filter1_f_13_24)">
<path fill-rule="evenodd" clip-rule="evenodd" d="M295.636 295.935C298.912 305.107 305.728 363.348 290.399 385.183C270.43 410.906 74.3007 401.391 62.3656 394.964C51.4597 389.728 238.253 394.906 264.101 360.628C285.366 331.084 290.199 279.7 295.636 295.935Z" fill="black" fill-opacity="0.196078"/>
</g>
</g>
</g>
<path d="M150.003 185.767C184.126 185.767 211.788 158.105 211.788 123.983C211.788 89.8601 184.126 62.1982 150.003 62.1982C115.881 62.1982 88.2189 89.8601 88.2189 123.983C88.2189 158.105 115.881 185.767 150.003 185.767Z" fill="white" stroke="black" stroke-width="13.1856" stroke-linejoin="round"/>
<path d="M150.003 174.634C177.86 174.634 200.442 152.052 200.442 124.196C200.442 96.3394 177.86 73.7573 150.003 73.7573C122.147 73.7573 99.565 96.3394 99.565 124.196C99.565 152.052 122.147 174.634 150.003 174.634Z" fill="#000037"/>
<path d="M125.119 130.58C123.191 131.906 120.717 132.578 118.204 132.458C115.692 132.338 113.33 131.436 111.603 129.935C109.875 128.435 108.913 126.45 108.913 124.387C108.913 122.324 109.875 120.339 111.603 118.838C113.33 117.338 115.692 116.435 118.204 116.315C120.717 116.195 123.191 116.867 125.119 118.193" stroke="white" stroke-width="9.13212" stroke-linecap="round" stroke-linejoin="round"/>
<path d="M142.85 149.028C143.035 151.36 142.38 153.839 141.019 155.955C139.659 158.071 137.697 159.665 135.533 160.41C133.37 161.156 131.17 160.997 129.384 159.965C127.597 158.934 126.359 157.108 125.923 154.862C125.487 152.616 125.886 150.119 127.039 147.883C128.191 145.647 130.01 143.841 132.123 142.834" stroke="white" stroke-width="9.13212" stroke-linecap="round" stroke-linejoin="round"/>
<path d="M167.071 142.572C169.183 143.579 171.002 145.385 172.154 147.621C173.307 149.857 173.706 152.354 173.27 154.6C172.834 156.846 171.596 158.672 169.81 159.703C168.023 160.735 165.823 160.894 163.66 160.149C161.497 159.403 159.534 157.809 158.174 155.693C156.813 153.577 156.158 151.099 156.343 148.766" stroke="white" stroke-width="9.13212" stroke-linecap="round" stroke-linejoin="round"/>
<path d="M173.59 118.369C175.518 117.043 177.992 116.371 180.505 116.491C183.017 116.611 185.379 117.514 187.106 119.014C188.834 120.515 189.796 122.5 189.796 124.563C189.796 126.626 188.834 128.611 187.106 130.111C185.379 131.612 183.017 132.514 180.505 132.634C177.992 132.754 175.518 132.082 173.59 130.756" stroke="white" stroke-width="9.13212" stroke-linecap="round" stroke-linejoin="round"/>
<path d="M155.889 100.621C155.705 98.2884 156.36 95.8103 157.72 93.6942C159.08 91.5781 161.043 89.9841 163.206 89.2385C165.369 88.4929 167.569 88.6522 169.356 89.6837C171.143 90.7151 172.381 92.5408 172.816 94.787C173.252 97.0331 172.853 99.5298 171.701 101.766C170.548 104.002 168.73 105.808 166.617 106.815" stroke="white" stroke-width="9.13212" stroke-linecap="round" stroke-linejoin="round"/>
<path d="M131.669 107.077C129.556 106.07 127.738 104.264 126.585 102.028C125.433 99.7919 125.034 97.2952 125.47 95.0491C125.906 92.8029 127.143 90.9772 128.93 89.9457C130.717 88.9143 132.917 88.755 135.08 89.5006C137.243 90.2461 139.206 91.8402 140.566 93.9563C141.926 96.0724 142.581 98.5505 142.397 100.883" stroke="white" stroke-width="9.13212" stroke-linecap="round" stroke-linejoin="round"/>
<path d="M149.919 134.579C155.689 134.579 160.366 129.902 160.366 124.132C160.366 118.362 155.689 113.685 149.919 113.685C144.149 113.685 139.472 118.362 139.472 124.132C139.472 129.902 144.149 134.579 149.919 134.579Z" stroke="white" stroke-width="9.40902" stroke-linejoin="round"/>
<path d="M150.003 337.642C184.126 337.642 211.788 309.98 211.788 275.858C211.788 241.735 184.126 214.073 150.003 214.073C115.881 214.073 88.2189 241.735 88.2189 275.858C88.2189 309.98 115.881 337.642 150.003 337.642Z" fill="white" stroke="black" stroke-width="13.1856" stroke-linejoin="round"/>
<path d="M150.003 326.509C177.86 326.509 200.442 303.927 200.442 276.071C200.442 248.214 177.86 225.632 150.003 225.632C122.147 225.632 99.565 248.214 99.565 276.071C99.565 303.927 122.147 326.509 150.003 326.509Z" fill="#000037"/>
<path d="M125.119 282.455C123.191 283.781 120.717 284.453 118.204 284.333C115.692 284.213 113.33 283.311 111.603 281.81C109.875 280.31 108.913 278.325 108.913 276.262C108.913 274.199 109.875 272.214 111.603 270.713C113.33 269.213 115.692 268.31 118.204 268.19C120.717 268.07 123.191 268.742 125.119 270.068" stroke="white" stroke-width="9.13212" stroke-linecap="round" stroke-linejoin="round"/>
<path d="M142.85 300.903C143.035 303.235 142.38 305.714 141.019 307.83C139.659 309.946 137.697 311.54 135.533 312.285C133.37 313.031 131.17 312.872 129.384 311.84C127.597 310.809 126.359 308.983 125.923 306.737C125.487 304.491 125.886 301.994 127.039 299.758C128.191 297.522 130.01 295.716 132.123 294.709" stroke="white" stroke-width="9.13212" stroke-linecap="round" stroke-linejoin="round"/>
<path d="M167.071 294.447C169.183 295.454 171.002 297.26 172.154 299.496C173.307 301.732 173.706 304.229 173.27 306.475C172.834 308.721 171.596 310.547 169.81 311.578C168.023 312.61 165.823 312.769 163.66 312.024C161.497 311.278 159.534 309.684 158.174 307.568C156.813 305.452 156.158 302.974 156.343 300.641" stroke="white" stroke-width="9.13212" stroke-linecap="round" stroke-linejoin="round"/>
<path d="M173.59 270.244C175.518 268.918 177.992 268.246 180.505 268.366C183.017 268.486 185.379 269.389 187.106 270.889C188.834 272.39 189.796 274.375 189.796 276.438C189.796 278.501 188.834 280.486 187.106 281.986C185.379 283.487 183.017 284.389 180.505 284.509C177.992 284.629 175.518 283.957 173.59 282.631" stroke="white" stroke-width="9.13212" stroke-linecap="round" stroke-linejoin="round"/>
<path d="M155.889 252.496C155.705 250.163 156.36 247.685 157.72 245.569C159.08 243.453 161.043 241.859 163.206 241.113C165.369 240.368 167.569 240.527 169.356 241.559C171.143 242.59 172.381 244.416 172.816 246.662C173.252 248.908 172.853 251.405 171.701 253.641C170.548 255.877 168.73 257.683 166.617 258.69" stroke="white" stroke-width="9.13212" stroke-linecap="round" stroke-linejoin="round"/>
<path d="M131.669 258.952C129.556 257.945 127.738 256.139 126.585 253.903C125.433 251.667 125.034 249.17 125.47 246.924C125.906 244.678 127.143 242.852 128.93 241.821C130.717 240.789 132.917 240.63 135.08 241.375C137.243 242.121 139.206 243.715 140.566 245.831C141.926 247.947 142.581 250.425 142.397 252.758" stroke="white" stroke-width="9.13212" stroke-linecap="round" stroke-linejoin="round"/>
<path d="M149.919 286.454C155.689 286.454 160.366 281.777 160.366 276.007C160.366 270.237 155.689 265.56 149.919 265.56C144.149 265.56 139.472 270.237 139.472 276.007C139.472 281.777 144.149 286.454 149.919 286.454Z" stroke="white" stroke-width="9.40902" stroke-linejoin="round"/>
<defs>
<filter id="filter0_f_13_24" x="-11.8441" y="-18.6217" width="272.981" height="151.274" filterUnits="userSpaceOnUse" color-interpolation-filters="sRGB">
<feFlood flood-opacity="0" result="BackgroundImageFix"/>
<feBlend mode="normal" in="SourceGraphic" in2="BackgroundImageFix" result="shape"/>
<feGaussianBlur stdDeviation="0.6275" result="effect1_foregroundBlur_13_24"/>
</filter>
<filter id="filter1_f_13_24" x="60.6515" y="291.58" width="240.61" height="111.805" filterUnits="userSpaceOnUse" color-interpolation-filters="sRGB">
<feFlood flood-opacity="0" result="BackgroundImageFix"/>
<feBlend mode="normal" in="SourceGraphic" in2="BackgroundImageFix" result="shape"/>
<feGaussianBlur stdDeviation="0.6275" result="effect1_foregroundBlur_13_24"/>
</filter>
<clipPath id="clip0_13_24">
<rect width="300" height="400" fill="white"/>
</clipPath>
</defs>
</svg>
