<svg width="300" height="400" viewBox="0 0 300 400" fill="none" xmlns="http://www.w3.org/2000/svg">
<g clip-path="url(#clip0_13_24)">
<path d="M256.103 -0.0786133H39.3916C17.6362 -0.0786133 0 17.5576 0 39.313V355.212C0 376.967 17.6362 394.604 39.3916 394.604H256.103C277.859 394.604 295.495 376.967 295.495 355.212V39.313C295.495 17.5576 277.859 -0.0786133 256.103 -0.0786133Z" fill="#F5F0EB"/>
<mask id="mask0_13_24" style="mask-type:luminance" maskUnits="userSpaceOnUse" x="0" y="-1" width="296" height="396">
<path d="M256.103 -0.0786133H39.3916C17.6362 -0.0786133 0 17.5576 0 39.313V355.212C0 376.967 17.6362 394.604 39.3916 394.604H256.103C277.859 394.604 295.495 376.967 295.495 355.212V39.313C295.495 17.5576 277.859 -0.0786133 256.103 -0.0786133Z" fill="#FF3737"/>
</mask>
<g mask="url(#mask0_13_24)">
<g filter="url(#filter0_f_13_24)">
<path fill-rule="evenodd" clip-rule="evenodd" d="M-4.6963 120.841C-9.50345 88.2683 -16.5893 21.5408 -1.25947 -0.294602C18.7093 -26.0176 229.949 -20.4167 259.309 1.52321C272.013 10.1289 69.2795 10.5944 46.3829 38.7826C24.0199 65.7339 0.640659 163.302 -4.6963 120.841Z" fill="white"/>
</g>
</g>
<mask id="mask1_13_24" style="mask-type:luminance" maskUnits="userSpaceOnUse" x="149" y="268" width="297" height="396">
<path d="M188.961 663H405.672C427.428 663 445.064 645.364 445.064 623.609V307.71C445.064 285.954 427.428 268.318 405.672 268.318H188.961C167.205 268.318 149.569 285.954 149.569 307.71V623.609C149.569 645.364 167.205 663 188.961 663Z" fill="#FF3737"/>
</mask>
<g mask="url(#mask1_13_24)">
<g filter="url(#filter1_f_13_24)">
<path fill-rule="evenodd" clip-rule="evenodd" d="M295.636 295.935C298.912 305.107 305.728 363.348 290.399 385.183C270.43 410.906 74.3007 401.391 62.3656 394.964C51.4597 389.728 238.253 394.906 264.101 360.628C285.366 331.084 290.199 279.7 295.636 295.935Z" fill="black" fill-opacity="0.196078"/>
</g>
</g>
</g>
<path d="M94.1322 152.499C119.448 152.499 139.97 131.976 139.97 106.661C139.97 81.3448 119.448 60.8223 94.1322 60.8223C68.8164 60.8223 48.2939 81.3448 48.2939 106.661C48.2939 131.976 68.8164 152.499 94.1322 152.499Z" fill="black"/>
<path d="M94.1322 141.231C113.225 141.231 128.703 125.754 128.703 106.661C128.703 87.5675 113.225 72.0896 94.1322 72.0896C75.0392 72.0896 59.5612 87.5675 59.5612 106.661C59.5612 125.754 75.0392 141.231 94.1322 141.231Z" fill="white"/>
<path d="M94.1322 136.43C110.574 136.43 123.902 123.102 123.902 106.661C123.902 90.2192 110.574 76.8909 94.1322 76.8909C77.6909 76.8909 64.3625 90.2192 64.3625 106.661C64.3625 123.102 77.6909 136.43 94.1322 136.43Z" fill="#000037"/>
<path d="M110.294 106.549C110.265 102.316 108.575 98.2629 105.589 95.2619C102.603 92.2609 98.559 90.5514 94.3258 90.5009C90.0927 90.4505 86.0087 92.0632 82.9521 94.9922C79.8954 97.9213 78.1102 101.933 77.9802 106.164C77.8502 110.396 79.3858 114.509 82.2569 117.621C85.128 120.732 89.1052 122.592 93.3335 122.802C97.5618 123.011 101.703 121.553 104.868 118.741C108.033 115.929 109.967 111.987 110.256 107.764" stroke="white" stroke-width="6.75045" stroke-linecap="round" stroke-linejoin="round" stroke-dasharray="13.5 13.5"/>
<path d="M94.1322 112.684C97.459 112.684 100.156 109.987 100.156 106.66C100.156 103.334 97.459 100.637 94.1322 100.637C90.8054 100.637 88.1085 103.334 88.1085 106.66C88.1085 109.987 90.8054 112.684 94.1322 112.684Z" fill="white"/>
<path d="M94.1322 109.411C95.6514 109.411 96.8829 108.18 96.8829 106.661C96.8829 105.141 95.6514 103.91 94.1322 103.91C92.613 103.91 91.3815 105.141 91.3815 106.661C91.3815 108.18 92.613 109.411 94.1322 109.411Z" fill="#000037"/>
<path d="M149.994 245.803C175.31 245.803 195.832 225.281 195.832 199.965C195.832 174.649 175.31 154.127 149.994 154.127C124.678 154.127 104.156 174.649 104.156 199.965C104.156 225.281 124.678 245.803 149.994 245.803Z" fill="black"/>
<path d="M149.994 234.536C169.087 234.536 184.565 219.058 184.565 199.965C184.565 180.872 169.087 165.394 149.994 165.394C130.901 165.394 115.423 180.872 115.423 199.965C115.423 219.058 130.901 234.536 149.994 234.536Z" fill="white"/>
<path d="M149.994 229.735C166.435 229.735 179.764 216.406 179.764 199.965C179.764 183.524 166.435 170.195 149.994 170.195C133.553 170.195 120.224 183.524 120.224 199.965C120.224 216.406 133.553 229.735 149.994 229.735Z" fill="#B93C3C"/>
<path d="M166.156 199.854C166.126 195.62 164.437 191.567 161.451 188.566C158.465 185.565 154.421 183.856 150.188 183.805C145.955 183.755 141.871 185.368 138.814 188.297C135.757 191.226 133.972 195.237 133.842 199.469C133.712 203.7 135.248 207.814 138.119 210.925C140.99 214.036 144.967 215.896 149.195 216.106C153.424 216.316 157.565 214.858 160.73 212.045C163.895 209.233 165.829 205.292 166.118 201.068" stroke="white" stroke-width="6.75045" stroke-linecap="round" stroke-linejoin="round" stroke-dasharray="13.5 13.5"/>
<path d="M149.994 205.989C153.321 205.989 156.018 203.292 156.018 199.965C156.018 196.638 153.321 193.941 149.994 193.941C146.667 193.941 143.97 196.638 143.97 199.965C143.97 203.292 146.667 205.989 149.994 205.989Z" fill="white"/>
<path d="M149.994 202.716C151.513 202.716 152.745 201.484 152.745 199.965C152.745 198.446 151.513 197.214 149.994 197.214C148.475 197.214 147.243 198.446 147.243 199.965C147.243 201.484 148.475 202.716 149.994 202.716Z" fill="#B93C3C"/>
<path d="M205.859 339.202C231.175 339.202 251.697 318.679 251.697 293.364C251.697 268.048 231.175 247.525 205.859 247.525C180.543 247.525 160.02 268.048 160.02 293.364C160.02 318.679 180.543 339.202 205.859 339.202Z" fill="black"/>
<path d="M205.859 327.935C224.952 327.935 240.43 312.457 240.43 293.364C240.43 274.271 224.952 258.793 205.859 258.793C186.766 258.793 171.288 274.271 171.288 293.364C171.288 312.457 186.766 327.935 205.859 327.935Z" fill="white"/>
<path d="M205.859 323.133C222.3 323.133 235.628 309.805 235.628 293.364C235.628 276.922 222.3 263.594 205.859 263.594C189.417 263.594 176.089 276.922 176.089 293.364C176.089 309.805 189.417 323.133 205.859 323.133Z" fill="#000037"/>
<path d="M222.02 293.252C221.991 289.019 220.302 284.966 217.316 281.965C214.33 278.964 210.286 277.254 206.052 277.204C201.819 277.154 197.735 278.766 194.679 281.695C191.622 284.624 189.837 288.636 189.707 292.867C189.577 297.099 191.112 301.212 193.983 304.324C196.855 307.435 200.832 309.295 205.06 309.505C209.288 309.714 213.43 308.256 216.595 305.444C219.759 302.632 221.694 298.69 221.983 294.467" stroke="white" stroke-width="6.75045" stroke-linecap="round" stroke-linejoin="round" stroke-dasharray="13.5 13.5"/>
<path d="M205.859 299.387C209.186 299.387 211.882 296.69 211.882 293.364C211.882 290.037 209.186 287.34 205.859 287.34C202.532 287.34 199.835 290.037 199.835 293.364C199.835 296.69 202.532 299.387 205.859 299.387Z" fill="white"/>
<path d="M205.859 296.114C207.378 296.114 208.609 294.883 208.609 293.364C208.609 291.845 207.378 290.613 205.859 290.613C204.34 290.613 203.108 291.845 203.108 293.364C203.108 294.883 204.34 296.114 205.859 296.114Z" fill="#000037"/>
<defs>
<filter id="filter0_f_13_24" x="-11.8441" y="-18.6217" width="272.981" height="151.274" filterUnits="userSpaceOnUse" color-interpolation-filters="sRGB">
<feFlood flood-opacity="0" result="BackgroundImageFix"/>
<feBlend mode="normal" in="SourceGraphic" in2="BackgroundImageFix" result="shape"/>
<feGaussianBlur stdDeviation="0.6275" result="effect1_foregroundBlur_13_24"/>
</filter>
<filter id="filter1_f_13_24" x="60.6515" y="291.58" width="240.61" height="111.805" filterUnits="userSpaceOnUse" color-interpolation-filters="sRGB">
<feFlood flood-opacity="0" result="BackgroundImageFix"/>
<feBlend mode="normal" in="SourceGraphic" in2="BackgroundImageFix" result="shape"/>
<feGaussianBlur stdDeviation="0.6275" result="effect1_foregroundBlur_13_24"/>
</filter>
<clipPath id="clip0_13_24">
<rect width="300" height="400" fill="white"/>
</clipPath>
</defs>
</svg>
