<svg width="300" height="400" viewBox="0 0 300 400" fill="none" xmlns="http://www.w3.org/2000/svg">
<g clip-path="url(#clip0_13_24)">
<path d="M256.103 -0.0786133H39.3916C17.6362 -0.0786133 0 17.5576 0 39.313V355.212C0 376.967 17.6362 394.604 39.3916 394.604H256.103C277.859 394.604 295.495 376.967 295.495 355.212V39.313C295.495 17.5576 277.859 -0.0786133 256.103 -0.0786133Z" fill="#F5F0EB"/>
<mask id="mask0_13_24" style="mask-type:luminance" maskUnits="userSpaceOnUse" x="0" y="-1" width="296" height="396">
<path d="M256.103 -0.0786133H39.3916C17.6362 -0.0786133 0 17.5576 0 39.313V355.212C0 376.967 17.6362 394.604 39.3916 394.604H256.103C277.859 394.604 295.495 376.967 295.495 355.212V39.313C295.495 17.5576 277.859 -0.0786133 256.103 -0.0786133Z" fill="#FF3737"/>
</mask>
<g mask="url(#mask0_13_24)">
<g filter="url(#filter0_f_13_24)">
<path fill-rule="evenodd" clip-rule="evenodd" d="M-4.6963 120.841C-9.50345 88.2683 -16.5893 21.5408 -1.25947 -0.294602C18.7093 -26.0176 229.949 -20.4167 259.309 1.52321C272.013 10.1289 69.2795 10.5944 46.3829 38.7826C24.0199 65.7339 0.640659 163.302 -4.6963 120.841Z" fill="white"/>
</g>
</g>
<mask id="mask1_13_24" style="mask-type:luminance" maskUnits="userSpaceOnUse" x="149" y="268" width="297" height="396">
<path d="M188.961 663H405.672C427.428 663 445.064 645.364 445.064 623.609V307.71C445.064 285.954 427.428 268.318 405.672 268.318H188.961C167.205 268.318 149.569 285.954 149.569 307.71V623.609C149.569 645.364 167.205 663 188.961 663Z" fill="#FF3737"/>
</mask>
<g mask="url(#mask1_13_24)">
<g filter="url(#filter1_f_13_24)">
<path fill-rule="evenodd" clip-rule="evenodd" d="M295.636 295.935C298.912 305.107 305.728 363.348 290.399 385.183C270.43 410.906 74.3007 401.391 62.3656 394.964C51.4597 389.728 238.253 394.906 264.101 360.628C285.366 331.084 290.199 279.7 295.636 295.935Z" fill="black" fill-opacity="0.196078"/>
</g>
</g>
</g>
<path d="M95.7498 163.234C121.066 163.234 141.588 142.711 141.588 117.395C141.588 92.0796 121.066 71.5571 95.7498 71.5571C70.434 71.5571 49.9116 92.0796 49.9116 117.395C49.9116 142.711 70.434 163.234 95.7498 163.234Z" fill="black"/>
<path d="M95.7498 151.966C114.843 151.966 130.321 136.488 130.321 117.395C130.321 98.3024 114.843 82.8245 95.7498 82.8245C76.6568 82.8245 61.1789 98.3024 61.1789 117.395C61.1789 136.488 76.6568 151.966 95.7498 151.966Z" fill="white"/>
<path d="M95.7498 147.165C112.191 147.165 125.52 133.837 125.52 117.395C125.52 100.954 112.191 87.6257 95.7498 87.6257C79.3085 87.6257 65.9802 100.954 65.9802 117.395C65.9802 133.837 79.3085 147.165 95.7498 147.165Z" fill="#000037"/>
<path d="M111.911 117.284C111.882 113.051 110.193 108.998 107.207 105.997C104.221 102.996 100.177 101.286 95.9435 101.236C91.7103 101.185 87.6264 102.798 84.5697 105.727C81.5131 108.656 79.7278 112.668 79.5978 116.899C79.4678 121.131 81.0035 125.244 83.8745 128.355C86.7456 131.467 90.7229 133.327 94.9512 133.536C99.1795 133.746 103.321 132.288 106.486 129.476C109.65 126.664 111.585 122.722 111.874 118.499" stroke="white" stroke-width="6.75045" stroke-linecap="round" stroke-linejoin="round" stroke-dasharray="13.5 13.5"/>
<path d="M95.7498 123.419C99.0767 123.419 101.774 120.722 101.774 117.395C101.774 114.069 99.0767 111.372 95.7498 111.372C92.423 111.372 89.7261 114.069 89.7261 117.395C89.7261 120.722 92.423 123.419 95.7498 123.419Z" fill="white"/>
<path d="M95.7498 120.146C97.269 120.146 98.5006 118.915 98.5006 117.395C98.5006 115.876 97.269 114.645 95.7498 114.645C94.2307 114.645 92.9991 115.876 92.9991 117.395C92.9991 118.915 94.2307 120.146 95.7498 120.146Z" fill="#000037"/>
<path d="M203.838 163.234C229.154 163.234 249.677 142.711 249.677 117.395C249.677 92.0796 229.154 71.5571 203.838 71.5571C178.523 71.5571 158 92.0796 158 117.395C158 142.711 178.523 163.234 203.838 163.234Z" fill="black"/>
<path d="M203.838 151.966C222.931 151.966 238.409 136.488 238.409 117.395C238.409 98.3024 222.931 82.8245 203.838 82.8245C184.745 82.8245 169.267 98.3024 169.267 117.395C169.267 136.488 184.745 151.966 203.838 151.966Z" fill="white"/>
<path d="M203.838 147.165C220.28 147.165 233.608 133.837 233.608 117.395C233.608 100.954 220.28 87.6257 203.838 87.6257C187.397 87.6257 174.069 100.954 174.069 117.395C174.069 133.837 187.397 147.165 203.838 147.165Z" fill="#000037"/>
<path d="M220 117.284C219.971 113.051 218.282 108.998 215.296 105.997C212.31 102.996 208.265 101.286 204.032 101.236C199.799 101.185 195.715 102.798 192.658 105.727C189.602 108.656 187.816 112.668 187.686 116.899C187.556 121.131 189.092 125.244 191.963 128.355C194.834 131.467 198.811 133.327 203.04 133.536C207.268 133.746 211.41 132.288 214.574 129.476C217.739 126.664 219.674 122.722 219.963 118.499" stroke="white" stroke-width="6.75045" stroke-linecap="round" stroke-linejoin="round" stroke-dasharray="13.5 13.5"/>
<path d="M203.838 123.419C207.165 123.419 209.862 120.722 209.862 117.395C209.862 114.069 207.165 111.372 203.838 111.372C200.512 111.372 197.815 114.069 197.815 117.395C197.815 120.722 200.512 123.419 203.838 123.419Z" fill="white"/>
<path d="M203.838 120.146C205.358 120.146 206.589 118.915 206.589 117.395C206.589 115.876 205.358 114.645 203.838 114.645C202.319 114.645 201.088 115.876 201.088 117.395C201.088 118.915 202.319 120.146 203.838 120.146Z" fill="#000037"/>
<path d="M95.7498 328.182C121.066 328.182 141.588 307.659 141.588 282.344C141.588 257.028 121.066 236.505 95.7498 236.505C70.434 236.505 49.9116 257.028 49.9116 282.344C49.9116 307.659 70.434 328.182 95.7498 328.182Z" fill="black"/>
<path d="M95.7498 316.915C114.843 316.915 130.321 301.437 130.321 282.344C130.321 263.251 114.843 247.773 95.7498 247.773C76.6568 247.773 61.1789 263.251 61.1789 282.344C61.1789 301.437 76.6568 316.915 95.7498 316.915Z" fill="white"/>
<path d="M95.7498 312.113C112.191 312.113 125.52 298.785 125.52 282.344C125.52 265.902 112.191 252.574 95.7498 252.574C79.3085 252.574 65.9802 265.902 65.9802 282.344C65.9802 298.785 79.3085 312.113 95.7498 312.113Z" fill="#000037"/>
<path d="M111.911 282.232C111.882 277.999 110.193 273.946 107.207 270.945C104.221 267.944 100.177 266.234 95.9435 266.184C91.7103 266.134 87.6264 267.746 84.5697 270.675C81.5131 273.604 79.7278 277.616 79.5978 281.847C79.4678 286.079 81.0035 290.192 83.8745 293.304C86.7456 296.415 90.7229 298.275 94.9512 298.485C99.1795 298.694 103.321 297.236 106.486 294.424C109.65 291.612 111.585 287.67 111.874 283.447" stroke="white" stroke-width="6.75045" stroke-linecap="round" stroke-linejoin="round" stroke-dasharray="13.5 13.5"/>
<path d="M95.7498 288.367C99.0767 288.367 101.774 285.67 101.774 282.344C101.774 279.017 99.0767 276.32 95.7498 276.32C92.423 276.32 89.7261 279.017 89.7261 282.344C89.7261 285.67 92.423 288.367 95.7498 288.367Z" fill="white"/>
<path d="M95.7498 285.094C97.269 285.094 98.5006 283.863 98.5006 282.344C98.5006 280.825 97.269 279.593 95.7498 279.593C94.2307 279.593 92.9991 280.825 92.9991 282.344C92.9991 283.863 94.2307 285.094 95.7498 285.094Z" fill="#000037"/>
<path d="M203.838 328.182C229.154 328.182 249.677 307.659 249.677 282.344C249.677 257.028 229.154 236.505 203.838 236.505C178.523 236.505 158 257.028 158 282.344C158 307.659 178.523 328.182 203.838 328.182Z" fill="black"/>
<path d="M203.838 316.915C222.931 316.915 238.409 301.437 238.409 282.344C238.409 263.251 222.931 247.773 203.838 247.773C184.745 247.773 169.267 263.251 169.267 282.344C169.267 301.437 184.745 316.915 203.838 316.915Z" fill="white"/>
<path d="M203.838 312.113C220.28 312.113 233.608 298.785 233.608 282.344C233.608 265.902 220.28 252.574 203.838 252.574C187.397 252.574 174.069 265.902 174.069 282.344C174.069 298.785 187.397 312.113 203.838 312.113Z" fill="#000037"/>
<path d="M220 282.232C219.971 277.999 218.282 273.946 215.296 270.945C212.31 267.944 208.265 266.234 204.032 266.184C199.799 266.134 195.715 267.746 192.658 270.675C189.602 273.604 187.816 277.616 187.686 281.847C187.556 286.079 189.092 290.192 191.963 293.304C194.834 296.415 198.811 298.275 203.04 298.485C207.268 298.694 211.41 297.236 214.574 294.424C217.739 291.612 219.674 287.67 219.963 283.447" stroke="white" stroke-width="6.75045" stroke-linecap="round" stroke-linejoin="round" stroke-dasharray="13.5 13.5"/>
<path d="M203.838 288.367C207.165 288.367 209.862 285.67 209.862 282.344C209.862 279.017 207.165 276.32 203.838 276.32C200.512 276.32 197.815 279.017 197.815 282.344C197.815 285.67 200.512 288.367 203.838 288.367Z" fill="white"/>
<path d="M203.838 285.094C205.358 285.094 206.589 283.863 206.589 282.344C206.589 280.825 205.358 279.593 203.838 279.593C202.319 279.593 201.088 280.825 201.088 282.344C201.088 283.863 202.319 285.094 203.838 285.094Z" fill="#000037"/>
<path d="M149.986 246.346C175.302 246.346 195.824 225.823 195.824 200.508C195.824 175.192 175.302 154.669 149.986 154.669C124.67 154.669 104.147 175.192 104.147 200.508C104.147 225.823 124.67 246.346 149.986 246.346Z" fill="black"/>
<path d="M149.986 235.079C169.079 235.079 184.557 219.601 184.557 200.508C184.557 181.415 169.079 165.937 149.986 165.937C130.893 165.937 115.415 181.415 115.415 200.508C115.415 219.601 130.893 235.079 149.986 235.079Z" fill="white"/>
<path d="M149.986 230.277C166.427 230.277 179.755 216.949 179.755 200.508C179.755 184.066 166.427 170.738 149.986 170.738C133.544 170.738 120.216 184.066 120.216 200.508C120.216 216.949 133.544 230.277 149.986 230.277Z" fill="#B93C3C"/>
<path d="M166.147 200.396C166.118 196.163 164.429 192.11 161.443 189.109C158.457 186.108 154.413 184.399 150.179 184.348C145.946 184.298 141.862 185.91 138.806 188.839C135.749 191.768 133.964 195.78 133.834 200.011C133.704 204.243 135.239 208.357 138.11 211.468C140.982 214.579 144.959 216.439 149.187 216.649C153.415 216.858 157.557 215.4 160.722 212.588C163.886 209.776 165.821 205.835 166.11 201.611" stroke="white" stroke-width="6.75045" stroke-linecap="round" stroke-linejoin="round" stroke-dasharray="13.5 13.5"/>
<path d="M149.986 206.531C153.313 206.531 156.009 203.834 156.009 200.508C156.009 197.181 153.313 194.484 149.986 194.484C146.659 194.484 143.962 197.181 143.962 200.508C143.962 203.834 146.659 206.531 149.986 206.531Z" fill="white"/>
<path d="M149.986 203.258C151.505 203.258 152.736 202.027 152.736 200.508C152.736 198.989 151.505 197.757 149.986 197.757C148.467 197.757 147.235 198.989 147.235 200.508C147.235 202.027 148.467 203.258 149.986 203.258Z" fill="#B93C3C"/>
<defs>
<filter id="filter0_f_13_24" x="-11.8441" y="-18.6217" width="272.981" height="151.274" filterUnits="userSpaceOnUse" color-interpolation-filters="sRGB">
<feFlood flood-opacity="0" result="BackgroundImageFix"/>
<feBlend mode="normal" in="SourceGraphic" in2="BackgroundImageFix" result="shape"/>
<feGaussianBlur stdDeviation="0.6275" result="effect1_foregroundBlur_13_24"/>
</filter>
<filter id="filter1_f_13_24" x="60.6515" y="291.58" width="240.61" height="111.805" filterUnits="userSpaceOnUse" color-interpolation-filters="sRGB">
<feFlood flood-opacity="0" result="BackgroundImageFix"/>
<feBlend mode="normal" in="SourceGraphic" in2="BackgroundImageFix" result="shape"/>
<feGaussianBlur stdDeviation="0.6275" result="effect1_foregroundBlur_13_24"/>
</filter>
<clipPath id="clip0_13_24">
<rect width="300" height="400" fill="white"/>
</clipPath>
</defs>
</svg>
