<svg width="300" height="400" viewBox="0 0 300 400" fill="none" xmlns="http://www.w3.org/2000/svg">
<g clip-path="url(#clip0_13_24)">
<path d="M256.103 -0.0786133H39.3916C17.6362 -0.0786133 0 17.5576 0 39.313V355.212C0 376.967 17.6362 394.604 39.3916 394.604H256.103C277.859 394.604 295.495 376.967 295.495 355.212V39.313C295.495 17.5576 277.859 -0.0786133 256.103 -0.0786133Z" fill="#F5F0EB"/>
<mask id="mask0_13_24" style="mask-type:luminance" maskUnits="userSpaceOnUse" x="0" y="-1" width="296" height="396">
<path d="M256.103 -0.0786133H39.3916C17.6362 -0.0786133 0 17.5576 0 39.313V355.212C0 376.967 17.6362 394.604 39.3916 394.604H256.103C277.859 394.604 295.495 376.967 295.495 355.212V39.313C295.495 17.5576 277.859 -0.0786133 256.103 -0.0786133Z" fill="#FF3737"/>
</mask>
<g mask="url(#mask0_13_24)">
<g filter="url(#filter0_f_13_24)">
<path fill-rule="evenodd" clip-rule="evenodd" d="M-4.6963 120.841C-9.50345 88.2683 -16.5893 21.5408 -1.25947 -0.294602C18.7093 -26.0176 229.949 -20.4167 259.309 1.52321C272.013 10.1289 69.2795 10.5944 46.3829 38.7826C24.0199 65.7339 0.640659 163.302 -4.6963 120.841Z" fill="white"/>
</g>
</g>
<mask id="mask1_13_24" style="mask-type:luminance" maskUnits="userSpaceOnUse" x="149" y="268" width="297" height="396">
<path d="M188.961 663H405.672C427.428 663 445.064 645.364 445.064 623.609V307.71C445.064 285.954 427.428 268.318 405.672 268.318H188.961C167.205 268.318 149.569 285.954 149.569 307.71V623.609C149.569 645.364 167.205 663 188.961 663Z" fill="#FF3737"/>
</mask>
<g mask="url(#mask1_13_24)">
<g filter="url(#filter1_f_13_24)">
<path fill-rule="evenodd" clip-rule="evenodd" d="M295.636 295.935C298.912 305.107 305.728 363.348 290.399 385.183C270.43 410.906 74.3007 401.391 62.3656 394.964C51.4597 389.728 238.253 394.906 264.101 360.628C285.366 331.084 290.199 279.7 295.636 295.935Z" fill="black" fill-opacity="0.196078"/>
</g>
</g>
</g>
<path d="M112.841 151.397C138.157 151.397 158.679 130.875 158.679 105.559C158.679 80.2432 138.157 59.7207 112.841 59.7207C87.5253 59.7207 67.0029 80.2432 67.0029 105.559C67.0029 130.875 87.5253 151.397 112.841 151.397Z" fill="black"/>
<path d="M112.926 340.161C138.242 340.161 158.765 319.638 158.765 294.322C158.765 269.007 138.242 248.484 112.926 248.484C87.6106 248.484 67.0881 269.007 67.0881 294.322C67.0881 319.638 87.6106 340.161 112.926 340.161Z" fill="black"/>
<path d="M187.124 340.161C212.439 340.161 232.962 319.638 232.962 294.322C232.962 269.007 212.439 248.484 187.124 248.484C161.808 248.484 141.285 269.007 141.285 294.322C141.285 319.638 161.808 340.161 187.124 340.161Z" fill="black"/>
<path d="M187.124 274.665C212.439 274.665 232.962 254.143 232.962 228.827C232.962 203.511 212.439 182.989 187.124 182.989C161.808 182.989 141.285 203.511 141.285 228.827C141.285 254.143 161.808 274.665 187.124 274.665Z" fill="black"/>
<path d="M112.926 274.665C138.242 274.665 158.765 254.143 158.765 228.827C158.765 203.511 138.242 182.989 112.926 182.989C87.6106 182.989 67.0881 203.511 67.0881 228.827C67.0881 254.143 87.6106 274.665 112.926 274.665Z" fill="black"/>
<path d="M112.926 263.398C132.019 263.398 147.497 247.92 147.497 228.827C147.497 209.734 132.019 194.256 112.926 194.256C93.8333 194.256 78.3554 209.734 78.3554 228.827C78.3554 247.92 93.8333 263.398 112.926 263.398Z" fill="white"/>
<path d="M112.926 258.596C129.368 258.596 142.696 245.268 142.696 228.827C142.696 212.385 129.368 199.057 112.926 199.057C96.485 199.057 83.1567 212.385 83.1567 228.827C83.1567 245.268 96.485 258.596 112.926 258.596Z" fill="#B93C3C"/>
<path d="M129.088 228.715C129.059 224.482 127.37 220.429 124.384 217.428C121.398 214.427 117.353 212.717 113.12 212.667C108.887 212.617 104.803 214.229 101.746 217.158C98.6896 220.087 96.9043 224.099 96.7743 228.33C96.6443 232.562 98.18 236.675 101.051 239.787C103.922 242.898 107.899 244.758 112.128 244.968C116.356 245.177 120.498 243.719 123.662 240.907C126.827 238.095 128.762 234.153 129.051 229.93" stroke="white" stroke-width="6.75045" stroke-linecap="round" stroke-linejoin="round" stroke-dasharray="13.5 13.5"/>
<path d="M112.926 234.85C116.253 234.85 118.95 232.154 118.95 228.827C118.95 225.5 116.253 222.803 112.926 222.803C109.6 222.803 106.903 225.5 106.903 228.827C106.903 232.154 109.6 234.85 112.926 234.85Z" fill="white"/>
<path d="M112.926 231.577C114.446 231.577 115.677 230.346 115.677 228.827C115.677 227.307 114.446 226.076 112.926 226.076C111.407 226.076 110.176 227.307 110.176 228.827C110.176 230.346 111.407 231.577 112.926 231.577Z" fill="#B93C3C"/>
<path d="M187.124 263.398C206.217 263.398 221.694 247.92 221.694 228.827C221.694 209.734 206.217 194.256 187.124 194.256C168.031 194.256 152.553 209.734 152.553 228.827C152.553 247.92 168.031 263.398 187.124 263.398Z" fill="white"/>
<path d="M187.124 258.596C203.565 258.596 216.893 245.268 216.893 228.827C216.893 212.385 203.565 199.057 187.124 199.057C170.682 199.057 157.354 212.385 157.354 228.827C157.354 245.268 170.682 258.596 187.124 258.596Z" fill="#B93C3C"/>
<path d="M203.285 228.715C203.256 224.482 201.567 220.429 198.581 217.428C195.595 214.427 191.55 212.717 187.317 212.667C183.084 212.617 179 214.229 175.943 217.158C172.887 220.087 171.102 224.099 170.972 228.33C170.842 232.562 172.377 236.675 175.248 239.787C178.119 242.898 182.097 244.758 186.325 244.968C190.553 245.177 194.695 243.719 197.859 240.907C201.024 238.095 202.959 234.153 203.248 229.93" stroke="white" stroke-width="6.75045" stroke-linecap="round" stroke-linejoin="round" stroke-dasharray="13.5 13.5"/>
<path d="M187.124 234.85C190.45 234.85 193.147 232.154 193.147 228.827C193.147 225.5 190.45 222.803 187.124 222.803C183.797 222.803 181.1 225.5 181.1 228.827C181.1 232.154 183.797 234.85 187.124 234.85Z" fill="white"/>
<path d="M187.124 231.577C188.643 231.577 189.874 230.346 189.874 228.827C189.874 227.307 188.643 226.076 187.124 226.076C185.604 226.076 184.373 227.307 184.373 228.827C184.373 230.346 185.604 231.577 187.124 231.577Z" fill="#B93C3C"/>
<path d="M112.926 328.893C132.019 328.893 147.497 313.415 147.497 294.322C147.497 275.229 132.019 259.751 112.926 259.751C93.8333 259.751 78.3554 275.229 78.3554 294.322C78.3554 313.415 93.8333 328.893 112.926 328.893Z" fill="white"/>
<path d="M112.926 324.092C129.368 324.092 142.696 310.764 142.696 294.322C142.696 277.881 129.368 264.553 112.926 264.553C96.485 264.553 83.1567 277.881 83.1567 294.322C83.1567 310.764 96.485 324.092 112.926 324.092Z" fill="#B93C3C"/>
<path d="M129.088 294.211C129.059 289.978 127.37 285.925 124.384 282.924C121.398 279.923 117.353 278.213 113.12 278.163C108.887 278.112 104.803 279.725 101.746 282.654C98.6896 285.583 96.9043 289.595 96.7743 293.826C96.6443 298.058 98.18 302.171 101.051 305.282C103.922 308.394 107.899 310.254 112.128 310.463C116.356 310.673 120.498 309.215 123.662 306.403C126.827 303.591 128.762 299.649 129.051 295.426" stroke="white" stroke-width="6.75045" stroke-linecap="round" stroke-linejoin="round" stroke-dasharray="13.5 13.5"/>
<path d="M112.926 300.346C116.253 300.346 118.95 297.649 118.95 294.323C118.95 290.996 116.253 288.299 112.926 288.299C109.6 288.299 106.903 290.996 106.903 294.323C106.903 297.649 109.6 300.346 112.926 300.346Z" fill="white"/>
<path d="M112.926 297.073C114.446 297.073 115.677 295.842 115.677 294.322C115.677 292.803 114.446 291.572 112.926 291.572C111.407 291.572 110.176 292.803 110.176 294.322C110.176 295.842 111.407 297.073 112.926 297.073Z" fill="#B93C3C"/>
<path d="M187.124 328.893C206.217 328.893 221.694 313.415 221.694 294.322C221.694 275.229 206.217 259.751 187.124 259.751C168.031 259.751 152.553 275.229 152.553 294.322C152.553 313.415 168.031 328.893 187.124 328.893Z" fill="white"/>
<path d="M187.124 324.092C203.565 324.092 216.893 310.764 216.893 294.322C216.893 277.881 203.565 264.553 187.124 264.553C170.682 264.553 157.354 277.881 157.354 294.322C157.354 310.764 170.682 324.092 187.124 324.092Z" fill="#B93C3C"/>
<path d="M203.285 294.211C203.256 289.978 201.567 285.925 198.581 282.924C195.595 279.923 191.55 278.213 187.317 278.163C183.084 278.112 179 279.725 175.943 282.654C172.887 285.583 171.102 289.595 170.972 293.826C170.842 298.058 172.377 302.171 175.248 305.282C178.119 308.394 182.097 310.254 186.325 310.463C190.553 310.673 194.695 309.215 197.859 306.403C201.024 303.591 202.959 299.649 203.248 295.426" stroke="white" stroke-width="6.75045" stroke-linecap="round" stroke-linejoin="round" stroke-dasharray="13.5 13.5"/>
<path d="M187.124 300.346C190.45 300.346 193.147 297.649 193.147 294.323C193.147 290.996 190.45 288.299 187.124 288.299C183.797 288.299 181.1 290.996 181.1 294.323C181.1 297.649 183.797 300.346 187.124 300.346Z" fill="white"/>
<path d="M187.124 297.073C188.643 297.073 189.874 295.842 189.874 294.322C189.874 292.803 188.643 291.572 187.124 291.572C185.604 291.572 184.373 292.803 184.373 294.322C184.373 295.842 185.604 297.073 187.124 297.073Z" fill="#B93C3C"/>
<path d="M187.22 151.397C212.536 151.397 233.058 130.875 233.058 105.559C233.058 80.2432 212.536 59.7207 187.22 59.7207C161.904 59.7207 141.382 80.2432 141.382 105.559C141.382 130.875 161.904 151.397 187.22 151.397Z" fill="black"/>
<path d="M187.22 140.13C206.313 140.13 221.791 124.652 221.791 105.559C221.791 86.466 206.313 70.988 187.22 70.988C168.127 70.988 152.649 86.466 152.649 105.559C152.649 124.652 168.127 140.13 187.22 140.13Z" fill="white"/>
<path d="M187.22 135.329C203.661 135.329 216.99 122 216.99 105.559C216.99 89.1176 203.661 75.7893 187.22 75.7893C170.779 75.7893 157.45 89.1176 157.45 105.559C157.45 122 170.779 135.329 187.22 135.329Z" fill="#000037"/>
<path d="M203.381 105.448C203.352 101.214 201.663 97.1614 198.677 94.1603C195.691 91.1593 191.647 89.4498 187.414 89.3994C183.18 89.349 179.096 90.9617 176.04 93.8907C172.983 96.8198 171.198 100.831 171.068 105.063C170.938 109.294 172.474 113.408 175.345 116.519C178.216 119.63 182.193 121.49 186.421 121.7C190.65 121.91 194.791 120.452 197.956 117.639C201.12 114.827 203.055 110.886 203.344 106.662" stroke="white" stroke-width="6.75045" stroke-linecap="round" stroke-linejoin="round" stroke-dasharray="13.5 13.5"/>
<path d="M187.22 111.583C190.547 111.583 193.244 108.886 193.244 105.559C193.244 102.232 190.547 99.5352 187.22 99.5352C183.893 99.5352 181.196 102.232 181.196 105.559C181.196 108.886 183.893 111.583 187.22 111.583Z" fill="white"/>
<path d="M187.22 108.31C188.739 108.31 189.971 107.078 189.971 105.559C189.971 104.04 188.739 102.808 187.22 102.808C185.701 102.808 184.469 104.04 184.469 105.559C184.469 107.078 185.701 108.31 187.22 108.31Z" fill="#000037"/>
<path d="M112.841 140.13C131.934 140.13 147.412 124.652 147.412 105.559C147.412 86.466 131.934 70.988 112.841 70.988C93.7481 70.988 78.2702 86.466 78.2702 105.559C78.2702 124.652 93.7481 140.13 112.841 140.13Z" fill="white"/>
<path d="M112.841 135.329C129.282 135.329 142.611 122 142.611 105.559C142.611 89.1176 129.282 75.7893 112.841 75.7893C96.3998 75.7893 83.0715 89.1176 83.0715 105.559C83.0715 122 96.3998 135.329 112.841 135.329Z" fill="#000037"/>
<path d="M129.003 105.447C128.974 101.214 127.284 97.1611 124.298 94.1601C121.312 91.1591 117.268 89.4496 113.035 89.3992C108.802 89.3487 104.718 90.9614 101.661 93.8904C98.6044 96.8195 96.8191 100.831 96.6891 105.063C96.5591 109.294 98.0948 113.408 100.966 116.519C103.837 119.63 107.814 121.49 112.042 121.7C116.271 121.909 120.412 120.451 123.577 117.639C126.742 114.827 128.676 110.886 128.965 106.662" stroke="white" stroke-width="6.75045" stroke-linecap="round" stroke-linejoin="round" stroke-dasharray="13.5 13.5"/>
<path d="M112.841 111.583C116.168 111.583 118.865 108.886 118.865 105.559C118.865 102.232 116.168 99.5352 112.841 99.5352C109.514 99.5352 106.817 102.232 106.817 105.559C106.817 108.886 109.514 111.583 112.841 111.583Z" fill="white"/>
<path d="M112.841 108.31C114.36 108.31 115.592 107.078 115.592 105.559C115.592 104.04 114.36 102.808 112.841 102.808C111.322 102.808 110.09 104.04 110.09 105.559C110.09 107.078 111.322 108.31 112.841 108.31Z" fill="#000037"/>
<defs>
<filter id="filter0_f_13_24" x="-11.8441" y="-18.6217" width="272.981" height="151.274" filterUnits="userSpaceOnUse" color-interpolation-filters="sRGB">
<feFlood flood-opacity="0" result="BackgroundImageFix"/>
<feBlend mode="normal" in="SourceGraphic" in2="BackgroundImageFix" result="shape"/>
<feGaussianBlur stdDeviation="0.6275" result="effect1_foregroundBlur_13_24"/>
</filter>
<filter id="filter1_f_13_24" x="60.6515" y="291.58" width="240.61" height="111.805" filterUnits="userSpaceOnUse" color-interpolation-filters="sRGB">
<feFlood flood-opacity="0" result="BackgroundImageFix"/>
<feBlend mode="normal" in="SourceGraphic" in2="BackgroundImageFix" result="shape"/>
<feGaussianBlur stdDeviation="0.6275" result="effect1_foregroundBlur_13_24"/>
</filter>
<clipPath id="clip0_13_24">
<rect width="300" height="400" fill="white"/>
</clipPath>
</defs>
</svg>
