<svg width="300" height="400" viewBox="0 0 300 400" fill="none" xmlns="http://www.w3.org/2000/svg">
<g clip-path="url(#clip0_13_24)">
<path d="M256.103 -0.0786133H39.3916C17.6362 -0.0786133 0 17.5576 0 39.313V355.212C0 376.967 17.6362 394.604 39.3916 394.604H256.103C277.859 394.604 295.495 376.967 295.495 355.212V39.313C295.495 17.5576 277.859 -0.0786133 256.103 -0.0786133Z" fill="#F5F0EB"/>
<mask id="mask0_13_24" style="mask-type:luminance" maskUnits="userSpaceOnUse" x="0" y="-1" width="296" height="396">
<path d="M256.103 -0.0786133H39.3916C17.6362 -0.0786133 0 17.5576 0 39.313V355.212C0 376.967 17.6362 394.604 39.3916 394.604H256.103C277.859 394.604 295.495 376.967 295.495 355.212V39.313C295.495 17.5576 277.859 -0.0786133 256.103 -0.0786133Z" fill="#FF3737"/>
</mask>
<g mask="url(#mask0_13_24)">
<g filter="url(#filter0_f_13_24)">
<path fill-rule="evenodd" clip-rule="evenodd" d="M-4.6963 120.841C-9.50345 88.2683 -16.5893 21.5408 -1.25947 -0.294602C18.7093 -26.0176 229.949 -20.4167 259.309 1.52321C272.013 10.1289 69.2795 10.5944 46.3829 38.7826C24.0199 65.7339 0.640659 163.302 -4.6963 120.841Z" fill="white"/>
</g>
</g>
<mask id="mask1_13_24" style="mask-type:luminance" maskUnits="userSpaceOnUse" x="149" y="268" width="297" height="396">
<path d="M188.961 663H405.672C427.428 663 445.064 645.364 445.064 623.609V307.71C445.064 285.954 427.428 268.318 405.672 268.318H188.961C167.205 268.318 149.569 285.954 149.569 307.71V623.609C149.569 645.364 167.205 663 188.961 663Z" fill="#FF3737"/>
</mask>
<g mask="url(#mask1_13_24)">
<g filter="url(#filter1_f_13_24)">
<path fill-rule="evenodd" clip-rule="evenodd" d="M295.636 295.935C298.912 305.107 305.728 363.348 290.399 385.183C270.43 410.906 74.3007 401.391 62.3656 394.964C51.4597 389.728 238.253 394.906 264.101 360.628C285.366 331.084 290.199 279.7 295.636 295.935Z" fill="black" fill-opacity="0.196078"/>
</g>
</g>
</g>
<path d="M112.926 347.698C138.242 347.698 158.765 327.176 158.765 301.86C158.765 276.544 138.242 256.022 112.926 256.022C87.6106 256.022 67.0881 276.544 67.0881 301.86C67.0881 327.176 87.6106 347.698 112.926 347.698Z" fill="black"/>
<path d="M187.124 347.698C212.439 347.698 232.962 327.176 232.962 301.86C232.962 276.544 212.439 256.022 187.124 256.022C161.808 256.022 141.285 276.544 141.285 301.86C141.285 327.176 161.808 347.698 187.124 347.698Z" fill="black"/>
<path d="M187.124 282.203C212.439 282.203 232.962 261.68 232.962 236.364C232.962 211.049 212.439 190.526 187.124 190.526C161.808 190.526 141.285 211.049 141.285 236.364C141.285 261.68 161.808 282.203 187.124 282.203Z" fill="black"/>
<path d="M211.645 220.283C236.961 220.283 257.483 199.76 257.483 174.444C257.483 149.129 236.961 128.606 211.645 128.606C186.329 128.606 165.807 149.129 165.807 174.444C165.807 199.76 186.329 220.283 211.645 220.283Z" fill="black"/>
<path d="M150.019 182.066C175.335 182.066 195.858 161.543 195.858 136.228C195.858 110.912 175.335 90.3894 150.019 90.3894C124.704 90.3894 104.181 110.912 104.181 136.228C104.181 161.543 124.704 182.066 150.019 182.066Z" fill="black"/>
<path d="M150.019 170.799C169.112 170.799 184.59 155.321 184.59 136.228C184.59 117.135 169.112 101.657 150.019 101.657C130.926 101.657 115.448 117.135 115.448 136.228C115.448 155.321 130.926 170.799 150.019 170.799Z" fill="white"/>
<path d="M150.019 165.997C166.461 165.997 179.789 152.669 179.789 136.228C179.789 119.786 166.461 106.458 150.019 106.458C133.578 106.458 120.25 119.786 120.25 136.228C120.25 152.669 133.578 165.997 150.019 165.997Z" fill="#000037"/>
<path d="M166.181 136.116C166.152 131.883 164.463 127.83 161.477 124.829C158.491 121.828 154.446 120.119 150.213 120.068C145.98 120.018 141.896 121.63 138.839 124.559C135.783 127.488 133.997 131.5 133.867 135.731C133.737 139.963 135.273 144.076 138.144 147.188C141.015 150.299 144.992 152.159 149.221 152.369C153.449 152.578 157.591 151.12 160.755 148.308C163.92 145.496 165.855 141.554 166.144 137.331" stroke="white" stroke-width="6.75045" stroke-linecap="round" stroke-linejoin="round" stroke-dasharray="13.5 13.5"/>
<path d="M150.019 142.251C153.346 142.251 156.043 139.554 156.043 136.228C156.043 132.901 153.346 130.204 150.019 130.204C146.692 130.204 143.996 132.901 143.996 136.228C143.996 139.554 146.692 142.251 150.019 142.251Z" fill="white"/>
<path d="M150.019 138.978C151.538 138.978 152.77 137.747 152.77 136.228C152.77 134.709 151.538 133.477 150.019 133.477C148.5 133.477 147.269 134.709 147.269 136.228C147.269 137.747 148.5 138.978 150.019 138.978Z" fill="#000037"/>
<path d="M150.019 182.066C175.335 182.066 195.858 161.543 195.858 136.228C195.858 110.912 175.335 90.3894 150.019 90.3894C124.704 90.3894 104.181 110.912 104.181 136.228C104.181 161.543 124.704 182.066 150.019 182.066Z" fill="black"/>
<path d="M112.926 282.203C138.242 282.203 158.765 261.68 158.765 236.364C158.765 211.049 138.242 190.526 112.926 190.526C87.6106 190.526 67.0881 211.049 67.0881 236.364C67.0881 261.68 87.6106 282.203 112.926 282.203Z" fill="black"/>
<path d="M112.926 270.935C132.019 270.935 147.497 255.458 147.497 236.365C147.497 217.271 132.019 201.793 112.926 201.793C93.8333 201.793 78.3554 217.271 78.3554 236.365C78.3554 255.458 93.8333 270.935 112.926 270.935Z" fill="white"/>
<path d="M112.926 266.134C129.368 266.134 142.696 252.806 142.696 236.364C142.696 219.923 129.368 206.595 112.926 206.595C96.485 206.595 83.1567 219.923 83.1567 236.364C83.1567 252.806 96.485 266.134 112.926 266.134Z" fill="#B93C3C"/>
<path d="M129.088 236.253C129.059 232.019 127.37 227.967 124.384 224.966C121.398 221.965 117.353 220.255 113.12 220.205C108.887 220.154 104.803 221.767 101.746 224.696C98.6896 227.625 96.9044 231.636 96.7744 235.868C96.6443 240.099 98.18 244.213 101.051 247.324C103.922 250.435 107.899 252.296 112.128 252.505C116.356 252.715 120.498 251.257 123.662 248.445C126.827 245.633 128.762 241.691 129.051 237.467" stroke="white" stroke-width="6.75045" stroke-linecap="round" stroke-linejoin="round" stroke-dasharray="13.5 13.5"/>
<path d="M112.926 242.388C116.253 242.388 118.95 239.691 118.95 236.364C118.95 233.038 116.253 230.341 112.926 230.341C109.6 230.341 106.903 233.038 106.903 236.364C106.903 239.691 109.6 242.388 112.926 242.388Z" fill="white"/>
<path d="M112.926 239.115C114.446 239.115 115.677 237.883 115.677 236.364C115.677 234.845 114.446 233.614 112.926 233.614C111.407 233.614 110.176 234.845 110.176 236.364C110.176 237.883 111.407 239.115 112.926 239.115Z" fill="#B93C3C"/>
<path d="M88.3432 143.816C113.659 143.816 134.181 123.293 134.181 97.9777C134.181 72.6619 113.659 52.1394 88.3432 52.1394C63.0274 52.1394 42.5049 72.6619 42.5049 97.9777C42.5049 123.293 63.0274 143.816 88.3432 143.816Z" fill="black"/>
<path d="M88.3432 132.549C107.436 132.549 122.914 117.071 122.914 97.9776C122.914 78.8846 107.436 63.4067 88.3432 63.4067C69.2502 63.4067 53.7722 78.8846 53.7722 97.9776C53.7722 117.071 69.2502 132.549 88.3432 132.549Z" fill="white"/>
<path d="M88.3432 127.747C104.785 127.747 118.113 114.419 118.113 97.9777C118.113 81.5363 104.785 68.208 88.3432 68.208C71.9019 68.208 58.5735 81.5363 58.5735 97.9777C58.5735 114.419 71.9019 127.747 88.3432 127.747Z" fill="#000037"/>
<path d="M104.505 97.8661C104.476 93.6327 102.786 89.5799 99.8004 86.5789C96.8144 83.5778 92.77 81.8682 88.5368 81.8178C84.3036 81.7674 80.2197 83.3801 77.163 86.3091C74.1064 89.2382 72.3212 93.2497 72.1912 97.4812C72.0612 101.713 73.5968 105.826 76.4679 108.938C79.339 112.049 83.3162 113.909 87.5445 114.118C91.7728 114.328 95.9145 112.87 99.0791 110.058C102.244 107.246 104.178 103.304 104.467 99.0806" stroke="white" stroke-width="6.75045" stroke-linecap="round" stroke-linejoin="round" stroke-dasharray="13.5 13.5"/>
<path d="M88.3432 104.001C91.67 104.001 94.3669 101.304 94.3669 97.9777C94.3669 94.6508 91.67 91.9539 88.3432 91.9539C85.0164 91.9539 82.3195 94.6508 82.3195 97.9777C82.3195 101.304 85.0164 104.001 88.3432 104.001Z" fill="white"/>
<path d="M88.3432 100.728C89.8624 100.728 91.0939 99.4968 91.0939 97.9776C91.0939 96.4584 89.8624 95.2268 88.3432 95.2268C86.824 95.2268 85.5925 96.4584 85.5925 97.9776C85.5925 99.4968 86.824 100.728 88.3432 100.728Z" fill="#000037"/>
<path d="M150.019 170.799C169.112 170.799 184.59 155.321 184.59 136.228C184.59 117.135 169.112 101.657 150.019 101.657C130.926 101.657 115.448 117.135 115.448 136.228C115.448 155.321 130.926 170.799 150.019 170.799Z" fill="white"/>
<path d="M150.019 165.997C166.461 165.997 179.789 152.669 179.789 136.228C179.789 119.786 166.461 106.458 150.019 106.458C133.578 106.458 120.25 119.786 120.25 136.228C120.25 152.669 133.578 165.997 150.019 165.997Z" fill="#000037"/>
<path d="M166.181 136.116C166.152 131.883 164.463 127.83 161.477 124.829C158.49 121.828 154.446 120.118 150.213 120.068C145.98 120.017 141.896 121.63 138.839 124.559C135.783 127.488 133.997 131.5 133.867 135.731C133.737 139.963 135.273 144.076 138.144 147.187C141.015 150.299 144.992 152.159 149.221 152.368C153.449 152.578 157.591 151.12 160.755 148.308C163.92 145.496 165.855 141.554 166.144 137.331" stroke="white" stroke-width="6.75045" stroke-linecap="round" stroke-linejoin="round" stroke-dasharray="13.5 13.5"/>
<path d="M150.019 142.251C153.346 142.251 156.043 139.554 156.043 136.228C156.043 132.901 153.346 130.204 150.019 130.204C146.692 130.204 143.996 132.901 143.996 136.228C143.996 139.554 146.692 142.251 150.019 142.251Z" fill="white"/>
<path d="M150.019 138.978C151.538 138.978 152.77 137.747 152.77 136.228C152.77 134.708 151.538 133.477 150.019 133.477C148.5 133.477 147.269 134.708 147.269 136.228C147.269 137.747 148.5 138.978 150.019 138.978Z" fill="#000037"/>
<path d="M211.645 209.015C230.738 209.015 246.216 193.537 246.216 174.444C246.216 155.351 230.738 139.874 211.645 139.874C192.552 139.874 177.074 155.351 177.074 174.444C177.074 193.537 192.552 209.015 211.645 209.015Z" fill="white"/>
<path d="M211.645 204.214C228.086 204.214 241.415 190.886 241.415 174.444C241.415 158.003 228.086 144.675 211.645 144.675C195.204 144.675 181.875 158.003 181.875 174.444C181.875 190.886 195.204 204.214 211.645 204.214Z" fill="#000037"/>
<path d="M227.807 174.333C227.777 170.1 226.088 166.047 223.102 163.046C220.116 160.045 216.072 158.335 211.839 158.285C207.605 158.234 203.521 159.847 200.465 162.776C197.408 165.705 195.623 169.717 195.493 173.948C195.363 178.18 196.899 182.293 199.77 185.404C202.641 188.516 206.618 190.376 210.846 190.585C215.075 190.795 219.216 189.337 222.381 186.525C225.545 183.713 227.48 179.771 227.769 175.548" stroke="white" stroke-width="6.75045" stroke-linecap="round" stroke-linejoin="round" stroke-dasharray="13.5 13.5"/>
<path d="M211.645 180.468C214.972 180.468 217.669 177.771 217.669 174.444C217.669 171.118 214.972 168.421 211.645 168.421C208.318 168.421 205.621 171.118 205.621 174.444C205.621 177.771 208.318 180.468 211.645 180.468Z" fill="white"/>
<path d="M211.645 177.195C213.164 177.195 214.396 175.964 214.396 174.445C214.396 172.925 213.164 171.694 211.645 171.694C210.126 171.694 208.894 172.925 208.894 174.445C208.894 175.964 210.126 177.195 211.645 177.195Z" fill="#000037"/>
<path d="M187.124 270.935C206.217 270.935 221.694 255.458 221.694 236.365C221.694 217.271 206.217 201.793 187.124 201.793C168.031 201.793 152.553 217.271 152.553 236.365C152.553 255.458 168.031 270.935 187.124 270.935Z" fill="white"/>
<path d="M187.124 266.134C203.565 266.134 216.893 252.806 216.893 236.364C216.893 219.923 203.565 206.595 187.124 206.595C170.682 206.595 157.354 219.923 157.354 236.364C157.354 252.806 170.682 266.134 187.124 266.134Z" fill="#B93C3C"/>
<path d="M203.285 236.253C203.256 232.019 201.567 227.966 198.581 224.965C195.595 221.964 191.55 220.255 187.317 220.204C183.084 220.154 179 221.767 175.943 224.696C172.887 227.625 171.101 231.636 170.972 235.868C170.842 240.099 172.377 244.213 175.248 247.324C178.119 250.435 182.097 252.295 186.325 252.505C190.553 252.714 194.695 251.257 197.859 248.444C201.024 245.632 202.959 241.691 203.248 237.467" stroke="white" stroke-width="6.75045" stroke-linecap="round" stroke-linejoin="round" stroke-dasharray="13.5 13.5"/>
<path d="M187.124 242.388C190.45 242.388 193.147 239.691 193.147 236.364C193.147 233.038 190.45 230.341 187.124 230.341C183.797 230.341 181.1 233.038 181.1 236.364C181.1 239.691 183.797 242.388 187.124 242.388Z" fill="white"/>
<path d="M187.124 239.115C188.643 239.115 189.874 237.883 189.874 236.364C189.874 234.845 188.643 233.614 187.124 233.614C185.604 233.614 184.373 234.845 184.373 236.364C184.373 237.883 185.604 239.115 187.124 239.115Z" fill="#B93C3C"/>
<path d="M112.926 336.431C132.019 336.431 147.497 320.953 147.497 301.86C147.497 282.767 132.019 267.289 112.926 267.289C93.8333 267.289 78.3554 282.767 78.3554 301.86C78.3554 320.953 93.8333 336.431 112.926 336.431Z" fill="white"/>
<path d="M112.926 331.63C129.368 331.63 142.696 318.301 142.696 301.86C142.696 285.419 129.368 272.09 112.926 272.09C96.485 272.09 83.1567 285.419 83.1567 301.86C83.1567 318.301 96.485 331.63 112.926 331.63Z" fill="#B93C3C"/>
<path d="M129.088 301.749C129.059 297.515 127.37 293.462 124.384 290.461C121.398 287.46 117.353 285.751 113.12 285.7C108.887 285.65 104.803 287.263 101.746 290.192C98.6896 293.121 96.9044 297.132 96.7744 301.364C96.6444 305.595 98.18 309.709 101.051 312.82C103.922 315.931 107.899 317.791 112.128 318.001C116.356 318.211 120.498 316.753 123.662 313.941C126.827 311.128 128.762 307.187 129.051 302.963" stroke="white" stroke-width="6.75045" stroke-linecap="round" stroke-linejoin="round" stroke-dasharray="13.5 13.5"/>
<path d="M112.926 307.884C116.253 307.884 118.95 305.187 118.95 301.86C118.95 298.533 116.253 295.836 112.926 295.836C109.6 295.836 106.903 298.533 106.903 301.86C106.903 305.187 109.6 307.884 112.926 307.884Z" fill="white"/>
<path d="M112.926 304.611C114.446 304.611 115.677 303.379 115.677 301.86C115.677 300.341 114.446 299.109 112.926 299.109C111.407 299.109 110.176 300.341 110.176 301.86C110.176 303.379 111.407 304.611 112.926 304.611Z" fill="#B93C3C"/>
<path d="M187.124 336.431C206.217 336.431 221.694 320.953 221.694 301.86C221.694 282.767 206.217 267.289 187.124 267.289C168.031 267.289 152.553 282.767 152.553 301.86C152.553 320.953 168.031 336.431 187.124 336.431Z" fill="white"/>
<path d="M187.124 331.63C203.565 331.63 216.893 318.301 216.893 301.86C216.893 285.419 203.565 272.09 187.124 272.09C170.682 272.09 157.354 285.419 157.354 301.86C157.354 318.301 170.682 331.63 187.124 331.63Z" fill="#B93C3C"/>
<path d="M203.285 301.749C203.256 297.515 201.567 293.462 198.581 290.461C195.595 287.46 191.55 285.751 187.317 285.7C183.084 285.65 179 287.263 175.943 290.192C172.887 293.121 171.101 297.132 170.972 301.364C170.842 305.595 172.377 309.709 175.248 312.82C178.119 315.931 182.097 317.791 186.325 318.001C190.553 318.211 194.695 316.753 197.859 313.941C201.024 311.128 202.959 307.187 203.248 302.963" stroke="white" stroke-width="6.75045" stroke-linecap="round" stroke-linejoin="round" stroke-dasharray="13.5 13.5"/>
<path d="M187.124 307.884C190.45 307.884 193.147 305.187 193.147 301.86C193.147 298.533 190.45 295.836 187.124 295.836C183.797 295.836 181.1 298.533 181.1 301.86C181.1 305.187 183.797 307.884 187.124 307.884Z" fill="white"/>
<path d="M187.124 304.611C188.643 304.611 189.874 303.379 189.874 301.86C189.874 300.341 188.643 299.109 187.124 299.109C185.604 299.109 184.373 300.341 184.373 301.86C184.373 303.379 185.604 304.611 187.124 304.611Z" fill="#B93C3C"/>
<defs>
<filter id="filter0_f_13_24" x="-11.8441" y="-18.6217" width="272.981" height="151.274" filterUnits="userSpaceOnUse" color-interpolation-filters="sRGB">
<feFlood flood-opacity="0" result="BackgroundImageFix"/>
<feBlend mode="normal" in="SourceGraphic" in2="BackgroundImageFix" result="shape"/>
<feGaussianBlur stdDeviation="0.6275" result="effect1_foregroundBlur_13_24"/>
</filter>
<filter id="filter1_f_13_24" x="60.6515" y="291.58" width="240.61" height="111.805" filterUnits="userSpaceOnUse" color-interpolation-filters="sRGB">
<feFlood flood-opacity="0" result="BackgroundImageFix"/>
<feBlend mode="normal" in="SourceGraphic" in2="BackgroundImageFix" result="shape"/>
<feGaussianBlur stdDeviation="0.6275" result="effect1_foregroundBlur_13_24"/>
</filter>
<clipPath id="clip0_13_24">
<rect width="300" height="400" fill="white"/>
</clipPath>
</defs>
</svg>
