<svg width="300" height="400" viewBox="0 0 300 400" fill="none" xmlns="http://www.w3.org/2000/svg">
<g clip-path="url(#clip0_13_24)">
<path d="M256.103 -0.0786133H39.3916C17.6362 -0.0786133 0 17.5576 0 39.313V355.212C0 376.967 17.6362 394.604 39.3916 394.604H256.103C277.859 394.604 295.495 376.967 295.495 355.212V39.313C295.495 17.5576 277.859 -0.0786133 256.103 -0.0786133Z" fill="#F5F0EB"/>
<mask id="mask0_13_24" style="mask-type:luminance" maskUnits="userSpaceOnUse" x="0" y="-1" width="296" height="396">
<path d="M256.103 -0.0786133H39.3916C17.6362 -0.0786133 0 17.5576 0 39.313V355.212C0 376.967 17.6362 394.604 39.3916 394.604H256.103C277.859 394.604 295.495 376.967 295.495 355.212V39.313C295.495 17.5576 277.859 -0.0786133 256.103 -0.0786133Z" fill="#FF3737"/>
</mask>
<g mask="url(#mask0_13_24)">
<g filter="url(#filter0_f_13_24)">
<path fill-rule="evenodd" clip-rule="evenodd" d="M-4.6963 120.841C-9.50345 88.2683 -16.5893 21.5408 -1.25947 -0.294602C18.7093 -26.0176 229.949 -20.4167 259.309 1.52321C272.013 10.1289 69.2795 10.5944 46.3829 38.7826C24.0199 65.7339 0.640659 163.302 -4.6963 120.841Z" fill="white"/>
</g>
</g>
<mask id="mask1_13_24" style="mask-type:luminance" maskUnits="userSpaceOnUse" x="149" y="268" width="297" height="396">
<path d="M188.961 663H405.672C427.428 663 445.064 645.364 445.064 623.609V307.71C445.064 285.954 427.428 268.318 405.672 268.318H188.961C167.205 268.318 149.569 285.954 149.569 307.71V623.609C149.569 645.364 167.205 663 188.961 663Z" fill="#FF3737"/>
</mask>
<g mask="url(#mask1_13_24)">
<g filter="url(#filter1_f_13_24)">
<path fill-rule="evenodd" clip-rule="evenodd" d="M295.636 295.935C298.912 305.107 305.728 363.348 290.399 385.183C270.43 410.906 74.3007 401.391 62.3656 394.964C51.4597 389.728 238.253 394.906 264.101 360.628C285.366 331.084 290.199 279.7 295.636 295.935Z" fill="black" fill-opacity="0.196078"/>
</g>
</g>
</g>
<path d="M110.839 145.158C136.155 145.158 156.678 124.636 156.678 99.3199C156.678 74.0042 136.155 53.4817 110.839 53.4817C85.5235 53.4817 65.001 74.0042 65.001 99.3199C65.001 124.636 85.5235 145.158 110.839 145.158Z" fill="black"/>
<path d="M110.839 212.658C136.155 212.658 156.678 192.136 156.678 166.82C156.678 141.504 136.155 120.982 110.839 120.982C85.5235 120.982 65.001 141.504 65.001 166.82C65.001 192.136 85.5235 212.658 110.839 212.658Z" fill="black"/>
<path d="M110.839 279.033C136.155 279.033 156.678 258.511 156.678 233.195C156.678 207.879 136.155 187.357 110.839 187.357C85.5235 187.357 65.001 207.879 65.001 233.195C65.001 258.511 85.5235 279.033 110.839 279.033Z" fill="black"/>
<path d="M110.839 346.533C136.155 346.533 156.678 326.011 156.678 300.695C156.678 275.379 136.155 254.857 110.839 254.857C85.5235 254.857 65.001 275.379 65.001 300.695C65.001 326.011 85.5235 346.533 110.839 346.533Z" fill="black"/>
<path d="M189.16 145.158C214.476 145.158 234.999 124.636 234.999 99.3199C234.999 74.0042 214.476 53.4817 189.16 53.4817C163.845 53.4817 143.322 74.0042 143.322 99.3199C143.322 124.636 163.845 145.158 189.16 145.158Z" fill="black"/>
<path d="M189.16 212.658C214.476 212.658 234.999 192.136 234.999 166.82C234.999 141.504 214.476 120.982 189.16 120.982C163.845 120.982 143.322 141.504 143.322 166.82C143.322 192.136 163.845 212.658 189.16 212.658Z" fill="black"/>
<path d="M189.16 279.033C214.476 279.033 234.999 258.511 234.999 233.195C234.999 207.879 214.476 187.357 189.16 187.357C163.845 187.357 143.322 207.879 143.322 233.195C143.322 258.511 163.845 279.033 189.16 279.033Z" fill="black"/>
<path d="M189.16 346.533C214.476 346.533 234.999 326.011 234.999 300.695C234.999 275.379 214.476 254.857 189.16 254.857C163.845 254.857 143.322 275.379 143.322 300.695C143.322 326.011 163.845 346.533 189.16 346.533Z" fill="black"/>
<path d="M110.839 133.891C129.932 133.891 145.41 118.413 145.41 99.32C145.41 80.227 129.932 64.749 110.839 64.749C91.7463 64.749 76.2683 80.227 76.2683 99.32C76.2683 118.413 91.7463 133.891 110.839 133.891Z" fill="white"/>
<path d="M110.839 129.09C127.281 129.09 140.609 115.761 140.609 99.3199C140.609 82.8786 127.281 69.5503 110.839 69.5503C94.398 69.5503 81.0696 82.8786 81.0696 99.3199C81.0696 115.761 94.398 129.09 110.839 129.09Z" fill="#000037"/>
<path d="M127.001 99.2084C126.972 94.975 125.283 90.9221 122.297 87.9211C119.311 84.92 115.266 83.2106 111.033 83.1601C106.8 83.1097 102.716 84.7224 99.6592 87.6514C96.6025 90.5805 94.8173 94.592 94.6873 98.8235C94.5573 103.055 96.0929 107.169 98.964 110.28C101.835 113.391 105.812 115.251 110.041 115.461C114.269 115.67 118.411 114.212 121.575 111.4C124.74 108.588 126.675 104.647 126.964 100.423" stroke="white" stroke-width="6.75045" stroke-linecap="round" stroke-linejoin="round" stroke-dasharray="13.5 13.5"/>
<path d="M110.839 105.344C114.166 105.344 116.863 102.647 116.863 99.3199C116.863 95.9931 114.166 93.2961 110.839 93.2961C107.512 93.2961 104.816 95.9931 104.816 99.3199C104.816 102.647 107.512 105.344 110.839 105.344Z" fill="white"/>
<path d="M110.839 102.071C112.358 102.071 113.59 100.839 113.59 99.32C113.59 97.8009 112.358 96.5693 110.839 96.5693C109.32 96.5693 108.089 97.8009 108.089 99.32C108.089 100.839 109.32 102.071 110.839 102.071Z" fill="#000037"/>
<path d="M110.839 201.391C129.932 201.391 145.41 185.913 145.41 166.82C145.41 147.727 129.932 132.249 110.839 132.249C91.7463 132.249 76.2683 147.727 76.2683 166.82C76.2683 185.913 91.7463 201.391 110.839 201.391Z" fill="white"/>
<path d="M110.839 196.59C127.281 196.59 140.609 183.261 140.609 166.82C140.609 150.379 127.281 137.05 110.839 137.05C94.398 137.05 81.0696 150.379 81.0696 166.82C81.0696 183.261 94.398 196.59 110.839 196.59Z" fill="#000037"/>
<path d="M127.001 166.708C126.972 162.475 125.283 158.422 122.297 155.421C119.311 152.42 115.266 150.711 111.033 150.66C106.8 150.61 102.716 152.222 99.6592 155.151C96.6025 158.081 94.8173 162.092 94.6873 166.324C94.5573 170.555 96.0929 174.669 98.964 177.78C101.835 180.891 105.812 182.751 110.041 182.961C114.269 183.17 118.411 181.712 121.575 178.9C124.74 176.088 126.675 172.147 126.964 167.923" stroke="white" stroke-width="6.75045" stroke-linecap="round" stroke-linejoin="round" stroke-dasharray="13.5 13.5"/>
<path d="M110.839 172.844C114.166 172.844 116.863 170.147 116.863 166.82C116.863 163.493 114.166 160.796 110.839 160.796C107.512 160.796 104.816 163.493 104.816 166.82C104.816 170.147 107.512 172.844 110.839 172.844Z" fill="white"/>
<path d="M110.839 169.571C112.358 169.571 113.59 168.339 113.59 166.82C113.59 165.301 112.358 164.069 110.839 164.069C109.32 164.069 108.089 165.301 108.089 166.82C108.089 168.339 109.32 169.571 110.839 169.571Z" fill="#000037"/>
<path d="M110.839 267.766C129.932 267.766 145.41 252.288 145.41 233.195C145.41 214.102 129.932 198.624 110.839 198.624C91.7463 198.624 76.2683 214.102 76.2683 233.195C76.2683 252.288 91.7463 267.766 110.839 267.766Z" fill="white"/>
<path d="M110.839 262.965C127.281 262.965 140.609 249.636 140.609 233.195C140.609 216.754 127.281 203.425 110.839 203.425C94.398 203.425 81.0696 216.754 81.0696 233.195C81.0696 249.636 94.398 262.965 110.839 262.965Z" fill="#000037"/>
<path d="M127.001 233.083C126.972 228.85 125.283 224.797 122.297 221.796C119.311 218.795 115.266 217.086 111.033 217.035C106.8 216.985 102.716 218.597 99.6592 221.526C96.6025 224.456 94.8173 228.467 94.6873 232.699C94.5573 236.93 96.0929 241.044 98.964 244.155C101.835 247.266 105.812 249.126 110.041 249.336C114.269 249.545 118.411 248.087 121.575 245.275C124.74 242.463 126.675 238.522 126.964 234.298" stroke="white" stroke-width="6.75045" stroke-linecap="round" stroke-linejoin="round" stroke-dasharray="13.5 13.5"/>
<path d="M110.839 239.219C114.166 239.219 116.863 236.522 116.863 233.195C116.863 229.868 114.166 227.171 110.839 227.171C107.512 227.171 104.816 229.868 104.816 233.195C104.816 236.522 107.512 239.219 110.839 239.219Z" fill="white"/>
<path d="M110.839 235.946C112.358 235.946 113.59 234.714 113.59 233.195C113.59 231.676 112.358 230.444 110.839 230.444C109.32 230.444 108.089 231.676 108.089 233.195C108.089 234.714 109.32 235.946 110.839 235.946Z" fill="#000037"/>
<path d="M110.839 335.266C129.932 335.266 145.41 319.788 145.41 300.695C145.41 281.602 129.932 266.124 110.839 266.124C91.7463 266.124 76.2683 281.602 76.2683 300.695C76.2683 319.788 91.7463 335.266 110.839 335.266Z" fill="white"/>
<path d="M110.839 330.465C127.281 330.465 140.609 317.136 140.609 300.695C140.609 284.254 127.281 270.925 110.839 270.925C94.398 270.925 81.0696 284.254 81.0696 300.695C81.0696 317.136 94.398 330.465 110.839 330.465Z" fill="#000037"/>
<path d="M127.001 300.583C126.972 296.35 125.283 292.297 122.297 289.296C119.311 286.295 115.266 284.586 111.033 284.535C106.8 284.485 102.716 286.097 99.6592 289.026C96.6025 291.956 94.8173 295.967 94.6873 300.199C94.5573 304.43 96.093 308.544 98.964 311.655C101.835 314.766 105.812 316.626 110.041 316.836C114.269 317.045 118.411 315.587 121.575 312.775C124.74 309.963 126.675 306.022 126.964 301.798" stroke="white" stroke-width="6.75045" stroke-linecap="round" stroke-linejoin="round" stroke-dasharray="13.5 13.5"/>
<path d="M110.839 306.719C114.166 306.719 116.863 304.022 116.863 300.695C116.863 297.368 114.166 294.671 110.839 294.671C107.512 294.671 104.816 297.368 104.816 300.695C104.816 304.022 107.512 306.719 110.839 306.719Z" fill="white"/>
<path d="M110.839 303.446C112.358 303.446 113.59 302.214 113.59 300.695C113.59 299.176 112.358 297.944 110.839 297.944C109.32 297.944 108.089 299.176 108.089 300.695C108.089 302.214 109.32 303.446 110.839 303.446Z" fill="#000037"/>
<path d="M189.16 133.891C208.253 133.891 223.731 118.413 223.731 99.32C223.731 80.227 208.253 64.749 189.16 64.749C170.067 64.749 154.589 80.227 154.589 99.32C154.589 118.413 170.067 133.891 189.16 133.891Z" fill="white"/>
<path d="M189.16 129.09C205.602 129.09 218.93 115.761 218.93 99.3199C218.93 82.8786 205.602 69.5503 189.16 69.5503C172.719 69.5503 159.391 82.8786 159.391 99.3199C159.391 115.761 172.719 129.09 189.16 129.09Z" fill="#000037"/>
<path d="M205.322 99.2084C205.293 94.975 203.604 90.9221 200.618 87.9211C197.632 84.92 193.587 83.2106 189.354 83.1601C185.121 83.1097 181.037 84.7224 177.98 87.6515C174.924 90.5805 173.138 94.592 173.008 98.8235C172.878 103.055 174.414 107.169 177.285 110.28C180.156 113.391 184.133 115.251 188.362 115.461C192.59 115.67 196.732 114.212 199.896 111.4C203.061 108.588 204.996 104.647 205.285 100.423" stroke="white" stroke-width="6.75045" stroke-linecap="round" stroke-linejoin="round" stroke-dasharray="13.5 13.5"/>
<path d="M189.16 105.344C192.487 105.344 195.184 102.647 195.184 99.3199C195.184 95.9931 192.487 93.2961 189.16 93.2961C185.834 93.2961 183.137 95.9931 183.137 99.3199C183.137 102.647 185.834 105.344 189.16 105.344Z" fill="white"/>
<path d="M189.16 102.071C190.68 102.071 191.911 100.839 191.911 99.32C191.911 97.8009 190.68 96.5693 189.16 96.5693C187.641 96.5693 186.41 97.8009 186.41 99.32C186.41 100.839 187.641 102.071 189.16 102.071Z" fill="#000037"/>
<path d="M189.16 201.391C208.253 201.391 223.731 185.913 223.731 166.82C223.731 147.727 208.253 132.249 189.16 132.249C170.067 132.249 154.589 147.727 154.589 166.82C154.589 185.913 170.067 201.391 189.16 201.391Z" fill="white"/>
<path d="M189.16 196.59C205.602 196.59 218.93 183.261 218.93 166.82C218.93 150.379 205.602 137.05 189.16 137.05C172.719 137.05 159.391 150.379 159.391 166.82C159.391 183.261 172.719 196.59 189.16 196.59Z" fill="#000037"/>
<path d="M205.322 166.708C205.293 162.475 203.604 158.422 200.618 155.421C197.632 152.42 193.587 150.711 189.354 150.66C185.121 150.61 181.037 152.222 177.98 155.151C174.924 158.081 173.138 162.092 173.008 166.324C172.878 170.555 174.414 174.669 177.285 177.78C180.156 180.891 184.133 182.751 188.362 182.961C192.59 183.17 196.732 181.712 199.896 178.9C203.061 176.088 204.996 172.147 205.285 167.923" stroke="white" stroke-width="6.75045" stroke-linecap="round" stroke-linejoin="round" stroke-dasharray="13.5 13.5"/>
<path d="M189.16 172.844C192.487 172.844 195.184 170.147 195.184 166.82C195.184 163.493 192.487 160.796 189.16 160.796C185.834 160.796 183.137 163.493 183.137 166.82C183.137 170.147 185.834 172.844 189.16 172.844Z" fill="white"/>
<path d="M189.16 169.571C190.68 169.571 191.911 168.339 191.911 166.82C191.911 165.301 190.68 164.069 189.16 164.069C187.641 164.069 186.41 165.301 186.41 166.82C186.41 168.339 187.641 169.571 189.16 169.571Z" fill="#000037"/>
<path d="M189.16 267.766C208.253 267.766 223.731 252.288 223.731 233.195C223.731 214.102 208.253 198.624 189.16 198.624C170.067 198.624 154.589 214.102 154.589 233.195C154.589 252.288 170.067 267.766 189.16 267.766Z" fill="white"/>
<path d="M189.16 262.965C205.602 262.965 218.93 249.636 218.93 233.195C218.93 216.754 205.602 203.425 189.16 203.425C172.719 203.425 159.391 216.754 159.391 233.195C159.391 249.636 172.719 262.965 189.16 262.965Z" fill="#000037"/>
<path d="M205.322 233.083C205.293 228.85 203.604 224.797 200.618 221.796C197.632 218.795 193.587 217.086 189.354 217.035C185.121 216.985 181.037 218.597 177.98 221.526C174.924 224.456 173.138 228.467 173.008 232.699C172.878 236.93 174.414 241.044 177.285 244.155C180.156 247.266 184.133 249.126 188.362 249.336C192.59 249.545 196.732 248.087 199.896 245.275C203.061 242.463 204.996 238.522 205.285 234.298" stroke="white" stroke-width="6.75045" stroke-linecap="round" stroke-linejoin="round" stroke-dasharray="13.5 13.5"/>
<path d="M189.16 239.219C192.487 239.219 195.184 236.522 195.184 233.195C195.184 229.868 192.487 227.171 189.16 227.171C185.834 227.171 183.137 229.868 183.137 233.195C183.137 236.522 185.834 239.219 189.16 239.219Z" fill="white"/>
<path d="M189.16 235.946C190.68 235.946 191.911 234.714 191.911 233.195C191.911 231.676 190.68 230.444 189.16 230.444C187.641 230.444 186.41 231.676 186.41 233.195C186.41 234.714 187.641 235.946 189.16 235.946Z" fill="#000037"/>
<path d="M189.16 335.266C208.253 335.266 223.731 319.788 223.731 300.695C223.731 281.602 208.253 266.124 189.16 266.124C170.067 266.124 154.589 281.602 154.589 300.695C154.589 319.788 170.067 335.266 189.16 335.266Z" fill="white"/>
<path d="M189.16 330.465C205.602 330.465 218.93 317.136 218.93 300.695C218.93 284.254 205.602 270.925 189.16 270.925C172.719 270.925 159.391 284.254 159.391 300.695C159.391 317.136 172.719 330.465 189.16 330.465Z" fill="#000037"/>
<path d="M205.322 300.584C205.293 296.35 203.604 292.297 200.618 289.296C197.632 286.295 193.587 284.586 189.354 284.535C185.121 284.485 181.037 286.098 177.98 289.027C174.924 291.956 173.138 295.967 173.008 300.199C172.878 304.43 174.414 308.544 177.285 311.655C180.156 314.766 184.133 316.626 188.362 316.836C192.59 317.046 196.732 315.587 199.896 312.775C203.061 309.963 204.996 306.022 205.285 301.798" stroke="white" stroke-width="6.75045" stroke-linecap="round" stroke-linejoin="round" stroke-dasharray="13.5 13.5"/>
<path d="M189.16 306.719C192.487 306.719 195.184 304.022 195.184 300.695C195.184 297.368 192.487 294.671 189.16 294.671C185.834 294.671 183.137 297.368 183.137 300.695C183.137 304.022 185.834 306.719 189.16 306.719Z" fill="white"/>
<path d="M189.16 303.446C190.68 303.446 191.911 302.214 191.911 300.695C191.911 299.176 190.68 297.944 189.16 297.944C187.641 297.944 186.41 299.176 186.41 300.695C186.41 302.214 187.641 303.446 189.16 303.446Z" fill="#000037"/>
<defs>
<filter id="filter0_f_13_24" x="-11.8441" y="-18.6217" width="272.981" height="151.274" filterUnits="userSpaceOnUse" color-interpolation-filters="sRGB">
<feFlood flood-opacity="0" result="BackgroundImageFix"/>
<feBlend mode="normal" in="SourceGraphic" in2="BackgroundImageFix" result="shape"/>
<feGaussianBlur stdDeviation="0.6275" result="effect1_foregroundBlur_13_24"/>
</filter>
<filter id="filter1_f_13_24" x="60.6515" y="291.58" width="240.61" height="111.805" filterUnits="userSpaceOnUse" color-interpolation-filters="sRGB">
<feFlood flood-opacity="0" result="BackgroundImageFix"/>
<feBlend mode="normal" in="SourceGraphic" in2="BackgroundImageFix" result="shape"/>
<feGaussianBlur stdDeviation="0.6275" result="effect1_foregroundBlur_13_24"/>
</filter>
<clipPath id="clip0_13_24">
<rect width="300" height="400" fill="white"/>
</clipPath>
</defs>
</svg>
