<svg width="300" height="400" viewBox="0 0 300 400" fill="none" xmlns="http://www.w3.org/2000/svg">
<g clip-path="url(#clip0_13_24)">
<path d="M256.103 -0.0786133H39.3916C17.6362 -0.0786133 0 17.5576 0 39.313V355.212C0 376.967 17.6362 394.604 39.3916 394.604H256.103C277.859 394.604 295.495 376.967 295.495 355.212V39.313C295.495 17.5576 277.859 -0.0786133 256.103 -0.0786133Z" fill="#F5F0EB"/>
<mask id="mask0_13_24" style="mask-type:luminance" maskUnits="userSpaceOnUse" x="0" y="-1" width="296" height="396">
<path d="M256.103 -0.0786133H39.3916C17.6362 -0.0786133 0 17.5576 0 39.313V355.212C0 376.967 17.6362 394.604 39.3916 394.604H256.103C277.859 394.604 295.495 376.967 295.495 355.212V39.313C295.495 17.5576 277.859 -0.0786133 256.103 -0.0786133Z" fill="#FF3737"/>
</mask>
<g mask="url(#mask0_13_24)">
<g filter="url(#filter0_f_13_24)">
<path fill-rule="evenodd" clip-rule="evenodd" d="M-4.6963 120.841C-9.50345 88.2683 -16.5893 21.5408 -1.25947 -0.294601C18.7093 -26.0176 229.949 -20.4167 259.309 1.52321C272.013 10.1289 69.2795 10.5944 46.3829 38.7826C24.0199 65.7339 0.640658 163.302 -4.6963 120.841Z" fill="white"/>
</g>
</g>
<mask id="mask1_13_24" style="mask-type:luminance" maskUnits="userSpaceOnUse" x="149" y="268" width="297" height="396">
<path d="M188.961 663H405.672C427.428 663 445.064 645.364 445.064 623.609V307.71C445.064 285.954 427.428 268.318 405.672 268.318H188.961C167.205 268.318 149.569 285.954 149.569 307.71V623.609C149.569 645.364 167.205 663 188.961 663Z" fill="#FF3737"/>
</mask>
<g mask="url(#mask1_13_24)">
<g filter="url(#filter1_f_13_24)">
<path fill-rule="evenodd" clip-rule="evenodd" d="M295.636 295.935C298.912 305.107 305.728 363.348 290.399 385.183C270.43 410.906 74.3007 401.391 62.3656 394.964C51.4597 389.728 238.253 394.906 264.101 360.628C285.366 331.084 290.199 279.7 295.636 295.935Z" fill="black" fill-opacity="0.196078"/>
</g>
</g>
</g>
<g clip-path="url(#clip1_13_24)">
<path d="M139.239 84.0457C149.044 84.0457 156.993 77.895 156.993 70.3076C156.993 62.7203 149.044 56.5696 139.239 56.5696C129.433 56.5696 121.484 62.7203 121.484 70.3076C121.484 77.895 129.433 84.0457 139.239 84.0457Z" fill="#004900"/>
<path d="M160.075 84.0457C169.88 84.0457 177.829 77.895 177.829 70.3076C177.829 62.7203 169.88 56.5696 160.075 56.5696C150.27 56.5696 142.321 62.7203 142.321 70.3076C142.321 77.895 150.27 84.0457 160.075 84.0457Z" fill="#004900"/>
<path d="M138.363 191.5C148.169 191.5 156.117 185.349 156.117 177.761C156.117 170.174 148.169 164.023 138.363 164.023C128.558 164.023 120.609 170.174 120.609 177.761C120.609 185.349 128.558 191.5 138.363 191.5Z" fill="#004900"/>
<path d="M149.691 169.861V72.981" stroke="#004900" stroke-width="52.7536" stroke-linecap="round"/>
<path d="M161.242 191.5C171.047 191.5 178.996 185.349 178.996 177.761C178.996 170.174 171.047 164.023 161.242 164.023C151.437 164.023 143.488 170.174 143.488 177.761C143.488 185.349 151.437 191.5 161.242 191.5Z" fill="#004900"/>
<path d="M157.899 137.766C170.925 137.766 181.484 129.595 181.484 119.516C181.484 109.436 170.925 101.265 157.899 101.265C144.873 101.265 134.313 109.436 134.313 119.516C134.313 129.595 144.873 137.766 157.899 137.766Z" fill="#004900"/>
<path d="M141.59 137.766C154.616 137.766 165.175 129.595 165.175 119.516C165.175 109.436 154.616 101.265 141.59 101.265C128.564 101.265 118.004 109.436 118.004 119.516C118.004 129.595 128.564 137.766 141.59 137.766Z" fill="#004900"/>
<path d="M149.691 74.1182V101.341" stroke="white" stroke-width="12" stroke-linecap="round"/>
<path d="M149.691 140.184V173.803" stroke="white" stroke-width="12" stroke-linecap="round"/>
<path d="M149.691 78.7991C153.263 78.7991 156.16 75.9978 156.16 72.5423C156.16 69.0869 153.263 66.2856 149.691 66.2856C146.118 66.2856 143.222 69.0869 143.222 72.5423C143.222 75.9978 146.118 78.7991 149.691 78.7991Z" fill="white"/>
<path d="M142.96 128.858C146.002 124.224 154.153 124.424 156.713 128.858" stroke="white" stroke-width="10" stroke-linecap="round" stroke-linejoin="round"/>
<path d="M142.96 115.703C146.002 111.07 154.153 111.27 156.713 115.703" stroke="white" stroke-width="10" stroke-linecap="round" stroke-linejoin="round"/>
<path d="M64.7484 240.37C74.5537 240.37 82.5024 234.219 82.5024 226.632C82.5024 219.045 74.5537 212.894 64.7484 212.894C54.9431 212.894 46.9943 219.045 46.9943 226.632C46.9943 234.219 54.9431 240.37 64.7484 240.37Z" fill="#004900"/>
<path d="M85.5848 240.37C95.3901 240.37 103.339 234.219 103.339 226.632C103.339 219.045 95.3901 212.894 85.5848 212.894C75.7795 212.894 67.8308 219.045 67.8308 226.632C67.8308 234.219 75.7795 240.37 85.5848 240.37Z" fill="#004900"/>
<path d="M63.8731 347.824C73.6784 347.824 81.6272 341.673 81.6272 334.086C81.6272 326.499 73.6784 320.348 63.8731 320.348C54.0678 320.348 46.119 326.499 46.119 334.086C46.119 341.673 54.0678 347.824 63.8731 347.824Z" fill="#004900"/>
<path d="M75.2008 326.185V229.305" stroke="#004900" stroke-width="52.7536" stroke-linecap="round"/>
<path d="M86.7518 347.824C96.5571 347.824 104.506 341.673 104.506 334.086C104.506 326.499 96.5571 320.348 86.7518 320.348C76.9465 320.348 68.9978 326.499 68.9978 334.086C68.9978 341.673 76.9465 347.824 86.7518 347.824Z" fill="#004900"/>
<path d="M83.4087 294.091C96.4347 294.091 106.994 285.92 106.994 275.84C106.994 265.761 96.4347 257.59 83.4087 257.59C70.3828 257.59 59.8231 265.761 59.8231 275.84C59.8231 285.92 70.3828 294.091 83.4087 294.091Z" fill="#004900"/>
<path d="M67.0995 294.091C80.1255 294.091 90.6851 285.92 90.6851 275.84C90.6851 265.761 80.1255 257.59 67.0995 257.59C54.0736 257.59 43.514 265.761 43.514 275.84C43.514 285.92 54.0736 294.091 67.0995 294.091Z" fill="#004900"/>
<path d="M75.2008 230.443V257.665" stroke="white" stroke-width="12" stroke-linecap="round"/>
<path d="M75.2008 296.508V330.127" stroke="white" stroke-width="12" stroke-linecap="round"/>
<path d="M75.2008 235.124C78.7733 235.124 81.6694 232.322 81.6694 228.867C81.6694 225.411 78.7733 222.61 75.2008 222.61C71.6283 222.61 68.7323 225.411 68.7323 228.867C68.7323 232.322 71.6283 235.124 75.2008 235.124Z" fill="white"/>
<path d="M68.4702 285.182C71.5118 280.549 79.6633 280.749 82.2232 285.182" stroke="white" stroke-width="10" stroke-linecap="round" stroke-linejoin="round"/>
<path d="M68.4702 272.028C71.5118 267.394 79.6633 267.594 82.2232 272.028" stroke="white" stroke-width="10" stroke-linecap="round" stroke-linejoin="round"/>
<path d="M216.876 240.37C226.681 240.37 234.63 234.219 234.63 226.632C234.63 219.045 226.681 212.894 216.876 212.894C207.071 212.894 199.122 219.045 199.122 226.632C199.122 234.219 207.071 240.37 216.876 240.37Z" fill="#004900"/>
<path d="M237.713 240.37C247.518 240.37 255.467 234.219 255.467 226.632C255.467 219.045 247.518 212.894 237.713 212.894C227.907 212.894 219.959 219.045 219.959 226.632C219.959 234.219 227.907 240.37 237.713 240.37Z" fill="#004900"/>
<path d="M216.001 347.824C225.806 347.824 233.755 341.673 233.755 334.086C233.755 326.499 225.806 320.348 216.001 320.348C206.196 320.348 198.247 326.499 198.247 334.086C198.247 341.673 206.196 347.824 216.001 347.824Z" fill="#004900"/>
<path d="M227.329 326.185V229.305" stroke="#004900" stroke-width="52.7536" stroke-linecap="round"/>
<path d="M238.88 347.824C248.685 347.824 256.634 341.673 256.634 334.086C256.634 326.499 248.685 320.348 238.88 320.348C229.074 320.348 221.126 326.499 221.126 334.086C221.126 341.673 229.074 347.824 238.88 347.824Z" fill="#004900"/>
<path d="M235.536 294.091C248.562 294.091 259.122 285.92 259.122 275.84C259.122 265.761 248.562 257.59 235.536 257.59C222.511 257.59 211.951 265.761 211.951 275.84C211.951 285.92 222.511 294.091 235.536 294.091Z" fill="#004900"/>
<path d="M219.227 294.091C232.253 294.091 242.813 285.92 242.813 275.84C242.813 265.761 232.253 257.59 219.227 257.59C206.201 257.59 195.642 265.761 195.642 275.84C195.642 285.92 206.201 294.091 219.227 294.091Z" fill="#004900"/>
<path d="M227.329 230.443V257.665" stroke="white" stroke-width="12" stroke-linecap="round"/>
<path d="M227.329 296.508V330.127" stroke="white" stroke-width="12" stroke-linecap="round"/>
<path d="M227.329 235.124C230.901 235.124 233.797 232.322 233.797 228.867C233.797 225.411 230.901 222.61 227.329 222.61C223.756 222.61 220.86 225.411 220.86 228.867C220.86 232.322 223.756 235.124 227.329 235.124Z" fill="white"/>
<path d="M220.598 285.182C223.64 280.549 231.791 280.749 234.351 285.182" stroke="white" stroke-width="10" stroke-linecap="round" stroke-linejoin="round"/>
<path d="M220.598 272.028C223.64 267.394 231.791 267.594 234.351 272.028" stroke="white" stroke-width="10" stroke-linecap="round" stroke-linejoin="round"/>
</g>
<defs>
<filter id="filter0_f_13_24" x="-11.8441" y="-18.6217" width="272.981" height="151.274" filterUnits="userSpaceOnUse" color-interpolation-filters="sRGB">
<feFlood flood-opacity="0" result="BackgroundImageFix"/>
<feBlend mode="normal" in="SourceGraphic" in2="BackgroundImageFix" result="shape"/>
<feGaussianBlur stdDeviation="0.6275" result="effect1_foregroundBlur_13_24"/>
</filter>
<filter id="filter1_f_13_24" x="60.6515" y="291.58" width="240.61" height="111.805" filterUnits="userSpaceOnUse" color-interpolation-filters="sRGB">
<feFlood flood-opacity="0" result="BackgroundImageFix"/>
<feBlend mode="normal" in="SourceGraphic" in2="BackgroundImageFix" result="shape"/>
<feGaussianBlur stdDeviation="0.6275" result="effect1_foregroundBlur_13_24"/>
</filter>
<clipPath id="clip0_13_24">
<rect width="300" height="400" fill="white"/>
</clipPath>
<clipPath id="clip1_13_24">
<rect width="225" height="300" fill="white" transform="translate(37.5 50)"/>
</clipPath>
</defs>
</svg>
