<svg width="300" height="400" viewBox="0 0 300 400" fill="none" xmlns="http://www.w3.org/2000/svg">
<g clip-path="url(#clip0_13_24)">
<path d="M256.103 -0.0786133H39.3916C17.6362 -0.0786133 0 17.5576 0 39.313V355.212C0 376.967 17.6362 394.604 39.3916 394.604H256.103C277.859 394.604 295.495 376.967 295.495 355.212V39.313C295.495 17.5576 277.859 -0.0786133 256.103 -0.0786133Z" fill="#F5F0EB"/>
<mask id="mask0_13_24" style="mask-type:luminance" maskUnits="userSpaceOnUse" x="0" y="-1" width="296" height="396">
<path d="M256.103 -0.0786133H39.3916C17.6362 -0.0786133 0 17.5576 0 39.313V355.212C0 376.967 17.6362 394.604 39.3916 394.604H256.103C277.859 394.604 295.495 376.967 295.495 355.212V39.313C295.495 17.5576 277.859 -0.0786133 256.103 -0.0786133Z" fill="#FF3737"/>
</mask>
<g mask="url(#mask0_13_24)">
<g filter="url(#filter0_f_13_24)">
<path fill-rule="evenodd" clip-rule="evenodd" d="M-4.6963 120.841C-9.50345 88.2683 -16.5893 21.5408 -1.25947 -0.294601C18.7093 -26.0176 229.949 -20.4167 259.309 1.52321C272.013 10.1289 69.2795 10.5944 46.3829 38.7826C24.0199 65.7339 0.640658 163.302 -4.6963 120.841Z" fill="white"/>
</g>
</g>
<mask id="mask1_13_24" style="mask-type:luminance" maskUnits="userSpaceOnUse" x="149" y="268" width="297" height="396">
<path d="M188.961 663H405.672C427.428 663 445.064 645.364 445.064 623.609V307.71C445.064 285.954 427.428 268.318 405.672 268.318H188.961C167.205 268.318 149.569 285.954 149.569 307.71V623.609C149.569 645.364 167.205 663 188.961 663Z" fill="#FF3737"/>
</mask>
<g mask="url(#mask1_13_24)">
<g filter="url(#filter1_f_13_24)">
<path fill-rule="evenodd" clip-rule="evenodd" d="M295.636 295.935C298.912 305.107 305.728 363.348 290.399 385.183C270.43 410.906 74.3007 401.391 62.3656 394.964C51.4597 389.728 238.253 394.906 264.101 360.628C285.366 331.084 290.199 279.7 295.636 295.935Z" fill="black" fill-opacity="0.196078"/>
</g>
</g>
</g>
<g clip-path="url(#clip1_13_24)">
<path d="M81.0103 240.37C90.8156 240.37 98.7644 234.219 98.7644 226.632C98.7644 219.045 90.8156 212.894 81.0103 212.894C71.205 212.894 63.2562 219.045 63.2562 226.632C63.2562 234.219 71.205 240.37 81.0103 240.37Z" fill="#004900"/>
<path d="M101.847 240.37C111.652 240.37 119.601 234.219 119.601 226.632C119.601 219.045 111.652 212.894 101.847 212.894C92.0415 212.894 84.0927 219.045 84.0927 226.632C84.0927 234.219 92.0415 240.37 101.847 240.37Z" fill="#004900"/>
<path d="M80.135 347.824C89.9403 347.824 97.8891 341.673 97.8891 334.086C97.8891 326.499 89.9403 320.348 80.135 320.348C70.3297 320.348 62.381 326.499 62.381 334.086C62.381 341.673 70.3297 347.824 80.135 347.824Z" fill="#004900"/>
<path d="M91.4627 326.185V229.305" stroke="#004900" stroke-width="52.7536" stroke-linecap="round"/>
<path d="M103.014 347.824C112.819 347.824 120.768 341.673 120.768 334.086C120.768 326.499 112.819 320.348 103.014 320.348C93.2085 320.348 85.2597 326.499 85.2597 334.086C85.2597 341.673 93.2085 347.824 103.014 347.824Z" fill="#004900"/>
<path d="M99.6706 294.091C112.697 294.091 123.256 285.92 123.256 275.84C123.256 265.761 112.697 257.59 99.6706 257.59C86.6447 257.59 76.0851 265.761 76.0851 275.84C76.0851 285.92 86.6447 294.091 99.6706 294.091Z" fill="#004900"/>
<path d="M83.3615 294.091C96.3874 294.091 106.947 285.92 106.947 275.84C106.947 265.761 96.3874 257.59 83.3615 257.59C70.3355 257.59 59.7759 265.761 59.7759 275.84C59.7759 285.92 70.3355 294.091 83.3615 294.091Z" fill="#004900"/>
<path d="M91.4627 230.443V257.665" stroke="white" stroke-width="12" stroke-linecap="round"/>
<path d="M91.4627 296.508V330.127" stroke="white" stroke-width="12" stroke-linecap="round"/>
<path d="M91.4628 235.124C95.0352 235.124 97.9313 232.322 97.9313 228.867C97.9313 225.411 95.0352 222.61 91.4628 222.61C87.8903 222.61 84.9942 225.411 84.9942 228.867C84.9942 232.322 87.8903 235.124 91.4628 235.124Z" fill="white"/>
<path d="M84.7321 285.182C87.7738 280.549 95.9252 280.749 98.4851 285.182" stroke="white" stroke-width="10" stroke-linecap="round" stroke-linejoin="round"/>
<path d="M84.7321 272.028C87.7738 267.394 95.9252 267.594 98.4851 272.028" stroke="white" stroke-width="10" stroke-linecap="round" stroke-linejoin="round"/>
<path d="M197.467 240.37C207.272 240.37 215.221 234.219 215.221 226.632C215.221 219.045 207.272 212.894 197.467 212.894C187.661 212.894 179.713 219.045 179.713 226.632C179.713 234.219 187.661 240.37 197.467 240.37Z" fill="#004900"/>
<path d="M218.303 240.37C228.109 240.37 236.057 234.219 236.057 226.632C236.057 219.045 228.109 212.894 218.303 212.894C208.498 212.894 200.549 219.045 200.549 226.632C200.549 234.219 208.498 240.37 218.303 240.37Z" fill="#004900"/>
<path d="M196.591 347.824C206.397 347.824 214.346 341.673 214.346 334.086C214.346 326.499 206.397 320.348 196.591 320.348C186.786 320.348 178.837 326.499 178.837 334.086C178.837 341.673 186.786 347.824 196.591 347.824Z" fill="#004900"/>
<path d="M207.919 326.185V229.305" stroke="#004900" stroke-width="52.7536" stroke-linecap="round"/>
<path d="M219.47 347.824C229.276 347.824 237.224 341.673 237.224 334.086C237.224 326.499 229.276 320.348 219.47 320.348C209.665 320.348 201.716 326.499 201.716 334.086C201.716 341.673 209.665 347.824 219.47 347.824Z" fill="#004900"/>
<path d="M216.127 294.091C229.153 294.091 239.713 285.92 239.713 275.84C239.713 265.761 229.153 257.59 216.127 257.59C203.101 257.59 192.542 265.761 192.542 275.84C192.542 285.92 203.101 294.091 216.127 294.091Z" fill="#004900"/>
<path d="M199.818 294.091C212.844 294.091 223.403 285.92 223.403 275.84C223.403 265.761 212.844 257.59 199.818 257.59C186.792 257.59 176.232 265.761 176.232 275.84C176.232 285.92 186.792 294.091 199.818 294.091Z" fill="#004900"/>
<path d="M207.919 230.443V257.665" stroke="white" stroke-width="12" stroke-linecap="round"/>
<path d="M207.919 296.508V330.127" stroke="white" stroke-width="12" stroke-linecap="round"/>
<path d="M207.919 235.124C211.492 235.124 214.388 232.322 214.388 228.867C214.388 225.411 211.492 222.61 207.919 222.61C204.347 222.61 201.451 225.411 201.451 228.867C201.451 232.322 204.347 235.124 207.919 235.124Z" fill="white"/>
<path d="M201.189 285.182C204.23 280.549 212.382 280.749 214.942 285.182" stroke="white" stroke-width="10" stroke-linecap="round" stroke-linejoin="round"/>
<path d="M201.189 272.028C204.23 267.394 212.382 267.594 214.942 272.028" stroke="white" stroke-width="10" stroke-linecap="round" stroke-linejoin="round"/>
<path d="M81.0103 84.0457C90.8156 84.0457 98.7644 77.895 98.7644 70.3076C98.7644 62.7203 90.8156 56.5696 81.0103 56.5696C71.205 56.5696 63.2562 62.7203 63.2562 70.3076C63.2562 77.895 71.205 84.0457 81.0103 84.0457Z" fill="#004900"/>
<path d="M101.847 84.0457C111.652 84.0457 119.601 77.895 119.601 70.3076C119.601 62.7203 111.652 56.5696 101.847 56.5696C92.0415 56.5696 84.0927 62.7203 84.0927 70.3076C84.0927 77.895 92.0415 84.0457 101.847 84.0457Z" fill="#004900"/>
<path d="M80.135 191.5C89.9403 191.5 97.8891 185.349 97.8891 177.761C97.8891 170.174 89.9403 164.023 80.135 164.023C70.3297 164.023 62.381 170.174 62.381 177.761C62.381 185.349 70.3297 191.5 80.135 191.5Z" fill="#004900"/>
<path d="M91.4627 169.861V72.981" stroke="#004900" stroke-width="52.7536" stroke-linecap="round"/>
<path d="M103.014 191.5C112.819 191.5 120.768 185.349 120.768 177.761C120.768 170.174 112.819 164.023 103.014 164.023C93.2085 164.023 85.2597 170.174 85.2597 177.761C85.2597 185.349 93.2085 191.5 103.014 191.5Z" fill="#004900"/>
<path d="M99.6706 137.766C112.697 137.766 123.256 129.595 123.256 119.516C123.256 109.436 112.697 101.265 99.6706 101.265C86.6447 101.265 76.0851 109.436 76.0851 119.516C76.0851 129.595 86.6447 137.766 99.6706 137.766Z" fill="#004900"/>
<path d="M83.3615 137.766C96.3874 137.766 106.947 129.595 106.947 119.516C106.947 109.436 96.3874 101.265 83.3615 101.265C70.3355 101.265 59.7759 109.436 59.7759 119.516C59.7759 129.595 70.3355 137.766 83.3615 137.766Z" fill="#004900"/>
<path d="M91.4627 74.1182V101.341" stroke="white" stroke-width="12" stroke-linecap="round"/>
<path d="M91.4627 140.184V173.803" stroke="white" stroke-width="12" stroke-linecap="round"/>
<path d="M91.4628 78.7991C95.0352 78.7991 97.9313 75.9978 97.9313 72.5423C97.9313 69.0869 95.0352 66.2856 91.4628 66.2856C87.8903 66.2856 84.9942 69.0869 84.9942 72.5423C84.9942 75.9978 87.8903 78.7991 91.4628 78.7991Z" fill="white"/>
<path d="M84.7321 128.858C87.7738 124.224 95.9252 124.424 98.4851 128.858" stroke="white" stroke-width="10" stroke-linecap="round" stroke-linejoin="round"/>
<path d="M84.7321 115.703C87.7738 111.07 95.9252 111.27 98.4851 115.703" stroke="white" stroke-width="10" stroke-linecap="round" stroke-linejoin="round"/>
<path d="M197.467 84.0457C207.272 84.0457 215.221 77.895 215.221 70.3076C215.221 62.7203 207.272 56.5696 197.467 56.5696C187.661 56.5696 179.713 62.7203 179.713 70.3076C179.713 77.895 187.661 84.0457 197.467 84.0457Z" fill="#004900"/>
<path d="M218.303 84.0457C228.109 84.0457 236.057 77.895 236.057 70.3076C236.057 62.7203 228.109 56.5696 218.303 56.5696C208.498 56.5696 200.549 62.7203 200.549 70.3076C200.549 77.895 208.498 84.0457 218.303 84.0457Z" fill="#004900"/>
<path d="M196.591 191.5C206.397 191.5 214.346 185.349 214.346 177.761C214.346 170.174 206.397 164.023 196.591 164.023C186.786 164.023 178.837 170.174 178.837 177.761C178.837 185.349 186.786 191.5 196.591 191.5Z" fill="#004900"/>
<path d="M207.919 169.861V72.981" stroke="#004900" stroke-width="52.7536" stroke-linecap="round"/>
<path d="M219.47 191.5C229.276 191.5 237.224 185.349 237.224 177.761C237.224 170.174 229.276 164.023 219.47 164.023C209.665 164.023 201.716 170.174 201.716 177.761C201.716 185.349 209.665 191.5 219.47 191.5Z" fill="#004900"/>
<path d="M216.127 137.766C229.153 137.766 239.713 129.595 239.713 119.516C239.713 109.436 229.153 101.265 216.127 101.265C203.101 101.265 192.542 109.436 192.542 119.516C192.542 129.595 203.101 137.766 216.127 137.766Z" fill="#004900"/>
<path d="M199.818 137.766C212.844 137.766 223.403 129.595 223.403 119.516C223.403 109.436 212.844 101.265 199.818 101.265C186.792 101.265 176.232 109.436 176.232 119.516C176.232 129.595 186.792 137.766 199.818 137.766Z" fill="#004900"/>
<path d="M207.919 74.1182V101.341" stroke="white" stroke-width="12" stroke-linecap="round"/>
<path d="M207.919 140.184V173.803" stroke="white" stroke-width="12" stroke-linecap="round"/>
<path d="M207.919 78.7991C211.492 78.7991 214.388 75.9978 214.388 72.5423C214.388 69.0869 211.492 66.2856 207.919 66.2856C204.347 66.2856 201.451 69.0869 201.451 72.5423C201.451 75.9978 204.347 78.7991 207.919 78.7991Z" fill="white"/>
<path d="M201.189 128.858C204.23 124.224 212.382 124.424 214.942 128.858" stroke="white" stroke-width="10" stroke-linecap="round" stroke-linejoin="round"/>
<path d="M201.189 115.703C204.23 111.07 212.382 111.27 214.942 115.703" stroke="white" stroke-width="10" stroke-linecap="round" stroke-linejoin="round"/>
</g>
<defs>
<filter id="filter0_f_13_24" x="-11.8441" y="-18.6217" width="272.981" height="151.274" filterUnits="userSpaceOnUse" color-interpolation-filters="sRGB">
<feFlood flood-opacity="0" result="BackgroundImageFix"/>
<feBlend mode="normal" in="SourceGraphic" in2="BackgroundImageFix" result="shape"/>
<feGaussianBlur stdDeviation="0.6275" result="effect1_foregroundBlur_13_24"/>
</filter>
<filter id="filter1_f_13_24" x="60.6515" y="291.58" width="240.61" height="111.805" filterUnits="userSpaceOnUse" color-interpolation-filters="sRGB">
<feFlood flood-opacity="0" result="BackgroundImageFix"/>
<feBlend mode="normal" in="SourceGraphic" in2="BackgroundImageFix" result="shape"/>
<feGaussianBlur stdDeviation="0.6275" result="effect1_foregroundBlur_13_24"/>
</filter>
<clipPath id="clip0_13_24">
<rect width="300" height="400" fill="white"/>
</clipPath>
<clipPath id="clip1_13_24">
<rect width="225" height="300" fill="white" transform="translate(37.5 50)"/>
</clipPath>
</defs>
</svg>
