<svg width="300" height="400" viewBox="0 0 300 400" fill="none" xmlns="http://www.w3.org/2000/svg">
<g clip-path="url(#clip0_13_24)">
<path d="M256.103 -0.0786133H39.3916C17.6362 -0.0786133 0 17.5576 0 39.313V355.212C0 376.967 17.6362 394.604 39.3916 394.604H256.103C277.859 394.604 295.495 376.967 295.495 355.212V39.313C295.495 17.5576 277.859 -0.0786133 256.103 -0.0786133Z" fill="#F5F0EB"/>
<mask id="mask0_13_24" style="mask-type:luminance" maskUnits="userSpaceOnUse" x="0" y="-1" width="296" height="396">
<path d="M256.103 -0.0786133H39.3916C17.6362 -0.0786133 0 17.5576 0 39.313V355.212C0 376.967 17.6362 394.604 39.3916 394.604H256.103C277.859 394.604 295.495 376.967 295.495 355.212V39.313C295.495 17.5576 277.859 -0.0786133 256.103 -0.0786133Z" fill="#FF3737"/>
</mask>
<g mask="url(#mask0_13_24)">
<g filter="url(#filter0_f_13_24)">
<path fill-rule="evenodd" clip-rule="evenodd" d="M-4.6963 120.841C-9.50345 88.2683 -16.5893 21.5408 -1.25947 -0.294601C18.7093 -26.0176 229.949 -20.4167 259.309 1.52321C272.013 10.1289 69.2795 10.5944 46.3829 38.7826C24.0199 65.7339 0.640658 163.302 -4.6963 120.841Z" fill="white"/>
</g>
</g>
<mask id="mask1_13_24" style="mask-type:luminance" maskUnits="userSpaceOnUse" x="149" y="268" width="297" height="396">
<path d="M188.961 663H405.672C427.428 663 445.064 645.364 445.064 623.609V307.71C445.064 285.954 427.428 268.318 405.672 268.318H188.961C167.205 268.318 149.569 285.954 149.569 307.71V623.609C149.569 645.364 167.205 663 188.961 663Z" fill="#FF3737"/>
</mask>
<g mask="url(#mask1_13_24)">
<g filter="url(#filter1_f_13_24)">
<path fill-rule="evenodd" clip-rule="evenodd" d="M295.636 295.935C298.912 305.107 305.728 363.348 290.399 385.183C270.43 410.906 74.3007 401.391 62.3656 394.964C51.4597 389.728 238.253 394.906 264.101 360.628C285.366 331.084 290.199 279.7 295.636 295.935Z" fill="black" fill-opacity="0.196078"/>
</g>
</g>
</g>
<g clip-path="url(#clip1_13_24)">
<path d="M139.239 84.0457C149.044 84.0457 156.993 77.895 156.993 70.3076C156.993 62.7203 149.044 56.5696 139.239 56.5696C129.433 56.5696 121.484 62.7203 121.484 70.3076C121.484 77.895 129.433 84.0457 139.239 84.0457Z" fill="#004900"/>
<path d="M160.075 84.0457C169.88 84.0457 177.829 77.895 177.829 70.3076C177.829 62.7203 169.88 56.5696 160.075 56.5696C150.27 56.5696 142.321 62.7203 142.321 70.3076C142.321 77.895 150.27 84.0457 160.075 84.0457Z" fill="#004900"/>
<path d="M138.363 191.5C148.169 191.5 156.117 185.349 156.117 177.761C156.117 170.174 148.169 164.023 138.363 164.023C128.558 164.023 120.609 170.174 120.609 177.761C120.609 185.349 128.558 191.5 138.363 191.5Z" fill="#004900"/>
<path d="M149.691 169.861V72.981" stroke="#004900" stroke-width="52.7536" stroke-linecap="round"/>
<path d="M161.242 191.5C171.047 191.5 178.996 185.349 178.996 177.761C178.996 170.174 171.047 164.023 161.242 164.023C151.437 164.023 143.488 170.174 143.488 177.761C143.488 185.349 151.437 191.5 161.242 191.5Z" fill="#004900"/>
<path d="M157.899 137.766C170.925 137.766 181.484 129.595 181.484 119.516C181.484 109.436 170.925 101.265 157.899 101.265C144.873 101.265 134.313 109.436 134.313 119.516C134.313 129.595 144.873 137.766 157.899 137.766Z" fill="#004900"/>
<path d="M141.59 137.766C154.616 137.766 165.175 129.595 165.175 119.516C165.175 109.436 154.616 101.265 141.59 101.265C128.564 101.265 118.004 109.436 118.004 119.516C118.004 129.595 128.564 137.766 141.59 137.766Z" fill="#004900"/>
<path d="M149.691 74.1182V101.341" stroke="white" stroke-width="12" stroke-linecap="round"/>
<path d="M149.691 140.184V173.803" stroke="white" stroke-width="12" stroke-linecap="round"/>
<path d="M149.691 78.7991C153.263 78.7991 156.16 75.9978 156.16 72.5423C156.16 69.0869 153.263 66.2856 149.691 66.2856C146.118 66.2856 143.222 69.0869 143.222 72.5423C143.222 75.9978 146.118 78.7991 149.691 78.7991Z" fill="white"/>
<path d="M142.96 128.858C146.002 124.224 154.153 124.424 156.713 128.858" stroke="white" stroke-width="10" stroke-linecap="round" stroke-linejoin="round"/>
<path d="M142.96 115.703C146.002 111.07 154.153 111.27 156.713 115.703" stroke="white" stroke-width="10" stroke-linecap="round" stroke-linejoin="round"/>
<path d="M64.7484 240.37C74.5537 240.37 82.5024 234.219 82.5024 226.632C82.5024 219.045 74.5537 212.894 64.7484 212.894C54.9431 212.894 46.9943 219.045 46.9943 226.632C46.9943 234.219 54.9431 240.37 64.7484 240.37Z" fill="#004900"/>
<path d="M85.5848 240.37C95.3901 240.37 103.339 234.219 103.339 226.632C103.339 219.045 95.3901 212.894 85.5848 212.894C75.7795 212.894 67.8308 219.045 67.8308 226.632C67.8308 234.219 75.7795 240.37 85.5848 240.37Z" fill="#004900"/>
<path d="M63.8731 347.824C73.6784 347.824 81.6272 341.673 81.6272 334.086C81.6272 326.499 73.6784 320.348 63.8731 320.348C54.0678 320.348 46.119 326.499 46.119 334.086C46.119 341.673 54.0678 347.824 63.8731 347.824Z" fill="#004900"/>
<path d="M75.2008 326.185V229.305" stroke="#004900" stroke-width="52.7536" stroke-linecap="round"/>
<path d="M86.7518 347.824C96.5571 347.824 104.506 341.673 104.506 334.086C104.506 326.499 96.5571 320.348 86.7518 320.348C76.9465 320.348 68.9978 326.499 68.9978 334.086C68.9978 341.673 76.9465 347.824 86.7518 347.824Z" fill="#004900"/>
<path d="M83.4087 294.091C96.4347 294.091 106.994 285.92 106.994 275.84C106.994 265.761 96.4347 257.59 83.4087 257.59C70.3828 257.59 59.8231 265.761 59.8231 275.84C59.8231 285.92 70.3828 294.091 83.4087 294.091Z" fill="#004900"/>
<path d="M67.0995 294.091C80.1255 294.091 90.6851 285.92 90.6851 275.84C90.6851 265.761 80.1255 257.59 67.0995 257.59C54.0736 257.59 43.514 265.761 43.514 275.84C43.514 285.92 54.0736 294.091 67.0995 294.091Z" fill="#004900"/>
<path d="M75.2008 230.443V257.665" stroke="white" stroke-width="12" stroke-linecap="round"/>
<path d="M75.2008 296.508V330.127" stroke="white" stroke-width="12" stroke-linecap="round"/>
<path d="M75.2008 235.124C78.7733 235.124 81.6694 232.322 81.6694 228.867C81.6694 225.411 78.7733 222.61 75.2008 222.61C71.6283 222.61 68.7323 225.411 68.7323 228.867C68.7323 232.322 71.6283 235.124 75.2008 235.124Z" fill="white"/>
<path d="M68.4702 285.182C71.5118 280.549 79.6633 280.749 82.2232 285.182" stroke="white" stroke-width="10" stroke-linecap="round" stroke-linejoin="round"/>
<path d="M68.4702 272.028C71.5118 267.394 79.6633 267.594 82.2232 272.028" stroke="white" stroke-width="10" stroke-linecap="round" stroke-linejoin="round"/>
<path d="M216.876 240.37C226.681 240.37 234.63 234.219 234.63 226.632C234.63 219.045 226.681 212.894 216.876 212.894C207.071 212.894 199.122 219.045 199.122 226.632C199.122 234.219 207.071 240.37 216.876 240.37Z" fill="#004900"/>
<path d="M237.713 240.37C247.518 240.37 255.467 234.219 255.467 226.632C255.467 219.045 247.518 212.894 237.713 212.894C227.907 212.894 219.959 219.045 219.959 226.632C219.959 234.219 227.907 240.37 237.713 240.37Z" fill="#004900"/>
<path d="M216.001 347.824C225.806 347.824 233.755 341.673 233.755 334.086C233.755 326.499 225.806 320.348 216.001 320.348C206.196 320.348 198.247 326.499 198.247 334.086C198.247 341.673 206.196 347.824 216.001 347.824Z" fill="#004900"/>
<path d="M227.329 326.185V229.305" stroke="#004900" stroke-width="52.7536" stroke-linecap="round"/>
<path d="M238.88 347.824C248.685 347.824 256.634 341.673 256.634 334.086C256.634 326.499 248.685 320.348 238.88 320.348C229.074 320.348 221.126 326.499 221.126 334.086C221.126 341.673 229.074 347.824 238.88 347.824Z" fill="#004900"/>
<path d="M235.536 294.091C248.562 294.091 259.122 285.92 259.122 275.84C259.122 265.761 248.562 257.59 235.536 257.59C222.511 257.59 211.951 265.761 211.951 275.84C211.951 285.92 222.511 294.091 235.536 294.091Z" fill="#004900"/>
<path d="M219.227 294.091C232.253 294.091 242.813 285.92 242.813 275.84C242.813 265.761 232.253 257.59 219.227 257.59C206.201 257.59 195.642 265.761 195.642 275.84C195.642 285.92 206.201 294.091 219.227 294.091Z" fill="#004900"/>
<path d="M227.329 230.443V257.665" stroke="white" stroke-width="12" stroke-linecap="round"/>
<path d="M227.329 296.508V330.127" stroke="white" stroke-width="12" stroke-linecap="round"/>
<path d="M227.329 235.124C230.901 235.124 233.797 232.322 233.797 228.867C233.797 225.411 230.901 222.61 227.329 222.61C223.756 222.61 220.86 225.411 220.86 228.867C220.86 232.322 223.756 235.124 227.329 235.124Z" fill="white"/>
<path d="M220.598 285.182C223.64 280.549 231.791 280.749 234.351 285.182" stroke="white" stroke-width="10" stroke-linecap="round" stroke-linejoin="round"/>
<path d="M220.598 272.028C223.64 267.394 231.791 267.594 234.351 272.028" stroke="white" stroke-width="10" stroke-linecap="round" stroke-linejoin="round"/>
<path d="M64.7484 84.0457C74.5537 84.0457 82.5024 77.895 82.5024 70.3076C82.5024 62.7203 74.5537 56.5696 64.7484 56.5696C54.9431 56.5696 46.9943 62.7203 46.9943 70.3076C46.9943 77.895 54.9431 84.0457 64.7484 84.0457Z" fill="#004900"/>
<path d="M85.5848 84.0457C95.3901 84.0457 103.339 77.895 103.339 70.3076C103.339 62.7203 95.3901 56.5696 85.5848 56.5696C75.7795 56.5696 67.8308 62.7203 67.8308 70.3076C67.8308 77.895 75.7795 84.0457 85.5848 84.0457Z" fill="#004900"/>
<path d="M63.8731 191.5C73.6784 191.5 81.6272 185.349 81.6272 177.761C81.6272 170.174 73.6784 164.023 63.8731 164.023C54.0678 164.023 46.119 170.174 46.119 177.761C46.119 185.349 54.0678 191.5 63.8731 191.5Z" fill="#004900"/>
<path d="M75.2008 169.861V72.981" stroke="#004900" stroke-width="52.7536" stroke-linecap="round"/>
<path d="M86.7518 191.5C96.5571 191.5 104.506 185.349 104.506 177.761C104.506 170.174 96.5571 164.023 86.7518 164.023C76.9465 164.023 68.9978 170.174 68.9978 177.761C68.9978 185.349 76.9465 191.5 86.7518 191.5Z" fill="#004900"/>
<path d="M83.4087 137.766C96.4347 137.766 106.994 129.595 106.994 119.516C106.994 109.436 96.4347 101.265 83.4087 101.265C70.3828 101.265 59.8231 109.436 59.8231 119.516C59.8231 129.595 70.3828 137.766 83.4087 137.766Z" fill="#004900"/>
<path d="M67.0995 137.766C80.1255 137.766 90.6851 129.595 90.6851 119.516C90.6851 109.436 80.1255 101.265 67.0995 101.265C54.0736 101.265 43.514 109.436 43.514 119.516C43.514 129.595 54.0736 137.766 67.0995 137.766Z" fill="#004900"/>
<path d="M75.2008 74.1182V101.341" stroke="white" stroke-width="12" stroke-linecap="round"/>
<path d="M75.2008 140.184V173.803" stroke="white" stroke-width="12" stroke-linecap="round"/>
<path d="M75.2008 78.7991C78.7733 78.7991 81.6694 75.9978 81.6694 72.5423C81.6694 69.0869 78.7733 66.2856 75.2008 66.2856C71.6283 66.2856 68.7323 69.0869 68.7323 72.5423C68.7323 75.9978 71.6283 78.7991 75.2008 78.7991Z" fill="white"/>
<path d="M68.4702 128.858C71.5118 124.224 79.6633 124.424 82.2232 128.858" stroke="white" stroke-width="10" stroke-linecap="round" stroke-linejoin="round"/>
<path d="M68.4702 115.703C71.5118 111.07 79.6633 111.27 82.2232 115.703" stroke="white" stroke-width="10" stroke-linecap="round" stroke-linejoin="round"/>
<path d="M216.876 84.0457C226.681 84.0457 234.63 77.895 234.63 70.3076C234.63 62.7203 226.681 56.5696 216.876 56.5696C207.071 56.5696 199.122 62.7203 199.122 70.3076C199.122 77.895 207.071 84.0457 216.876 84.0457Z" fill="#004900"/>
<path d="M237.713 84.0457C247.518 84.0457 255.467 77.895 255.467 70.3076C255.467 62.7203 247.518 56.5696 237.713 56.5696C227.907 56.5696 219.959 62.7203 219.959 70.3076C219.959 77.895 227.907 84.0457 237.713 84.0457Z" fill="#004900"/>
<path d="M216.001 191.5C225.806 191.5 233.755 185.349 233.755 177.761C233.755 170.174 225.806 164.023 216.001 164.023C206.196 164.023 198.247 170.174 198.247 177.761C198.247 185.349 206.196 191.5 216.001 191.5Z" fill="#004900"/>
<path d="M227.329 169.861V72.981" stroke="#004900" stroke-width="52.7536" stroke-linecap="round"/>
<path d="M238.88 191.5C248.685 191.5 256.634 185.349 256.634 177.761C256.634 170.174 248.685 164.023 238.88 164.023C229.074 164.023 221.126 170.174 221.126 177.761C221.126 185.349 229.074 191.5 238.88 191.5Z" fill="#004900"/>
<path d="M235.536 137.766C248.562 137.766 259.122 129.595 259.122 119.516C259.122 109.436 248.562 101.265 235.536 101.265C222.511 101.265 211.951 109.436 211.951 119.516C211.951 129.595 222.511 137.766 235.536 137.766Z" fill="#004900"/>
<path d="M219.227 137.766C232.253 137.766 242.813 129.595 242.813 119.516C242.813 109.436 232.253 101.265 219.227 101.265C206.201 101.265 195.642 109.436 195.642 119.516C195.642 129.595 206.201 137.766 219.227 137.766Z" fill="#004900"/>
<path d="M227.329 74.1182V101.341" stroke="white" stroke-width="12" stroke-linecap="round"/>
<path d="M227.329 140.184V173.803" stroke="white" stroke-width="12" stroke-linecap="round"/>
<path d="M227.329 78.7991C230.901 78.7991 233.797 75.9978 233.797 72.5423C233.797 69.0869 230.901 66.2856 227.329 66.2856C223.756 66.2856 220.86 69.0869 220.86 72.5423C220.86 75.9978 223.756 78.7991 227.329 78.7991Z" fill="white"/>
<path d="M220.598 128.858C223.64 124.224 231.791 124.424 234.351 128.858" stroke="white" stroke-width="10" stroke-linecap="round" stroke-linejoin="round"/>
<path d="M220.598 115.703C223.64 111.07 231.791 111.27 234.351 115.703" stroke="white" stroke-width="10" stroke-linecap="round" stroke-linejoin="round"/>
<path d="M139.239 240.37C149.044 240.37 156.993 234.219 156.993 226.632C156.993 219.045 149.044 212.894 139.239 212.894C129.433 212.894 121.484 219.045 121.484 226.632C121.484 234.219 129.433 240.37 139.239 240.37Z" fill="#004900"/>
<path d="M160.075 240.37C169.88 240.37 177.829 234.219 177.829 226.632C177.829 219.045 169.88 212.894 160.075 212.894C150.27 212.894 142.321 219.045 142.321 226.632C142.321 234.219 150.27 240.37 160.075 240.37Z" fill="#004900"/>
<path d="M138.363 347.824C148.169 347.824 156.117 341.673 156.117 334.086C156.117 326.499 148.169 320.348 138.363 320.348C128.558 320.348 120.609 326.499 120.609 334.086C120.609 341.673 128.558 347.824 138.363 347.824Z" fill="#004900"/>
<path d="M149.691 326.185V229.305" stroke="#004900" stroke-width="52.7536" stroke-linecap="round"/>
<path d="M161.242 347.824C171.047 347.824 178.996 341.673 178.996 334.086C178.996 326.499 171.047 320.348 161.242 320.348C151.437 320.348 143.488 326.499 143.488 334.086C143.488 341.673 151.437 347.824 161.242 347.824Z" fill="#004900"/>
<path d="M157.899 294.091C170.925 294.091 181.484 285.92 181.484 275.84C181.484 265.761 170.925 257.59 157.899 257.59C144.873 257.59 134.313 265.761 134.313 275.84C134.313 285.92 144.873 294.091 157.899 294.091Z" fill="#004900"/>
<path d="M141.59 294.091C154.616 294.091 165.175 285.92 165.175 275.84C165.175 265.761 154.616 257.59 141.59 257.59C128.564 257.59 118.004 265.761 118.004 275.84C118.004 285.92 128.564 294.091 141.59 294.091Z" fill="#004900"/>
<path d="M149.691 230.443V257.665" stroke="white" stroke-width="12" stroke-linecap="round"/>
<path d="M149.691 296.508V330.127" stroke="white" stroke-width="12" stroke-linecap="round"/>
<path d="M149.691 235.124C153.263 235.124 156.16 232.322 156.16 228.867C156.16 225.411 153.263 222.61 149.691 222.61C146.118 222.61 143.222 225.411 143.222 228.867C143.222 232.322 146.118 235.124 149.691 235.124Z" fill="white"/>
<path d="M142.96 285.182C146.002 280.549 154.153 280.749 156.713 285.182" stroke="white" stroke-width="10" stroke-linecap="round" stroke-linejoin="round"/>
<path d="M142.96 272.028C146.002 267.394 154.153 267.594 156.713 272.028" stroke="white" stroke-width="10" stroke-linecap="round" stroke-linejoin="round"/>
</g>
<defs>
<filter id="filter0_f_13_24" x="-11.8441" y="-18.6217" width="272.981" height="151.274" filterUnits="userSpaceOnUse" color-interpolation-filters="sRGB">
<feFlood flood-opacity="0" result="BackgroundImageFix"/>
<feBlend mode="normal" in="SourceGraphic" in2="BackgroundImageFix" result="shape"/>
<feGaussianBlur stdDeviation="0.6275" result="effect1_foregroundBlur_13_24"/>
</filter>
<filter id="filter1_f_13_24" x="60.6515" y="291.58" width="240.61" height="111.805" filterUnits="userSpaceOnUse" color-interpolation-filters="sRGB">
<feFlood flood-opacity="0" result="BackgroundImageFix"/>
<feBlend mode="normal" in="SourceGraphic" in2="BackgroundImageFix" result="shape"/>
<feGaussianBlur stdDeviation="0.6275" result="effect1_foregroundBlur_13_24"/>
</filter>
<clipPath id="clip0_13_24">
<rect width="300" height="400" fill="white"/>
</clipPath>
<clipPath id="clip1_13_24">
<rect width="225" height="300" fill="white" transform="translate(37.5 50)"/>
</clipPath>
</defs>
</svg>
