<svg width="75" height="100" viewBox="0 0 75 100" fill="none" xmlns="http://www.w3.org/2000/svg">
<g clip-path="url(#clip0_13_24)">
<path d="M64.0258 -0.0195312H9.8479C4.40905 -0.0195312 0 4.38952 0 9.82837V88.8031C0 94.242 4.40905 98.651 9.8479 98.651H64.0258C69.4647 98.651 73.8737 94.242 73.8737 88.8031V9.82837C73.8737 4.38952 69.4647 -0.0195312 64.0258 -0.0195312Z" fill="#F5F0EB"/>
<mask id="mask0_13_24" style="mask-type:luminance" maskUnits="userSpaceOnUse" x="0" y="-1" width="74" height="100">
<path d="M64.0258 -0.0195312H9.8479C4.40905 -0.0195312 0 4.38952 0 9.82837V88.8031C0 94.242 4.40905 98.651 9.8479 98.651H64.0258C69.4647 98.651 73.8737 94.242 73.8737 88.8031V9.82837C73.8737 4.38952 69.4647 -0.0195312 64.0258 -0.0195312Z" fill="#FF3737"/>
</mask>
<g mask="url(#mask0_13_24)">
<g filter="url(#filter0_f_13_24)">
<path fill-rule="evenodd" clip-rule="evenodd" d="M-1.17407 30.2102C-2.37586 22.067 -4.14733 5.38508 -0.314861 -0.0737726C4.67733 -6.50453 57.4873 -5.10431 64.8273 0.38068C68.0032 2.53209 17.3199 2.64848 11.5957 9.69552C6.00499 16.4334 0.160172 40.8253 -1.17407 30.2102Z" fill="white"/>
</g>
</g>
<mask id="mask1_13_24" style="mask-type:luminance" maskUnits="userSpaceOnUse" x="37" y="67" width="75" height="99">
<path d="M47.2401 165.75H101.418C106.857 165.75 111.266 161.341 111.266 155.902V76.9274C111.266 71.4885 106.857 67.0795 101.418 67.0795H47.2401C41.8013 67.0795 37.3922 71.4885 37.3922 76.9274V155.902C37.3922 161.341 41.8013 165.75 47.2401 165.75Z" fill="#FF3737"/>
</mask>
<g mask="url(#mask1_13_24)">
<g filter="url(#filter1_f_13_24)">
<path fill-rule="evenodd" clip-rule="evenodd" d="M73.909 73.9837C74.728 76.2768 76.4321 90.8369 72.5996 96.2958C67.6075 102.727 18.5752 100.348 15.5914 98.741C12.8649 97.4319 59.5631 98.7265 66.0252 90.1569C71.3415 82.7709 72.5497 69.9248 73.909 73.9837Z" fill="black" fill-opacity="0.196078"/>
</g>
</g>
</g>
<path fill-rule="evenodd" clip-rule="evenodd" d="M41.2649 16.7581C40.058 16.6668 35.7162 21.5162 34.5798 23.2219C33.5398 24.5223 35.4555 25.318 36.1983 26.4205C37.1358 27.9386 36.4214 43.3524 34.6756 51.8705L37.5005 51.4354C39.3544 44.454 40.7259 31.4877 42.1139 30.3277C43.4351 29.2638 46.437 29.3758 46.0724 27.801C45.3175 24.2845 42.3383 16.7979 41.2649 16.7581Z" fill="#19328C"/>
<path fill-rule="evenodd" clip-rule="evenodd" d="M30.6739 36.9953C27.2194 37.161 25.4147 39.0099 30.4823 39.7261C36.454 39.9793 48.9117 38.6039 48.9258 36.8615C49.0171 34.5289 47.1579 31.1437 46.0536 31.1646C45.1752 31.1772 43.386 32.3101 43.2235 33.6792C43.0824 35.2846 33.9109 36.8034 30.6739 36.9953Z" fill="#19328C"/>
<path fill-rule="evenodd" clip-rule="evenodd" d="M36.4549 46.7726C41.1361 44.7833 44.8426 42.9244 49.2691 40.41C50.8222 39.5816 52.275 41.2861 51.9566 42.3864C51.7496 43.1017 49.3842 47.4276 51.4642 47.5963C49.5836 49.1085 44.5117 53.5845 41.6016 60.3657L37.0671 59.9705C39.0131 54.9485 46.4484 46.5652 45.9446 46.0152C45.086 45.0573 38.2461 48.5652 36.7518 48.1229L36.4549 46.7726Z" fill="#19328C"/>
<path fill-rule="evenodd" clip-rule="evenodd" d="M19.0358 55.1572C26.3562 51.0837 42.5805 47.4008 55.6638 47.1915C57.3286 47.0867 61.3094 57.055 61.2742 58.7771C61.1648 63.6789 52.977 75.4437 47.8975 82.5284C46.8395 83.738 44.4462 83.4411 42.8394 82.412L34.158 76.4675C33.2806 75.7049 33.6093 74.0963 35.0803 75.0092C37.0235 76.2428 40.9982 77.8075 43.2007 78.1041C45.2232 78.3815 51.9918 61.8791 52.3967 59.0965C52.6346 57.833 51.0301 51.7057 48.1355 51.512C28.5502 52.264 21.9935 58.2534 19.3648 58.5269L19.0358 55.1572Z" fill="#19328C"/>
<path fill-rule="evenodd" clip-rule="evenodd" d="M14.8148 48.1342C13.2937 48.6 13.8024 50.5681 14.0187 51.7566C15.8025 59.9015 22.4803 75.3636 23.815 76.2844C27.9237 78.6351 29.5302 77.0685 29.4605 75.2965C29.2529 73.5789 23.9304 59.3935 20.5893 51.9062C19.4356 49.5142 16.5617 47.6806 14.8148 48.1342Z" fill="#19328C"/>
<path fill-rule="evenodd" clip-rule="evenodd" d="M21.0286 44.3222C18.5246 43.1078 19.3331 40.908 22.7202 42.2325C30.4096 45.1922 33.3556 50.1368 35.8682 59.8754L33.0434 60.6658C30.6186 51.4525 27.7307 48.0348 21.0286 44.3222Z" fill="#19328C"/>
<path fill-rule="evenodd" clip-rule="evenodd" d="M30.5279 64.5669C27.6232 65.6787 28.148 61.175 30.1153 60.6061C43.6534 56.2464 44.2879 56.6215 46.5512 57.5495C48.7157 58.4464 49.4904 61.6833 46.6153 61.5229C40.9199 61.1521 36.4638 62.003 30.5279 64.5669Z" fill="#19328C"/>
<path fill-rule="evenodd" clip-rule="evenodd" d="M31.0831 67.5658C29.2162 68.0758 29.8016 71.0065 31.6817 70.5698C36.5658 69.5032 40.0039 68.8687 45.0225 68.1221C46.535 67.8632 46.4876 63.8701 45.1208 63.2475C43.2783 62.6774 43.0721 63.9289 42.2624 64.3988C40.0453 65.5678 35.4652 66.3665 31.0831 67.5658Z" fill="#19328C"/>
<path fill-rule="evenodd" clip-rule="evenodd" d="M35.2002 61.1916C35.608 66.0505 36.0978 71.5022 35.5196 76.3611L38.7196 78.1774C39.2908 72.5888 39.9094 66.2758 39.4961 60.6873L35.2002 61.1916Z" fill="#19328C"/>
<defs>
<filter id="filter0_f_13_24" x="-3.90228" y="-5.5968" width="70.1277" height="39.7009" filterUnits="userSpaceOnUse" color-interpolation-filters="sRGB">
<feFlood flood-opacity="0" result="BackgroundImageFix"/>
<feBlend mode="normal" in="SourceGraphic" in2="BackgroundImageFix" result="shape"/>
<feGaussianBlur stdDeviation="0.6275" result="effect1_foregroundBlur_13_24"/>
</filter>
<filter id="filter1_f_13_24" x="14.2216" y="71.9537" width="62.0351" height="29.8337" filterUnits="userSpaceOnUse" color-interpolation-filters="sRGB">
<feFlood flood-opacity="0" result="BackgroundImageFix"/>
<feBlend mode="normal" in="SourceGraphic" in2="BackgroundImageFix" result="shape"/>
<feGaussianBlur stdDeviation="0.6275" result="effect1_foregroundBlur_13_24"/>
</filter>
<clipPath id="clip0_13_24">
<rect width="75" height="100" fill="white"/>
</clipPath>
</defs>
</svg>
